ISO-10303-21;
HEADER;
/* Generated by software containing ST-Developer
 * from STEP Tools, Inc. (www.steptools.com) 
 */

FILE_DESCRIPTION(
/* description */ (''),
/* implementation_level */ '2;1');

FILE_NAME(
/* name */ '20 mm ROD 260mm length v1.step',
/* time_stamp */ '2025-07-18T20:13:12+05:30',
/* author */ (''),
/* organization */ (''),
/* preprocessor_version */ 'ST-DEVELOPER v20.1',
/* originating_system */ 'Autodesk Translation Framework v14.10.0.0',
/* authorisation */ '');

FILE_SCHEMA (('AUTOMOTIVE_DESIGN { 1 0 10303 214 3 1 1 }'));
ENDSEC;

DATA;
#10=MECHANICAL_DESIGN_GEOMETRIC_PRESENTATION_REPRESENTATION('',(#13,#14,
#15),#1806);
#11=SHAPE_REPRESENTATION_RELATIONSHIP('SRR','None',#1813,#12);
#12=ADVANCED_BREP_SHAPE_REPRESENTATION('',(#16,#17,#18),#1805);
#13=STYLED_ITEM('',(#1822),#16);
#14=STYLED_ITEM('',(#1822),#17);
#15=STYLED_ITEM('',(#1822),#18);
#16=MANIFOLD_SOLID_BREP('Body1',#1088);
#17=MANIFOLD_SOLID_BREP('Body2',#1089);
#18=MANIFOLD_SOLID_BREP('Body3',#1090);
#19=FACE_BOUND('',#170,.T.);
#20=FACE_BOUND('',#172,.T.);
#21=PLANE('',#1107);
#22=PLANE('',#1111);
#23=PLANE('',#1112);
#24=PLANE('',#1113);
#25=PLANE('',#1117);
#26=PLANE('',#1118);
#27=PLANE('',#1119);
#28=PLANE('',#1123);
#29=PLANE('',#1124);
#30=PLANE('',#1125);
#31=PLANE('',#1129);
#32=PLANE('',#1130);
#33=PLANE('',#1131);
#34=PLANE('',#1135);
#35=PLANE('',#1136);
#36=PLANE('',#1137);
#37=PLANE('',#1141);
#38=PLANE('',#1142);
#39=PLANE('',#1143);
#40=PLANE('',#1147);
#41=PLANE('',#1148);
#42=PLANE('',#1149);
#43=PLANE('',#1153);
#44=PLANE('',#1154);
#45=PLANE('',#1155);
#46=PLANE('',#1159);
#47=PLANE('',#1160);
#48=PLANE('',#1161);
#49=PLANE('',#1165);
#50=PLANE('',#1166);
#51=PLANE('',#1167);
#52=PLANE('',#1171);
#53=PLANE('',#1172);
#54=PLANE('',#1173);
#55=PLANE('',#1177);
#56=PLANE('',#1178);
#57=PLANE('',#1179);
#58=PLANE('',#1180);
#59=PLANE('',#1184);
#60=PLANE('',#1185);
#61=PLANE('',#1189);
#62=PLANE('',#1190);
#63=FACE_OUTER_BOUND('',#120,.T.);
#64=FACE_OUTER_BOUND('',#121,.T.);
#65=FACE_OUTER_BOUND('',#122,.T.);
#66=FACE_OUTER_BOUND('',#123,.T.);
#67=FACE_OUTER_BOUND('',#124,.T.);
#68=FACE_OUTER_BOUND('',#125,.T.);
#69=FACE_OUTER_BOUND('',#126,.T.);
#70=FACE_OUTER_BOUND('',#127,.T.);
#71=FACE_OUTER_BOUND('',#128,.T.);
#72=FACE_OUTER_BOUND('',#129,.T.);
#73=FACE_OUTER_BOUND('',#130,.T.);
#74=FACE_OUTER_BOUND('',#131,.T.);
#75=FACE_OUTER_BOUND('',#132,.T.);
#76=FACE_OUTER_BOUND('',#133,.T.);
#77=FACE_OUTER_BOUND('',#134,.T.);
#78=FACE_OUTER_BOUND('',#135,.T.);
#79=FACE_OUTER_BOUND('',#136,.T.);
#80=FACE_OUTER_BOUND('',#137,.T.);
#81=FACE_OUTER_BOUND('',#138,.T.);
#82=FACE_OUTER_BOUND('',#139,.T.);
#83=FACE_OUTER_BOUND('',#140,.T.);
#84=FACE_OUTER_BOUND('',#141,.T.);
#85=FACE_OUTER_BOUND('',#142,.T.);
#86=FACE_OUTER_BOUND('',#143,.T.);
#87=FACE_OUTER_BOUND('',#144,.T.);
#88=FACE_OUTER_BOUND('',#145,.T.);
#89=FACE_OUTER_BOUND('',#146,.T.);
#90=FACE_OUTER_BOUND('',#147,.T.);
#91=FACE_OUTER_BOUND('',#148,.T.);
#92=FACE_OUTER_BOUND('',#149,.T.);
#93=FACE_OUTER_BOUND('',#150,.T.);
#94=FACE_OUTER_BOUND('',#151,.T.);
#95=FACE_OUTER_BOUND('',#152,.T.);
#96=FACE_OUTER_BOUND('',#153,.T.);
#97=FACE_OUTER_BOUND('',#154,.T.);
#98=FACE_OUTER_BOUND('',#155,.T.);
#99=FACE_OUTER_BOUND('',#156,.T.);
#100=FACE_OUTER_BOUND('',#157,.T.);
#101=FACE_OUTER_BOUND('',#158,.T.);
#102=FACE_OUTER_BOUND('',#159,.T.);
#103=FACE_OUTER_BOUND('',#160,.T.);
#104=FACE_OUTER_BOUND('',#161,.T.);
#105=FACE_OUTER_BOUND('',#162,.T.);
#106=FACE_OUTER_BOUND('',#163,.T.);
#107=FACE_OUTER_BOUND('',#164,.T.);
#108=FACE_OUTER_BOUND('',#165,.T.);
#109=FACE_OUTER_BOUND('',#166,.T.);
#110=FACE_OUTER_BOUND('',#167,.T.);
#111=FACE_OUTER_BOUND('',#168,.T.);
#112=FACE_OUTER_BOUND('',#169,.T.);
#113=FACE_OUTER_BOUND('',#171,.T.);
#114=FACE_OUTER_BOUND('',#173,.T.);
#115=FACE_OUTER_BOUND('',#174,.T.);
#116=FACE_OUTER_BOUND('',#175,.T.);
#117=FACE_OUTER_BOUND('',#176,.T.);
#118=FACE_OUTER_BOUND('',#177,.T.);
#119=FACE_OUTER_BOUND('',#178,.T.);
#120=EDGE_LOOP('',(#710,#711,#712,#713));
#121=EDGE_LOOP('',(#714,#715,#716,#717));
#122=EDGE_LOOP('',(#718,#719,#720,#721));
#123=EDGE_LOOP('',(#722,#723,#724,#725));
#124=EDGE_LOOP('',(#726,#727,#728,#729));
#125=EDGE_LOOP('',(#730,#731,#732,#733));
#126=EDGE_LOOP('',(#734,#735,#736,#737));
#127=EDGE_LOOP('',(#738,#739,#740,#741));
#128=EDGE_LOOP('',(#742,#743,#744,#745));
#129=EDGE_LOOP('',(#746,#747,#748,#749));
#130=EDGE_LOOP('',(#750,#751,#752,#753));
#131=EDGE_LOOP('',(#754,#755,#756,#757));
#132=EDGE_LOOP('',(#758,#759,#760,#761));
#133=EDGE_LOOP('',(#762,#763,#764,#765));
#134=EDGE_LOOP('',(#766,#767,#768,#769));
#135=EDGE_LOOP('',(#770,#771,#772,#773));
#136=EDGE_LOOP('',(#774,#775,#776,#777));
#137=EDGE_LOOP('',(#778,#779,#780,#781));
#138=EDGE_LOOP('',(#782,#783,#784,#785));
#139=EDGE_LOOP('',(#786,#787,#788,#789));
#140=EDGE_LOOP('',(#790,#791,#792,#793));
#141=EDGE_LOOP('',(#794,#795,#796,#797));
#142=EDGE_LOOP('',(#798,#799,#800,#801));
#143=EDGE_LOOP('',(#802,#803,#804,#805));
#144=EDGE_LOOP('',(#806,#807,#808,#809));
#145=EDGE_LOOP('',(#810,#811,#812,#813));
#146=EDGE_LOOP('',(#814,#815,#816,#817));
#147=EDGE_LOOP('',(#818,#819,#820,#821));
#148=EDGE_LOOP('',(#822,#823,#824,#825));
#149=EDGE_LOOP('',(#826,#827,#828,#829));
#150=EDGE_LOOP('',(#830,#831,#832,#833));
#151=EDGE_LOOP('',(#834,#835,#836,#837));
#152=EDGE_LOOP('',(#838,#839,#840,#841));
#153=EDGE_LOOP('',(#842,#843,#844,#845));
#154=EDGE_LOOP('',(#846,#847,#848,#849));
#155=EDGE_LOOP('',(#850,#851,#852,#853));
#156=EDGE_LOOP('',(#854,#855,#856,#857));
#157=EDGE_LOOP('',(#858,#859,#860,#861));
#158=EDGE_LOOP('',(#862,#863,#864,#865));
#159=EDGE_LOOP('',(#866,#867,#868,#869));
#160=EDGE_LOOP('',(#870,#871,#872,#873));
#161=EDGE_LOOP('',(#874,#875,#876,#877));
#162=EDGE_LOOP('',(#878,#879,#880,#881));
#163=EDGE_LOOP('',(#882,#883,#884,#885));
#164=EDGE_LOOP('',(#886,#887,#888,#889));
#165=EDGE_LOOP('',(#890,#891,#892,#893));
#166=EDGE_LOOP('',(#894,#895,#896,#897));
#167=EDGE_LOOP('',(#898,#899,#900,#901));
#168=EDGE_LOOP('',(#902,#903,#904,#905));
#169=EDGE_LOOP('',(#906,#907,#908,#909,#910,#911,#912,#913,#914,#915,#916,
#917,#918,#919,#920,#921,#922,#923,#924,#925,#926,#927,#928,#929,#930,#931,
#932,#933,#934,#935,#936,#937,#938,#939,#940,#941,#942,#943,#944,#945,#946,
#947,#948,#949,#950,#951,#952,#953));
#170=EDGE_LOOP('',(#954));
#171=EDGE_LOOP('',(#955,#956,#957,#958,#959,#960,#961,#962,#963,#964,#965,
#966,#967,#968,#969,#970,#971,#972,#973,#974,#975,#976,#977,#978,#979,#980,
#981,#982,#983,#984,#985,#986,#987,#988,#989,#990,#991,#992,#993,#994,#995,
#996,#997,#998,#999,#1000,#1001,#1002));
#172=EDGE_LOOP('',(#1003));
#173=EDGE_LOOP('',(#1004,#1005,#1006,#1007));
#174=EDGE_LOOP('',(#1008));
#175=EDGE_LOOP('',(#1009));
#176=EDGE_LOOP('',(#1010,#1011,#1012,#1013));
#177=EDGE_LOOP('',(#1014));
#178=EDGE_LOOP('',(#1015));
#179=LINE('',#1495,#302);
#180=LINE('',#1500,#303);
#181=LINE('',#1502,#304);
#182=LINE('',#1504,#305);
#183=LINE('',#1505,#306);
#184=LINE('',#1511,#307);
#185=LINE('',#1514,#308);
#186=LINE('',#1516,#309);
#187=LINE('',#1517,#310);
#188=LINE('',#1520,#311);
#189=LINE('',#1522,#312);
#190=LINE('',#1523,#313);
#191=LINE('',#1526,#314);
#192=LINE('',#1528,#315);
#193=LINE('',#1529,#316);
#194=LINE('',#1535,#317);
#195=LINE('',#1538,#318);
#196=LINE('',#1540,#319);
#197=LINE('',#1541,#320);
#198=LINE('',#1544,#321);
#199=LINE('',#1546,#322);
#200=LINE('',#1547,#323);
#201=LINE('',#1550,#324);
#202=LINE('',#1552,#325);
#203=LINE('',#1553,#326);
#204=LINE('',#1559,#327);
#205=LINE('',#1562,#328);
#206=LINE('',#1564,#329);
#207=LINE('',#1565,#330);
#208=LINE('',#1568,#331);
#209=LINE('',#1570,#332);
#210=LINE('',#1571,#333);
#211=LINE('',#1574,#334);
#212=LINE('',#1576,#335);
#213=LINE('',#1577,#336);
#214=LINE('',#1583,#337);
#215=LINE('',#1586,#338);
#216=LINE('',#1588,#339);
#217=LINE('',#1589,#340);
#218=LINE('',#1592,#341);
#219=LINE('',#1594,#342);
#220=LINE('',#1595,#343);
#221=LINE('',#1598,#344);
#222=LINE('',#1600,#345);
#223=LINE('',#1601,#346);
#224=LINE('',#1607,#347);
#225=LINE('',#1610,#348);
#226=LINE('',#1612,#349);
#227=LINE('',#1613,#350);
#228=LINE('',#1616,#351);
#229=LINE('',#1618,#352);
#230=LINE('',#1619,#353);
#231=LINE('',#1622,#354);
#232=LINE('',#1624,#355);
#233=LINE('',#1625,#356);
#234=LINE('',#1631,#357);
#235=LINE('',#1634,#358);
#236=LINE('',#1636,#359);
#237=LINE('',#1637,#360);
#238=LINE('',#1640,#361);
#239=LINE('',#1642,#362);
#240=LINE('',#1643,#363);
#241=LINE('',#1646,#364);
#242=LINE('',#1648,#365);
#243=LINE('',#1649,#366);
#244=LINE('',#1655,#367);
#245=LINE('',#1658,#368);
#246=LINE('',#1660,#369);
#247=LINE('',#1661,#370);
#248=LINE('',#1664,#371);
#249=LINE('',#1666,#372);
#250=LINE('',#1667,#373);
#251=LINE('',#1670,#374);
#252=LINE('',#1672,#375);
#253=LINE('',#1673,#376);
#254=LINE('',#1679,#377);
#255=LINE('',#1682,#378);
#256=LINE('',#1684,#379);
#257=LINE('',#1685,#380);
#258=LINE('',#1688,#381);
#259=LINE('',#1690,#382);
#260=LINE('',#1691,#383);
#261=LINE('',#1694,#384);
#262=LINE('',#1696,#385);
#263=LINE('',#1697,#386);
#264=LINE('',#1703,#387);
#265=LINE('',#1706,#388);
#266=LINE('',#1708,#389);
#267=LINE('',#1709,#390);
#268=LINE('',#1712,#391);
#269=LINE('',#1714,#392);
#270=LINE('',#1715,#393);
#271=LINE('',#1718,#394);
#272=LINE('',#1720,#395);
#273=LINE('',#1721,#396);
#274=LINE('',#1727,#397);
#275=LINE('',#1730,#398);
#276=LINE('',#1732,#399);
#277=LINE('',#1733,#400);
#278=LINE('',#1736,#401);
#279=LINE('',#1738,#402);
#280=LINE('',#1739,#403);
#281=LINE('',#1742,#404);
#282=LINE('',#1744,#405);
#283=LINE('',#1745,#406);
#284=LINE('',#1751,#407);
#285=LINE('',#1754,#408);
#286=LINE('',#1756,#409);
#287=LINE('',#1757,#410);
#288=LINE('',#1760,#411);
#289=LINE('',#1762,#412);
#290=LINE('',#1763,#413);
#291=LINE('',#1766,#414);
#292=LINE('',#1768,#415);
#293=LINE('',#1769,#416);
#294=LINE('',#1775,#417);
#295=LINE('',#1778,#418);
#296=LINE('',#1780,#419);
#297=LINE('',#1781,#420);
#298=LINE('',#1783,#421);
#299=LINE('',#1784,#422);
#300=LINE('',#1791,#423);
#301=LINE('',#1799,#424);
#302=VECTOR('',#1197,2.);
#303=VECTOR('',#1202,10.);
#304=VECTOR('',#1203,10.);
#305=VECTOR('',#1204,10.);
#306=VECTOR('',#1205,10.);
#307=VECTOR('',#1212,10.);
#308=VECTOR('',#1215,10.);
#309=VECTOR('',#1216,10.);
#310=VECTOR('',#1217,10.);
#311=VECTOR('',#1220,10.);
#312=VECTOR('',#1221,10.);
#313=VECTOR('',#1222,10.);
#314=VECTOR('',#1225,10.);
#315=VECTOR('',#1226,10.);
#316=VECTOR('',#1227,10.);
#317=VECTOR('',#1234,10.);
#318=VECTOR('',#1237,10.);
#319=VECTOR('',#1238,10.);
#320=VECTOR('',#1239,10.);
#321=VECTOR('',#1242,10.);
#322=VECTOR('',#1243,10.);
#323=VECTOR('',#1244,10.);
#324=VECTOR('',#1247,10.);
#325=VECTOR('',#1248,10.);
#326=VECTOR('',#1249,10.);
#327=VECTOR('',#1256,10.);
#328=VECTOR('',#1259,10.);
#329=VECTOR('',#1260,10.);
#330=VECTOR('',#1261,10.);
#331=VECTOR('',#1264,10.);
#332=VECTOR('',#1265,10.);
#333=VECTOR('',#1266,10.);
#334=VECTOR('',#1269,10.);
#335=VECTOR('',#1270,10.);
#336=VECTOR('',#1271,10.);
#337=VECTOR('',#1278,10.);
#338=VECTOR('',#1281,10.);
#339=VECTOR('',#1282,10.);
#340=VECTOR('',#1283,10.);
#341=VECTOR('',#1286,10.);
#342=VECTOR('',#1287,10.);
#343=VECTOR('',#1288,10.);
#344=VECTOR('',#1291,10.);
#345=VECTOR('',#1292,10.);
#346=VECTOR('',#1293,10.);
#347=VECTOR('',#1300,10.);
#348=VECTOR('',#1303,10.);
#349=VECTOR('',#1304,10.);
#350=VECTOR('',#1305,10.);
#351=VECTOR('',#1308,10.);
#352=VECTOR('',#1309,10.);
#353=VECTOR('',#1310,10.);
#354=VECTOR('',#1313,10.);
#355=VECTOR('',#1314,10.);
#356=VECTOR('',#1315,10.);
#357=VECTOR('',#1322,10.);
#358=VECTOR('',#1325,10.);
#359=VECTOR('',#1326,10.);
#360=VECTOR('',#1327,10.);
#361=VECTOR('',#1330,10.);
#362=VECTOR('',#1331,10.);
#363=VECTOR('',#1332,10.);
#364=VECTOR('',#1335,10.);
#365=VECTOR('',#1336,10.);
#366=VECTOR('',#1337,10.);
#367=VECTOR('',#1344,10.);
#368=VECTOR('',#1347,10.);
#369=VECTOR('',#1348,10.);
#370=VECTOR('',#1349,10.);
#371=VECTOR('',#1352,10.);
#372=VECTOR('',#1353,10.);
#373=VECTOR('',#1354,10.);
#374=VECTOR('',#1357,10.);
#375=VECTOR('',#1358,10.);
#376=VECTOR('',#1359,10.);
#377=VECTOR('',#1366,10.);
#378=VECTOR('',#1369,10.);
#379=VECTOR('',#1370,10.);
#380=VECTOR('',#1371,10.);
#381=VECTOR('',#1374,10.);
#382=VECTOR('',#1375,10.);
#383=VECTOR('',#1376,10.);
#384=VECTOR('',#1379,10.);
#385=VECTOR('',#1380,10.);
#386=VECTOR('',#1381,10.);
#387=VECTOR('',#1388,10.);
#388=VECTOR('',#1391,10.);
#389=VECTOR('',#1392,10.);
#390=VECTOR('',#1393,10.);
#391=VECTOR('',#1396,10.);
#392=VECTOR('',#1397,10.);
#393=VECTOR('',#1398,10.);
#394=VECTOR('',#1401,10.);
#395=VECTOR('',#1402,10.);
#396=VECTOR('',#1403,10.);
#397=VECTOR('',#1410,10.);
#398=VECTOR('',#1413,10.);
#399=VECTOR('',#1414,10.);
#400=VECTOR('',#1415,10.);
#401=VECTOR('',#1418,10.);
#402=VECTOR('',#1419,10.);
#403=VECTOR('',#1420,10.);
#404=VECTOR('',#1423,10.);
#405=VECTOR('',#1424,10.);
#406=VECTOR('',#1425,10.);
#407=VECTOR('',#1432,10.);
#408=VECTOR('',#1435,10.);
#409=VECTOR('',#1436,10.);
#410=VECTOR('',#1437,10.);
#411=VECTOR('',#1440,10.);
#412=VECTOR('',#1441,10.);
#413=VECTOR('',#1442,10.);
#414=VECTOR('',#1445,10.);
#415=VECTOR('',#1446,10.);
#416=VECTOR('',#1447,10.);
#417=VECTOR('',#1454,10.);
#418=VECTOR('',#1457,10.);
#419=VECTOR('',#1458,10.);
#420=VECTOR('',#1459,10.);
#421=VECTOR('',#1462,10.);
#422=VECTOR('',#1463,10.);
#423=VECTOR('',#1472,2.5);
#424=VECTOR('',#1483,2.5);
#425=CIRCLE('',#1105,2.);
#426=CIRCLE('',#1106,2.);
#427=CIRCLE('',#1109,0.500000000000002);
#428=CIRCLE('',#1110,0.500000000000002);
#429=CIRCLE('',#1115,0.5);
#430=CIRCLE('',#1116,0.5);
#431=CIRCLE('',#1121,1.);
#432=CIRCLE('',#1122,1.);
#433=CIRCLE('',#1127,0.5);
#434=CIRCLE('',#1128,0.5);
#435=CIRCLE('',#1133,0.499999999999999);
#436=CIRCLE('',#1134,0.499999999999999);
#437=CIRCLE('',#1139,1.);
#438=CIRCLE('',#1140,1.);
#439=CIRCLE('',#1145,0.5);
#440=CIRCLE('',#1146,0.5);
#441=CIRCLE('',#1151,0.500000000000002);
#442=CIRCLE('',#1152,0.500000000000002);
#443=CIRCLE('',#1157,1.);
#444=CIRCLE('',#1158,1.);
#445=CIRCLE('',#1163,0.500000000000002);
#446=CIRCLE('',#1164,0.500000000000002);
#447=CIRCLE('',#1169,0.499999999999999);
#448=CIRCLE('',#1170,0.499999999999999);
#449=CIRCLE('',#1175,1.);
#450=CIRCLE('',#1176,1.);
#451=CIRCLE('',#1182,2.5);
#452=CIRCLE('',#1183,2.5);
#453=CIRCLE('',#1187,2.5);
#454=CIRCLE('',#1188,2.5);
#455=VERTEX_POINT('',#1492);
#456=VERTEX_POINT('',#1494);
#457=VERTEX_POINT('',#1498);
#458=VERTEX_POINT('',#1499);
#459=VERTEX_POINT('',#1501);
#460=VERTEX_POINT('',#1503);
#461=VERTEX_POINT('',#1507);
#462=VERTEX_POINT('',#1509);
#463=VERTEX_POINT('',#1513);
#464=VERTEX_POINT('',#1515);
#465=VERTEX_POINT('',#1519);
#466=VERTEX_POINT('',#1521);
#467=VERTEX_POINT('',#1525);
#468=VERTEX_POINT('',#1527);
#469=VERTEX_POINT('',#1531);
#470=VERTEX_POINT('',#1533);
#471=VERTEX_POINT('',#1537);
#472=VERTEX_POINT('',#1539);
#473=VERTEX_POINT('',#1543);
#474=VERTEX_POINT('',#1545);
#475=VERTEX_POINT('',#1549);
#476=VERTEX_POINT('',#1551);
#477=VERTEX_POINT('',#1555);
#478=VERTEX_POINT('',#1557);
#479=VERTEX_POINT('',#1561);
#480=VERTEX_POINT('',#1563);
#481=VERTEX_POINT('',#1567);
#482=VERTEX_POINT('',#1569);
#483=VERTEX_POINT('',#1573);
#484=VERTEX_POINT('',#1575);
#485=VERTEX_POINT('',#1579);
#486=VERTEX_POINT('',#1581);
#487=VERTEX_POINT('',#1585);
#488=VERTEX_POINT('',#1587);
#489=VERTEX_POINT('',#1591);
#490=VERTEX_POINT('',#1593);
#491=VERTEX_POINT('',#1597);
#492=VERTEX_POINT('',#1599);
#493=VERTEX_POINT('',#1603);
#494=VERTEX_POINT('',#1605);
#495=VERTEX_POINT('',#1609);
#496=VERTEX_POINT('',#1611);
#497=VERTEX_POINT('',#1615);
#498=VERTEX_POINT('',#1617);
#499=VERTEX_POINT('',#1621);
#500=VERTEX_POINT('',#1623);
#501=VERTEX_POINT('',#1627);
#502=VERTEX_POINT('',#1629);
#503=VERTEX_POINT('',#1633);
#504=VERTEX_POINT('',#1635);
#505=VERTEX_POINT('',#1639);
#506=VERTEX_POINT('',#1641);
#507=VERTEX_POINT('',#1645);
#508=VERTEX_POINT('',#1647);
#509=VERTEX_POINT('',#1651);
#510=VERTEX_POINT('',#1653);
#511=VERTEX_POINT('',#1657);
#512=VERTEX_POINT('',#1659);
#513=VERTEX_POINT('',#1663);
#514=VERTEX_POINT('',#1665);
#515=VERTEX_POINT('',#1669);
#516=VERTEX_POINT('',#1671);
#517=VERTEX_POINT('',#1675);
#518=VERTEX_POINT('',#1677);
#519=VERTEX_POINT('',#1681);
#520=VERTEX_POINT('',#1683);
#521=VERTEX_POINT('',#1687);
#522=VERTEX_POINT('',#1689);
#523=VERTEX_POINT('',#1693);
#524=VERTEX_POINT('',#1695);
#525=VERTEX_POINT('',#1699);
#526=VERTEX_POINT('',#1701);
#527=VERTEX_POINT('',#1705);
#528=VERTEX_POINT('',#1707);
#529=VERTEX_POINT('',#1711);
#530=VERTEX_POINT('',#1713);
#531=VERTEX_POINT('',#1717);
#532=VERTEX_POINT('',#1719);
#533=VERTEX_POINT('',#1723);
#534=VERTEX_POINT('',#1725);
#535=VERTEX_POINT('',#1729);
#536=VERTEX_POINT('',#1731);
#537=VERTEX_POINT('',#1735);
#538=VERTEX_POINT('',#1737);
#539=VERTEX_POINT('',#1741);
#540=VERTEX_POINT('',#1743);
#541=VERTEX_POINT('',#1747);
#542=VERTEX_POINT('',#1749);
#543=VERTEX_POINT('',#1753);
#544=VERTEX_POINT('',#1755);
#545=VERTEX_POINT('',#1759);
#546=VERTEX_POINT('',#1761);
#547=VERTEX_POINT('',#1765);
#548=VERTEX_POINT('',#1767);
#549=VERTEX_POINT('',#1771);
#550=VERTEX_POINT('',#1773);
#551=VERTEX_POINT('',#1777);
#552=VERTEX_POINT('',#1779);
#553=VERTEX_POINT('',#1788);
#554=VERTEX_POINT('',#1790);
#555=VERTEX_POINT('',#1796);
#556=VERTEX_POINT('',#1798);
#557=EDGE_CURVE('',#455,#455,#425,.T.);
#558=EDGE_CURVE('',#455,#456,#179,.T.);
#559=EDGE_CURVE('',#456,#456,#426,.T.);
#560=EDGE_CURVE('',#457,#458,#180,.T.);
#561=EDGE_CURVE('',#457,#459,#181,.T.);
#562=EDGE_CURVE('',#460,#459,#182,.T.);
#563=EDGE_CURVE('',#458,#460,#183,.T.);
#564=EDGE_CURVE('',#458,#461,#427,.T.);
#565=EDGE_CURVE('',#462,#460,#428,.T.);
#566=EDGE_CURVE('',#461,#462,#184,.T.);
#567=EDGE_CURVE('',#463,#461,#185,.T.);
#568=EDGE_CURVE('',#464,#462,#186,.T.);
#569=EDGE_CURVE('',#463,#464,#187,.T.);
#570=EDGE_CURVE('',#465,#463,#188,.T.);
#571=EDGE_CURVE('',#466,#464,#189,.T.);
#572=EDGE_CURVE('',#465,#466,#190,.T.);
#573=EDGE_CURVE('',#465,#467,#191,.T.);
#574=EDGE_CURVE('',#468,#466,#192,.T.);
#575=EDGE_CURVE('',#467,#468,#193,.T.);
#576=EDGE_CURVE('',#467,#469,#429,.T.);
#577=EDGE_CURVE('',#470,#468,#430,.T.);
#578=EDGE_CURVE('',#469,#470,#194,.T.);
#579=EDGE_CURVE('',#471,#469,#195,.T.);
#580=EDGE_CURVE('',#472,#470,#196,.T.);
#581=EDGE_CURVE('',#471,#472,#197,.T.);
#582=EDGE_CURVE('',#471,#473,#198,.T.);
#583=EDGE_CURVE('',#474,#472,#199,.T.);
#584=EDGE_CURVE('',#473,#474,#200,.T.);
#585=EDGE_CURVE('',#475,#473,#201,.T.);
#586=EDGE_CURVE('',#476,#474,#202,.T.);
#587=EDGE_CURVE('',#475,#476,#203,.T.);
#588=EDGE_CURVE('',#477,#475,#431,.T.);
#589=EDGE_CURVE('',#478,#476,#432,.T.);
#590=EDGE_CURVE('',#477,#478,#204,.T.);
#591=EDGE_CURVE('',#479,#477,#205,.T.);
#592=EDGE_CURVE('',#480,#478,#206,.T.);
#593=EDGE_CURVE('',#479,#480,#207,.T.);
#594=EDGE_CURVE('',#481,#479,#208,.T.);
#595=EDGE_CURVE('',#482,#480,#209,.T.);
#596=EDGE_CURVE('',#481,#482,#210,.T.);
#597=EDGE_CURVE('',#481,#483,#211,.T.);
#598=EDGE_CURVE('',#484,#482,#212,.T.);
#599=EDGE_CURVE('',#483,#484,#213,.T.);
#600=EDGE_CURVE('',#483,#485,#433,.T.);
#601=EDGE_CURVE('',#486,#484,#434,.T.);
#602=EDGE_CURVE('',#485,#486,#214,.T.);
#603=EDGE_CURVE('',#487,#485,#215,.T.);
#604=EDGE_CURVE('',#488,#486,#216,.T.);
#605=EDGE_CURVE('',#487,#488,#217,.T.);
#606=EDGE_CURVE('',#489,#487,#218,.T.);
#607=EDGE_CURVE('',#490,#488,#219,.T.);
#608=EDGE_CURVE('',#489,#490,#220,.T.);
#609=EDGE_CURVE('',#489,#491,#221,.T.);
#610=EDGE_CURVE('',#492,#490,#222,.T.);
#611=EDGE_CURVE('',#491,#492,#223,.T.);
#612=EDGE_CURVE('',#491,#493,#435,.T.);
#613=EDGE_CURVE('',#494,#492,#436,.T.);
#614=EDGE_CURVE('',#493,#494,#224,.T.);
#615=EDGE_CURVE('',#495,#493,#225,.T.);
#616=EDGE_CURVE('',#496,#494,#226,.T.);
#617=EDGE_CURVE('',#495,#496,#227,.T.);
#618=EDGE_CURVE('',#495,#497,#228,.T.);
#619=EDGE_CURVE('',#498,#496,#229,.T.);
#620=EDGE_CURVE('',#497,#498,#230,.T.);
#621=EDGE_CURVE('',#499,#497,#231,.T.);
#622=EDGE_CURVE('',#500,#498,#232,.T.);
#623=EDGE_CURVE('',#499,#500,#233,.T.);
#624=EDGE_CURVE('',#501,#499,#437,.T.);
#625=EDGE_CURVE('',#502,#500,#438,.T.);
#626=EDGE_CURVE('',#501,#502,#234,.T.);
#627=EDGE_CURVE('',#503,#501,#235,.T.);
#628=EDGE_CURVE('',#504,#502,#236,.T.);
#629=EDGE_CURVE('',#503,#504,#237,.T.);
#630=EDGE_CURVE('',#505,#503,#238,.T.);
#631=EDGE_CURVE('',#506,#504,#239,.T.);
#632=EDGE_CURVE('',#505,#506,#240,.T.);
#633=EDGE_CURVE('',#505,#507,#241,.T.);
#634=EDGE_CURVE('',#508,#506,#242,.T.);
#635=EDGE_CURVE('',#507,#508,#243,.T.);
#636=EDGE_CURVE('',#507,#509,#439,.T.);
#637=EDGE_CURVE('',#510,#508,#440,.T.);
#638=EDGE_CURVE('',#509,#510,#244,.T.);
#639=EDGE_CURVE('',#511,#509,#245,.T.);
#640=EDGE_CURVE('',#512,#510,#246,.T.);
#641=EDGE_CURVE('',#511,#512,#247,.T.);
#642=EDGE_CURVE('',#513,#511,#248,.T.);
#643=EDGE_CURVE('',#514,#512,#249,.T.);
#644=EDGE_CURVE('',#513,#514,#250,.T.);
#645=EDGE_CURVE('',#513,#515,#251,.T.);
#646=EDGE_CURVE('',#516,#514,#252,.T.);
#647=EDGE_CURVE('',#515,#516,#253,.T.);
#648=EDGE_CURVE('',#515,#517,#441,.T.);
#649=EDGE_CURVE('',#518,#516,#442,.T.);
#650=EDGE_CURVE('',#517,#518,#254,.T.);
#651=EDGE_CURVE('',#519,#517,#255,.T.);
#652=EDGE_CURVE('',#520,#518,#256,.T.);
#653=EDGE_CURVE('',#519,#520,#257,.T.);
#654=EDGE_CURVE('',#519,#521,#258,.T.);
#655=EDGE_CURVE('',#522,#520,#259,.T.);
#656=EDGE_CURVE('',#521,#522,#260,.T.);
#657=EDGE_CURVE('',#523,#521,#261,.T.);
#658=EDGE_CURVE('',#524,#522,#262,.T.);
#659=EDGE_CURVE('',#523,#524,#263,.T.);
#660=EDGE_CURVE('',#525,#523,#443,.T.);
#661=EDGE_CURVE('',#526,#524,#444,.T.);
#662=EDGE_CURVE('',#525,#526,#264,.T.);
#663=EDGE_CURVE('',#527,#525,#265,.T.);
#664=EDGE_CURVE('',#528,#526,#266,.T.);
#665=EDGE_CURVE('',#527,#528,#267,.T.);
#666=EDGE_CURVE('',#529,#527,#268,.T.);
#667=EDGE_CURVE('',#530,#528,#269,.T.);
#668=EDGE_CURVE('',#529,#530,#270,.T.);
#669=EDGE_CURVE('',#529,#531,#271,.T.);
#670=EDGE_CURVE('',#532,#530,#272,.T.);
#671=EDGE_CURVE('',#531,#532,#273,.T.);
#672=EDGE_CURVE('',#531,#533,#445,.T.);
#673=EDGE_CURVE('',#534,#532,#446,.T.);
#674=EDGE_CURVE('',#533,#534,#274,.T.);
#675=EDGE_CURVE('',#535,#533,#275,.T.);
#676=EDGE_CURVE('',#536,#534,#276,.T.);
#677=EDGE_CURVE('',#535,#536,#277,.T.);
#678=EDGE_CURVE('',#537,#535,#278,.T.);
#679=EDGE_CURVE('',#538,#536,#279,.T.);
#680=EDGE_CURVE('',#537,#538,#280,.T.);
#681=EDGE_CURVE('',#537,#539,#281,.T.);
#682=EDGE_CURVE('',#540,#538,#282,.T.);
#683=EDGE_CURVE('',#539,#540,#283,.T.);
#684=EDGE_CURVE('',#539,#541,#447,.T.);
#685=EDGE_CURVE('',#542,#540,#448,.T.);
#686=EDGE_CURVE('',#541,#542,#284,.T.);
#687=EDGE_CURVE('',#543,#541,#285,.T.);
#688=EDGE_CURVE('',#544,#542,#286,.T.);
#689=EDGE_CURVE('',#543,#544,#287,.T.);
#690=EDGE_CURVE('',#543,#545,#288,.T.);
#691=EDGE_CURVE('',#546,#544,#289,.T.);
#692=EDGE_CURVE('',#545,#546,#290,.T.);
#693=EDGE_CURVE('',#547,#545,#291,.T.);
#694=EDGE_CURVE('',#548,#546,#292,.T.);
#695=EDGE_CURVE('',#547,#548,#293,.T.);
#696=EDGE_CURVE('',#549,#547,#449,.T.);
#697=EDGE_CURVE('',#550,#548,#450,.T.);
#698=EDGE_CURVE('',#549,#550,#294,.T.);
#699=EDGE_CURVE('',#551,#549,#295,.T.);
#700=EDGE_CURVE('',#552,#550,#296,.T.);
#701=EDGE_CURVE('',#551,#552,#297,.T.);
#702=EDGE_CURVE('',#457,#551,#298,.T.);
#703=EDGE_CURVE('',#459,#552,#299,.T.);
#704=EDGE_CURVE('',#553,#553,#451,.T.);
#705=EDGE_CURVE('',#553,#554,#300,.T.);
#706=EDGE_CURVE('',#554,#554,#452,.T.);
#707=EDGE_CURVE('',#555,#555,#453,.T.);
#708=EDGE_CURVE('',#555,#556,#301,.T.);
#709=EDGE_CURVE('',#556,#556,#454,.T.);
#710=ORIENTED_EDGE('',*,*,#557,.F.);
#711=ORIENTED_EDGE('',*,*,#558,.T.);
#712=ORIENTED_EDGE('',*,*,#559,.T.);
#713=ORIENTED_EDGE('',*,*,#558,.F.);
#714=ORIENTED_EDGE('',*,*,#560,.F.);
#715=ORIENTED_EDGE('',*,*,#561,.T.);
#716=ORIENTED_EDGE('',*,*,#562,.F.);
#717=ORIENTED_EDGE('',*,*,#563,.F.);
#718=ORIENTED_EDGE('',*,*,#564,.F.);
#719=ORIENTED_EDGE('',*,*,#563,.T.);
#720=ORIENTED_EDGE('',*,*,#565,.F.);
#721=ORIENTED_EDGE('',*,*,#566,.F.);
#722=ORIENTED_EDGE('',*,*,#567,.T.);
#723=ORIENTED_EDGE('',*,*,#566,.T.);
#724=ORIENTED_EDGE('',*,*,#568,.F.);
#725=ORIENTED_EDGE('',*,*,#569,.F.);
#726=ORIENTED_EDGE('',*,*,#570,.T.);
#727=ORIENTED_EDGE('',*,*,#569,.T.);
#728=ORIENTED_EDGE('',*,*,#571,.F.);
#729=ORIENTED_EDGE('',*,*,#572,.F.);
#730=ORIENTED_EDGE('',*,*,#573,.F.);
#731=ORIENTED_EDGE('',*,*,#572,.T.);
#732=ORIENTED_EDGE('',*,*,#574,.F.);
#733=ORIENTED_EDGE('',*,*,#575,.F.);
#734=ORIENTED_EDGE('',*,*,#576,.F.);
#735=ORIENTED_EDGE('',*,*,#575,.T.);
#736=ORIENTED_EDGE('',*,*,#577,.F.);
#737=ORIENTED_EDGE('',*,*,#578,.F.);
#738=ORIENTED_EDGE('',*,*,#579,.T.);
#739=ORIENTED_EDGE('',*,*,#578,.T.);
#740=ORIENTED_EDGE('',*,*,#580,.F.);
#741=ORIENTED_EDGE('',*,*,#581,.F.);
#742=ORIENTED_EDGE('',*,*,#582,.F.);
#743=ORIENTED_EDGE('',*,*,#581,.T.);
#744=ORIENTED_EDGE('',*,*,#583,.F.);
#745=ORIENTED_EDGE('',*,*,#584,.F.);
#746=ORIENTED_EDGE('',*,*,#585,.T.);
#747=ORIENTED_EDGE('',*,*,#584,.T.);
#748=ORIENTED_EDGE('',*,*,#586,.F.);
#749=ORIENTED_EDGE('',*,*,#587,.F.);
#750=ORIENTED_EDGE('',*,*,#588,.T.);
#751=ORIENTED_EDGE('',*,*,#587,.T.);
#752=ORIENTED_EDGE('',*,*,#589,.F.);
#753=ORIENTED_EDGE('',*,*,#590,.F.);
#754=ORIENTED_EDGE('',*,*,#591,.T.);
#755=ORIENTED_EDGE('',*,*,#590,.T.);
#756=ORIENTED_EDGE('',*,*,#592,.F.);
#757=ORIENTED_EDGE('',*,*,#593,.F.);
#758=ORIENTED_EDGE('',*,*,#594,.T.);
#759=ORIENTED_EDGE('',*,*,#593,.T.);
#760=ORIENTED_EDGE('',*,*,#595,.F.);
#761=ORIENTED_EDGE('',*,*,#596,.F.);
#762=ORIENTED_EDGE('',*,*,#597,.F.);
#763=ORIENTED_EDGE('',*,*,#596,.T.);
#764=ORIENTED_EDGE('',*,*,#598,.F.);
#765=ORIENTED_EDGE('',*,*,#599,.F.);
#766=ORIENTED_EDGE('',*,*,#600,.F.);
#767=ORIENTED_EDGE('',*,*,#599,.T.);
#768=ORIENTED_EDGE('',*,*,#601,.F.);
#769=ORIENTED_EDGE('',*,*,#602,.F.);
#770=ORIENTED_EDGE('',*,*,#603,.T.);
#771=ORIENTED_EDGE('',*,*,#602,.T.);
#772=ORIENTED_EDGE('',*,*,#604,.F.);
#773=ORIENTED_EDGE('',*,*,#605,.F.);
#774=ORIENTED_EDGE('',*,*,#606,.T.);
#775=ORIENTED_EDGE('',*,*,#605,.T.);
#776=ORIENTED_EDGE('',*,*,#607,.F.);
#777=ORIENTED_EDGE('',*,*,#608,.F.);
#778=ORIENTED_EDGE('',*,*,#609,.F.);
#779=ORIENTED_EDGE('',*,*,#608,.T.);
#780=ORIENTED_EDGE('',*,*,#610,.F.);
#781=ORIENTED_EDGE('',*,*,#611,.F.);
#782=ORIENTED_EDGE('',*,*,#612,.F.);
#783=ORIENTED_EDGE('',*,*,#611,.T.);
#784=ORIENTED_EDGE('',*,*,#613,.F.);
#785=ORIENTED_EDGE('',*,*,#614,.F.);
#786=ORIENTED_EDGE('',*,*,#615,.T.);
#787=ORIENTED_EDGE('',*,*,#614,.T.);
#788=ORIENTED_EDGE('',*,*,#616,.F.);
#789=ORIENTED_EDGE('',*,*,#617,.F.);
#790=ORIENTED_EDGE('',*,*,#618,.F.);
#791=ORIENTED_EDGE('',*,*,#617,.T.);
#792=ORIENTED_EDGE('',*,*,#619,.F.);
#793=ORIENTED_EDGE('',*,*,#620,.F.);
#794=ORIENTED_EDGE('',*,*,#621,.T.);
#795=ORIENTED_EDGE('',*,*,#620,.T.);
#796=ORIENTED_EDGE('',*,*,#622,.F.);
#797=ORIENTED_EDGE('',*,*,#623,.F.);
#798=ORIENTED_EDGE('',*,*,#624,.T.);
#799=ORIENTED_EDGE('',*,*,#623,.T.);
#800=ORIENTED_EDGE('',*,*,#625,.F.);
#801=ORIENTED_EDGE('',*,*,#626,.F.);
#802=ORIENTED_EDGE('',*,*,#627,.T.);
#803=ORIENTED_EDGE('',*,*,#626,.T.);
#804=ORIENTED_EDGE('',*,*,#628,.F.);
#805=ORIENTED_EDGE('',*,*,#629,.F.);
#806=ORIENTED_EDGE('',*,*,#630,.T.);
#807=ORIENTED_EDGE('',*,*,#629,.T.);
#808=ORIENTED_EDGE('',*,*,#631,.F.);
#809=ORIENTED_EDGE('',*,*,#632,.F.);
#810=ORIENTED_EDGE('',*,*,#633,.F.);
#811=ORIENTED_EDGE('',*,*,#632,.T.);
#812=ORIENTED_EDGE('',*,*,#634,.F.);
#813=ORIENTED_EDGE('',*,*,#635,.F.);
#814=ORIENTED_EDGE('',*,*,#636,.F.);
#815=ORIENTED_EDGE('',*,*,#635,.T.);
#816=ORIENTED_EDGE('',*,*,#637,.F.);
#817=ORIENTED_EDGE('',*,*,#638,.F.);
#818=ORIENTED_EDGE('',*,*,#639,.T.);
#819=ORIENTED_EDGE('',*,*,#638,.T.);
#820=ORIENTED_EDGE('',*,*,#640,.F.);
#821=ORIENTED_EDGE('',*,*,#641,.F.);
#822=ORIENTED_EDGE('',*,*,#642,.T.);
#823=ORIENTED_EDGE('',*,*,#641,.T.);
#824=ORIENTED_EDGE('',*,*,#643,.F.);
#825=ORIENTED_EDGE('',*,*,#644,.F.);
#826=ORIENTED_EDGE('',*,*,#645,.F.);
#827=ORIENTED_EDGE('',*,*,#644,.T.);
#828=ORIENTED_EDGE('',*,*,#646,.F.);
#829=ORIENTED_EDGE('',*,*,#647,.F.);
#830=ORIENTED_EDGE('',*,*,#648,.F.);
#831=ORIENTED_EDGE('',*,*,#647,.T.);
#832=ORIENTED_EDGE('',*,*,#649,.F.);
#833=ORIENTED_EDGE('',*,*,#650,.F.);
#834=ORIENTED_EDGE('',*,*,#651,.T.);
#835=ORIENTED_EDGE('',*,*,#650,.T.);
#836=ORIENTED_EDGE('',*,*,#652,.F.);
#837=ORIENTED_EDGE('',*,*,#653,.F.);
#838=ORIENTED_EDGE('',*,*,#654,.F.);
#839=ORIENTED_EDGE('',*,*,#653,.T.);
#840=ORIENTED_EDGE('',*,*,#655,.F.);
#841=ORIENTED_EDGE('',*,*,#656,.F.);
#842=ORIENTED_EDGE('',*,*,#657,.T.);
#843=ORIENTED_EDGE('',*,*,#656,.T.);
#844=ORIENTED_EDGE('',*,*,#658,.F.);
#845=ORIENTED_EDGE('',*,*,#659,.F.);
#846=ORIENTED_EDGE('',*,*,#660,.T.);
#847=ORIENTED_EDGE('',*,*,#659,.T.);
#848=ORIENTED_EDGE('',*,*,#661,.F.);
#849=ORIENTED_EDGE('',*,*,#662,.F.);
#850=ORIENTED_EDGE('',*,*,#663,.T.);
#851=ORIENTED_EDGE('',*,*,#662,.T.);
#852=ORIENTED_EDGE('',*,*,#664,.F.);
#853=ORIENTED_EDGE('',*,*,#665,.F.);
#854=ORIENTED_EDGE('',*,*,#666,.T.);
#855=ORIENTED_EDGE('',*,*,#665,.T.);
#856=ORIENTED_EDGE('',*,*,#667,.F.);
#857=ORIENTED_EDGE('',*,*,#668,.F.);
#858=ORIENTED_EDGE('',*,*,#669,.F.);
#859=ORIENTED_EDGE('',*,*,#668,.T.);
#860=ORIENTED_EDGE('',*,*,#670,.F.);
#861=ORIENTED_EDGE('',*,*,#671,.F.);
#862=ORIENTED_EDGE('',*,*,#672,.F.);
#863=ORIENTED_EDGE('',*,*,#671,.T.);
#864=ORIENTED_EDGE('',*,*,#673,.F.);
#865=ORIENTED_EDGE('',*,*,#674,.F.);
#866=ORIENTED_EDGE('',*,*,#675,.T.);
#867=ORIENTED_EDGE('',*,*,#674,.T.);
#868=ORIENTED_EDGE('',*,*,#676,.F.);
#869=ORIENTED_EDGE('',*,*,#677,.F.);
#870=ORIENTED_EDGE('',*,*,#678,.T.);
#871=ORIENTED_EDGE('',*,*,#677,.T.);
#872=ORIENTED_EDGE('',*,*,#679,.F.);
#873=ORIENTED_EDGE('',*,*,#680,.F.);
#874=ORIENTED_EDGE('',*,*,#681,.F.);
#875=ORIENTED_EDGE('',*,*,#680,.T.);
#876=ORIENTED_EDGE('',*,*,#682,.F.);
#877=ORIENTED_EDGE('',*,*,#683,.F.);
#878=ORIENTED_EDGE('',*,*,#684,.F.);
#879=ORIENTED_EDGE('',*,*,#683,.T.);
#880=ORIENTED_EDGE('',*,*,#685,.F.);
#881=ORIENTED_EDGE('',*,*,#686,.F.);
#882=ORIENTED_EDGE('',*,*,#687,.T.);
#883=ORIENTED_EDGE('',*,*,#686,.T.);
#884=ORIENTED_EDGE('',*,*,#688,.F.);
#885=ORIENTED_EDGE('',*,*,#689,.F.);
#886=ORIENTED_EDGE('',*,*,#690,.F.);
#887=ORIENTED_EDGE('',*,*,#689,.T.);
#888=ORIENTED_EDGE('',*,*,#691,.F.);
#889=ORIENTED_EDGE('',*,*,#692,.F.);
#890=ORIENTED_EDGE('',*,*,#693,.T.);
#891=ORIENTED_EDGE('',*,*,#692,.T.);
#892=ORIENTED_EDGE('',*,*,#694,.F.);
#893=ORIENTED_EDGE('',*,*,#695,.F.);
#894=ORIENTED_EDGE('',*,*,#696,.T.);
#895=ORIENTED_EDGE('',*,*,#695,.T.);
#896=ORIENTED_EDGE('',*,*,#697,.F.);
#897=ORIENTED_EDGE('',*,*,#698,.F.);
#898=ORIENTED_EDGE('',*,*,#699,.T.);
#899=ORIENTED_EDGE('',*,*,#698,.T.);
#900=ORIENTED_EDGE('',*,*,#700,.F.);
#901=ORIENTED_EDGE('',*,*,#701,.F.);
#902=ORIENTED_EDGE('',*,*,#702,.T.);
#903=ORIENTED_EDGE('',*,*,#701,.T.);
#904=ORIENTED_EDGE('',*,*,#703,.F.);
#905=ORIENTED_EDGE('',*,*,#561,.F.);
#906=ORIENTED_EDGE('',*,*,#703,.T.);
#907=ORIENTED_EDGE('',*,*,#700,.T.);
#908=ORIENTED_EDGE('',*,*,#697,.T.);
#909=ORIENTED_EDGE('',*,*,#694,.T.);
#910=ORIENTED_EDGE('',*,*,#691,.T.);
#911=ORIENTED_EDGE('',*,*,#688,.T.);
#912=ORIENTED_EDGE('',*,*,#685,.T.);
#913=ORIENTED_EDGE('',*,*,#682,.T.);
#914=ORIENTED_EDGE('',*,*,#679,.T.);
#915=ORIENTED_EDGE('',*,*,#676,.T.);
#916=ORIENTED_EDGE('',*,*,#673,.T.);
#917=ORIENTED_EDGE('',*,*,#670,.T.);
#918=ORIENTED_EDGE('',*,*,#667,.T.);
#919=ORIENTED_EDGE('',*,*,#664,.T.);
#920=ORIENTED_EDGE('',*,*,#661,.T.);
#921=ORIENTED_EDGE('',*,*,#658,.T.);
#922=ORIENTED_EDGE('',*,*,#655,.T.);
#923=ORIENTED_EDGE('',*,*,#652,.T.);
#924=ORIENTED_EDGE('',*,*,#649,.T.);
#925=ORIENTED_EDGE('',*,*,#646,.T.);
#926=ORIENTED_EDGE('',*,*,#643,.T.);
#927=ORIENTED_EDGE('',*,*,#640,.T.);
#928=ORIENTED_EDGE('',*,*,#637,.T.);
#929=ORIENTED_EDGE('',*,*,#634,.T.);
#930=ORIENTED_EDGE('',*,*,#631,.T.);
#931=ORIENTED_EDGE('',*,*,#628,.T.);
#932=ORIENTED_EDGE('',*,*,#625,.T.);
#933=ORIENTED_EDGE('',*,*,#622,.T.);
#934=ORIENTED_EDGE('',*,*,#619,.T.);
#935=ORIENTED_EDGE('',*,*,#616,.T.);
#936=ORIENTED_EDGE('',*,*,#613,.T.);
#937=ORIENTED_EDGE('',*,*,#610,.T.);
#938=ORIENTED_EDGE('',*,*,#607,.T.);
#939=ORIENTED_EDGE('',*,*,#604,.T.);
#940=ORIENTED_EDGE('',*,*,#601,.T.);
#941=ORIENTED_EDGE('',*,*,#598,.T.);
#942=ORIENTED_EDGE('',*,*,#595,.T.);
#943=ORIENTED_EDGE('',*,*,#592,.T.);
#944=ORIENTED_EDGE('',*,*,#589,.T.);
#945=ORIENTED_EDGE('',*,*,#586,.T.);
#946=ORIENTED_EDGE('',*,*,#583,.T.);
#947=ORIENTED_EDGE('',*,*,#580,.T.);
#948=ORIENTED_EDGE('',*,*,#577,.T.);
#949=ORIENTED_EDGE('',*,*,#574,.T.);
#950=ORIENTED_EDGE('',*,*,#571,.T.);
#951=ORIENTED_EDGE('',*,*,#568,.T.);
#952=ORIENTED_EDGE('',*,*,#565,.T.);
#953=ORIENTED_EDGE('',*,*,#562,.T.);
#954=ORIENTED_EDGE('',*,*,#557,.T.);
#955=ORIENTED_EDGE('',*,*,#702,.F.);
#956=ORIENTED_EDGE('',*,*,#560,.T.);
#957=ORIENTED_EDGE('',*,*,#564,.T.);
#958=ORIENTED_EDGE('',*,*,#567,.F.);
#959=ORIENTED_EDGE('',*,*,#570,.F.);
#960=ORIENTED_EDGE('',*,*,#573,.T.);
#961=ORIENTED_EDGE('',*,*,#576,.T.);
#962=ORIENTED_EDGE('',*,*,#579,.F.);
#963=ORIENTED_EDGE('',*,*,#582,.T.);
#964=ORIENTED_EDGE('',*,*,#585,.F.);
#965=ORIENTED_EDGE('',*,*,#588,.F.);
#966=ORIENTED_EDGE('',*,*,#591,.F.);
#967=ORIENTED_EDGE('',*,*,#594,.F.);
#968=ORIENTED_EDGE('',*,*,#597,.T.);
#969=ORIENTED_EDGE('',*,*,#600,.T.);
#970=ORIENTED_EDGE('',*,*,#603,.F.);
#971=ORIENTED_EDGE('',*,*,#606,.F.);
#972=ORIENTED_EDGE('',*,*,#609,.T.);
#973=ORIENTED_EDGE('',*,*,#612,.T.);
#974=ORIENTED_EDGE('',*,*,#615,.F.);
#975=ORIENTED_EDGE('',*,*,#618,.T.);
#976=ORIENTED_EDGE('',*,*,#621,.F.);
#977=ORIENTED_EDGE('',*,*,#624,.F.);
#978=ORIENTED_EDGE('',*,*,#627,.F.);
#979=ORIENTED_EDGE('',*,*,#630,.F.);
#980=ORIENTED_EDGE('',*,*,#633,.T.);
#981=ORIENTED_EDGE('',*,*,#636,.T.);
#982=ORIENTED_EDGE('',*,*,#639,.F.);
#983=ORIENTED_EDGE('',*,*,#642,.F.);
#984=ORIENTED_EDGE('',*,*,#645,.T.);
#985=ORIENTED_EDGE('',*,*,#648,.T.);
#986=ORIENTED_EDGE('',*,*,#651,.F.);
#987=ORIENTED_EDGE('',*,*,#654,.T.);
#988=ORIENTED_EDGE('',*,*,#657,.F.);
#989=ORIENTED_EDGE('',*,*,#660,.F.);
#990=ORIENTED_EDGE('',*,*,#663,.F.);
#991=ORIENTED_EDGE('',*,*,#666,.F.);
#992=ORIENTED_EDGE('',*,*,#669,.T.);
#993=ORIENTED_EDGE('',*,*,#672,.T.);
#994=ORIENTED_EDGE('',*,*,#675,.F.);
#995=ORIENTED_EDGE('',*,*,#678,.F.);
#996=ORIENTED_EDGE('',*,*,#681,.T.);
#997=ORIENTED_EDGE('',*,*,#684,.T.);
#998=ORIENTED_EDGE('',*,*,#687,.F.);
#999=ORIENTED_EDGE('',*,*,#690,.T.);
#1000=ORIENTED_EDGE('',*,*,#693,.F.);
#1001=ORIENTED_EDGE('',*,*,#696,.F.);
#1002=ORIENTED_EDGE('',*,*,#699,.F.);
#1003=ORIENTED_EDGE('',*,*,#559,.F.);
#1004=ORIENTED_EDGE('',*,*,#704,.F.);
#1005=ORIENTED_EDGE('',*,*,#705,.T.);
#1006=ORIENTED_EDGE('',*,*,#706,.T.);
#1007=ORIENTED_EDGE('',*,*,#705,.F.);
#1008=ORIENTED_EDGE('',*,*,#704,.T.);
#1009=ORIENTED_EDGE('',*,*,#706,.F.);
#1010=ORIENTED_EDGE('',*,*,#707,.F.);
#1011=ORIENTED_EDGE('',*,*,#708,.T.);
#1012=ORIENTED_EDGE('',*,*,#709,.T.);
#1013=ORIENTED_EDGE('',*,*,#708,.F.);
#1014=ORIENTED_EDGE('',*,*,#707,.T.);
#1015=ORIENTED_EDGE('',*,*,#709,.F.);
#1016=CYLINDRICAL_SURFACE('',#1104,2.);
#1017=CYLINDRICAL_SURFACE('',#1108,0.500000000000002);
#1018=CYLINDRICAL_SURFACE('',#1114,0.5);
#1019=CYLINDRICAL_SURFACE('',#1120,1.);
#1020=CYLINDRICAL_SURFACE('',#1126,0.5);
#1021=CYLINDRICAL_SURFACE('',#1132,0.499999999999999);
#1022=CYLINDRICAL_SURFACE('',#1138,1.);
#1023=CYLINDRICAL_SURFACE('',#1144,0.5);
#1024=CYLINDRICAL_SURFACE('',#1150,0.500000000000002);
#1025=CYLINDRICAL_SURFACE('',#1156,1.);
#1026=CYLINDRICAL_SURFACE('',#1162,0.500000000000002);
#1027=CYLINDRICAL_SURFACE('',#1168,0.499999999999999);
#1028=CYLINDRICAL_SURFACE('',#1174,1.);
#1029=CYLINDRICAL_SURFACE('',#1181,2.5);
#1030=CYLINDRICAL_SURFACE('',#1186,2.5);
#1031=ADVANCED_FACE('',(#63),#1016,.F.);
#1032=ADVANCED_FACE('',(#64),#21,.T.);
#1033=ADVANCED_FACE('',(#65),#1017,.F.);
#1034=ADVANCED_FACE('',(#66),#22,.T.);
#1035=ADVANCED_FACE('',(#67),#23,.T.);
#1036=ADVANCED_FACE('',(#68),#24,.T.);
#1037=ADVANCED_FACE('',(#69),#1018,.F.);
#1038=ADVANCED_FACE('',(#70),#25,.T.);
#1039=ADVANCED_FACE('',(#71),#26,.T.);
#1040=ADVANCED_FACE('',(#72),#27,.T.);
#1041=ADVANCED_FACE('',(#73),#1019,.T.);
#1042=ADVANCED_FACE('',(#74),#28,.T.);
#1043=ADVANCED_FACE('',(#75),#29,.T.);
#1044=ADVANCED_FACE('',(#76),#30,.T.);
#1045=ADVANCED_FACE('',(#77),#1020,.F.);
#1046=ADVANCED_FACE('',(#78),#31,.T.);
#1047=ADVANCED_FACE('',(#79),#32,.T.);
#1048=ADVANCED_FACE('',(#80),#33,.T.);
#1049=ADVANCED_FACE('',(#81),#1021,.F.);
#1050=ADVANCED_FACE('',(#82),#34,.T.);
#1051=ADVANCED_FACE('',(#83),#35,.T.);
#1052=ADVANCED_FACE('',(#84),#36,.T.);
#1053=ADVANCED_FACE('',(#85),#1022,.T.);
#1054=ADVANCED_FACE('',(#86),#37,.T.);
#1055=ADVANCED_FACE('',(#87),#38,.T.);
#1056=ADVANCED_FACE('',(#88),#39,.T.);
#1057=ADVANCED_FACE('',(#89),#1023,.F.);
#1058=ADVANCED_FACE('',(#90),#40,.T.);
#1059=ADVANCED_FACE('',(#91),#41,.T.);
#1060=ADVANCED_FACE('',(#92),#42,.T.);
#1061=ADVANCED_FACE('',(#93),#1024,.F.);
#1062=ADVANCED_FACE('',(#94),#43,.T.);
#1063=ADVANCED_FACE('',(#95),#44,.T.);
#1064=ADVANCED_FACE('',(#96),#45,.T.);
#1065=ADVANCED_FACE('',(#97),#1025,.T.);
#1066=ADVANCED_FACE('',(#98),#46,.T.);
#1067=ADVANCED_FACE('',(#99),#47,.T.);
#1068=ADVANCED_FACE('',(#100),#48,.T.);
#1069=ADVANCED_FACE('',(#101),#1026,.F.);
#1070=ADVANCED_FACE('',(#102),#49,.T.);
#1071=ADVANCED_FACE('',(#103),#50,.T.);
#1072=ADVANCED_FACE('',(#104),#51,.T.);
#1073=ADVANCED_FACE('',(#105),#1027,.F.);
#1074=ADVANCED_FACE('',(#106),#52,.T.);
#1075=ADVANCED_FACE('',(#107),#53,.T.);
#1076=ADVANCED_FACE('',(#108),#54,.T.);
#1077=ADVANCED_FACE('',(#109),#1028,.T.);
#1078=ADVANCED_FACE('',(#110),#55,.T.);
#1079=ADVANCED_FACE('',(#111),#56,.T.);
#1080=ADVANCED_FACE('',(#112,#19),#57,.T.);
#1081=ADVANCED_FACE('',(#113,#20),#58,.F.);
#1082=ADVANCED_FACE('',(#114),#1029,.T.);
#1083=ADVANCED_FACE('',(#115),#59,.T.);
#1084=ADVANCED_FACE('',(#116),#60,.F.);
#1085=ADVANCED_FACE('',(#117),#1030,.T.);
#1086=ADVANCED_FACE('',(#118),#61,.T.);
#1087=ADVANCED_FACE('',(#119),#62,.F.);
#1088=CLOSED_SHELL('',(#1031,#1032,#1033,#1034,#1035,#1036,#1037,#1038,
#1039,#1040,#1041,#1042,#1043,#1044,#1045,#1046,#1047,#1048,#1049,#1050,
#1051,#1052,#1053,#1054,#1055,#1056,#1057,#1058,#1059,#1060,#1061,#1062,
#1063,#1064,#1065,#1066,#1067,#1068,#1069,#1070,#1071,#1072,#1073,#1074,
#1075,#1076,#1077,#1078,#1079,#1080,#1081));
#1089=CLOSED_SHELL('',(#1082,#1083,#1084));
#1090=CLOSED_SHELL('',(#1085,#1086,#1087));
#1091=DERIVED_UNIT_ELEMENT(#1093,1.);
#1092=DERIVED_UNIT_ELEMENT(#1808,-3.);
#1093=(
MASS_UNIT()
NAMED_UNIT(*)
SI_UNIT(.KILO.,.GRAM.)
);
#1094=DERIVED_UNIT((#1091,#1092));
#1095=MEASURE_REPRESENTATION_ITEM('density measure',
POSITIVE_RATIO_MEASURE(2700.),#1094);
#1096=PROPERTY_DEFINITION_REPRESENTATION(#1101,#1098);
#1097=PROPERTY_DEFINITION_REPRESENTATION(#1102,#1099);
#1098=REPRESENTATION('material name',(#1100),#1805);
#1099=REPRESENTATION('density',(#1095),#1805);
#1100=DESCRIPTIVE_REPRESENTATION_ITEM('Aluminum 6061(1)',
'Aluminum 6061(1)');
#1101=PROPERTY_DEFINITION('material property','material name',#1815);
#1102=PROPERTY_DEFINITION('material property','density of part',#1815);
#1103=AXIS2_PLACEMENT_3D('',#1490,#1191,#1192);
#1104=AXIS2_PLACEMENT_3D('',#1491,#1193,#1194);
#1105=AXIS2_PLACEMENT_3D('',#1493,#1195,#1196);
#1106=AXIS2_PLACEMENT_3D('',#1496,#1198,#1199);
#1107=AXIS2_PLACEMENT_3D('',#1497,#1200,#1201);
#1108=AXIS2_PLACEMENT_3D('',#1506,#1206,#1207);
#1109=AXIS2_PLACEMENT_3D('',#1508,#1208,#1209);
#1110=AXIS2_PLACEMENT_3D('',#1510,#1210,#1211);
#1111=AXIS2_PLACEMENT_3D('',#1512,#1213,#1214);
#1112=AXIS2_PLACEMENT_3D('',#1518,#1218,#1219);
#1113=AXIS2_PLACEMENT_3D('',#1524,#1223,#1224);
#1114=AXIS2_PLACEMENT_3D('',#1530,#1228,#1229);
#1115=AXIS2_PLACEMENT_3D('',#1532,#1230,#1231);
#1116=AXIS2_PLACEMENT_3D('',#1534,#1232,#1233);
#1117=AXIS2_PLACEMENT_3D('',#1536,#1235,#1236);
#1118=AXIS2_PLACEMENT_3D('',#1542,#1240,#1241);
#1119=AXIS2_PLACEMENT_3D('',#1548,#1245,#1246);
#1120=AXIS2_PLACEMENT_3D('',#1554,#1250,#1251);
#1121=AXIS2_PLACEMENT_3D('',#1556,#1252,#1253);
#1122=AXIS2_PLACEMENT_3D('',#1558,#1254,#1255);
#1123=AXIS2_PLACEMENT_3D('',#1560,#1257,#1258);
#1124=AXIS2_PLACEMENT_3D('',#1566,#1262,#1263);
#1125=AXIS2_PLACEMENT_3D('',#1572,#1267,#1268);
#1126=AXIS2_PLACEMENT_3D('',#1578,#1272,#1273);
#1127=AXIS2_PLACEMENT_3D('',#1580,#1274,#1275);
#1128=AXIS2_PLACEMENT_3D('',#1582,#1276,#1277);
#1129=AXIS2_PLACEMENT_3D('',#1584,#1279,#1280);
#1130=AXIS2_PLACEMENT_3D('',#1590,#1284,#1285);
#1131=AXIS2_PLACEMENT_3D('',#1596,#1289,#1290);
#1132=AXIS2_PLACEMENT_3D('',#1602,#1294,#1295);
#1133=AXIS2_PLACEMENT_3D('',#1604,#1296,#1297);
#1134=AXIS2_PLACEMENT_3D('',#1606,#1298,#1299);
#1135=AXIS2_PLACEMENT_3D('',#1608,#1301,#1302);
#1136=AXIS2_PLACEMENT_3D('',#1614,#1306,#1307);
#1137=AXIS2_PLACEMENT_3D('',#1620,#1311,#1312);
#1138=AXIS2_PLACEMENT_3D('',#1626,#1316,#1317);
#1139=AXIS2_PLACEMENT_3D('',#1628,#1318,#1319);
#1140=AXIS2_PLACEMENT_3D('',#1630,#1320,#1321);
#1141=AXIS2_PLACEMENT_3D('',#1632,#1323,#1324);
#1142=AXIS2_PLACEMENT_3D('',#1638,#1328,#1329);
#1143=AXIS2_PLACEMENT_3D('',#1644,#1333,#1334);
#1144=AXIS2_PLACEMENT_3D('',#1650,#1338,#1339);
#1145=AXIS2_PLACEMENT_3D('',#1652,#1340,#1341);
#1146=AXIS2_PLACEMENT_3D('',#1654,#1342,#1343);
#1147=AXIS2_PLACEMENT_3D('',#1656,#1345,#1346);
#1148=AXIS2_PLACEMENT_3D('',#1662,#1350,#1351);
#1149=AXIS2_PLACEMENT_3D('',#1668,#1355,#1356);
#1150=AXIS2_PLACEMENT_3D('',#1674,#1360,#1361);
#1151=AXIS2_PLACEMENT_3D('',#1676,#1362,#1363);
#1152=AXIS2_PLACEMENT_3D('',#1678,#1364,#1365);
#1153=AXIS2_PLACEMENT_3D('',#1680,#1367,#1368);
#1154=AXIS2_PLACEMENT_3D('',#1686,#1372,#1373);
#1155=AXIS2_PLACEMENT_3D('',#1692,#1377,#1378);
#1156=AXIS2_PLACEMENT_3D('',#1698,#1382,#1383);
#1157=AXIS2_PLACEMENT_3D('',#1700,#1384,#1385);
#1158=AXIS2_PLACEMENT_3D('',#1702,#1386,#1387);
#1159=AXIS2_PLACEMENT_3D('',#1704,#1389,#1390);
#1160=AXIS2_PLACEMENT_3D('',#1710,#1394,#1395);
#1161=AXIS2_PLACEMENT_3D('',#1716,#1399,#1400);
#1162=AXIS2_PLACEMENT_3D('',#1722,#1404,#1405);
#1163=AXIS2_PLACEMENT_3D('',#1724,#1406,#1407);
#1164=AXIS2_PLACEMENT_3D('',#1726,#1408,#1409);
#1165=AXIS2_PLACEMENT_3D('',#1728,#1411,#1412);
#1166=AXIS2_PLACEMENT_3D('',#1734,#1416,#1417);
#1167=AXIS2_PLACEMENT_3D('',#1740,#1421,#1422);
#1168=AXIS2_PLACEMENT_3D('',#1746,#1426,#1427);
#1169=AXIS2_PLACEMENT_3D('',#1748,#1428,#1429);
#1170=AXIS2_PLACEMENT_3D('',#1750,#1430,#1431);
#1171=AXIS2_PLACEMENT_3D('',#1752,#1433,#1434);
#1172=AXIS2_PLACEMENT_3D('',#1758,#1438,#1439);
#1173=AXIS2_PLACEMENT_3D('',#1764,#1443,#1444);
#1174=AXIS2_PLACEMENT_3D('',#1770,#1448,#1449);
#1175=AXIS2_PLACEMENT_3D('',#1772,#1450,#1451);
#1176=AXIS2_PLACEMENT_3D('',#1774,#1452,#1453);
#1177=AXIS2_PLACEMENT_3D('',#1776,#1455,#1456);
#1178=AXIS2_PLACEMENT_3D('',#1782,#1460,#1461);
#1179=AXIS2_PLACEMENT_3D('',#1785,#1464,#1465);
#1180=AXIS2_PLACEMENT_3D('',#1786,#1466,#1467);
#1181=AXIS2_PLACEMENT_3D('',#1787,#1468,#1469);
#1182=AXIS2_PLACEMENT_3D('',#1789,#1470,#1471);
#1183=AXIS2_PLACEMENT_3D('',#1792,#1473,#1474);
#1184=AXIS2_PLACEMENT_3D('',#1793,#1475,#1476);
#1185=AXIS2_PLACEMENT_3D('',#1794,#1477,#1478);
#1186=AXIS2_PLACEMENT_3D('',#1795,#1479,#1480);
#1187=AXIS2_PLACEMENT_3D('',#1797,#1481,#1482);
#1188=AXIS2_PLACEMENT_3D('',#1800,#1484,#1485);
#1189=AXIS2_PLACEMENT_3D('',#1801,#1486,#1487);
#1190=AXIS2_PLACEMENT_3D('',#1802,#1488,#1489);
#1191=DIRECTION('axis',(0.,0.,1.));
#1192=DIRECTION('refdir',(1.,0.,0.));
#1193=DIRECTION('center_axis',(0.,0.,1.));
#1194=DIRECTION('ref_axis',(1.,0.,0.));
#1195=DIRECTION('center_axis',(0.,0.,-1.));
#1196=DIRECTION('ref_axis',(1.,0.,0.));
#1197=DIRECTION('',(0.,0.,-1.));
#1198=DIRECTION('center_axis',(0.,0.,-1.));
#1199=DIRECTION('ref_axis',(1.,0.,0.));
#1200=DIRECTION('center_axis',(1.,0.,0.));
#1201=DIRECTION('ref_axis',(0.,1.,0.));
#1202=DIRECTION('',(0.,-1.,0.));
#1203=DIRECTION('',(0.,0.,1.));
#1204=DIRECTION('',(0.,1.,0.));
#1205=DIRECTION('',(0.,0.,1.));
#1206=DIRECTION('center_axis',(0.,0.,1.));
#1207=DIRECTION('ref_axis',(-1.,0.,0.));
#1208=DIRECTION('center_axis',(0.,0.,1.));
#1209=DIRECTION('ref_axis',(-1.,0.,0.));
#1210=DIRECTION('center_axis',(0.,0.,-1.));
#1211=DIRECTION('ref_axis',(-1.,0.,0.));
#1212=DIRECTION('',(0.,0.,1.));
#1213=DIRECTION('center_axis',(-0.707106810993916,0.707106751379178,0.));
#1214=DIRECTION('ref_axis',(-0.707106751379177,-0.707106810993916,0.));
#1215=DIRECTION('',(-0.707106751379177,-0.707106810993916,0.));
#1216=DIRECTION('',(-0.707106751379177,-0.707106810993916,0.));
#1217=DIRECTION('',(0.,0.,1.));
#1218=DIRECTION('center_axis',(-1.,0.,0.));
#1219=DIRECTION('ref_axis',(0.,-1.,0.));
#1220=DIRECTION('',(0.,-1.,0.));
#1221=DIRECTION('',(0.,-1.,0.));
#1222=DIRECTION('',(0.,0.,1.));
#1223=DIRECTION('center_axis',(-0.707106810993917,-0.707106751379177,0.));
#1224=DIRECTION('ref_axis',(0.707106751379177,-0.707106810993917,0.));
#1225=DIRECTION('',(-0.707106751379177,0.707106810993917,0.));
#1226=DIRECTION('',(0.707106751379177,-0.707106810993917,0.));
#1227=DIRECTION('',(0.,0.,1.));
#1228=DIRECTION('center_axis',(0.,0.,1.));
#1229=DIRECTION('ref_axis',(0.707106810993916,0.707106751379178,0.));
#1230=DIRECTION('center_axis',(0.,0.,1.));
#1231=DIRECTION('ref_axis',(0.707106810993916,0.707106751379178,0.));
#1232=DIRECTION('center_axis',(0.,0.,-1.));
#1233=DIRECTION('ref_axis',(0.707106810993916,0.707106751379178,0.));
#1234=DIRECTION('',(0.,0.,1.));
#1235=DIRECTION('center_axis',(1.,-3.97517138033384E-16,0.));
#1236=DIRECTION('ref_axis',(3.97517138033384E-16,1.,0.));
#1237=DIRECTION('',(3.97517138033384E-16,1.,0.));
#1238=DIRECTION('',(3.97517138033384E-16,1.,0.));
#1239=DIRECTION('',(0.,0.,1.));
#1240=DIRECTION('center_axis',(0.,-1.,0.));
#1241=DIRECTION('ref_axis',(1.,0.,0.));
#1242=DIRECTION('',(-1.,0.,0.));
#1243=DIRECTION('',(1.,0.,0.));
#1244=DIRECTION('',(0.,0.,1.));
#1245=DIRECTION('center_axis',(-1.,0.,0.));
#1246=DIRECTION('ref_axis',(0.,-1.,0.));
#1247=DIRECTION('',(0.,-1.,0.));
#1248=DIRECTION('',(0.,-1.,0.));
#1249=DIRECTION('',(0.,0.,1.));
#1250=DIRECTION('center_axis',(0.,0.,1.));
#1251=DIRECTION('ref_axis',(0.,1.,0.));
#1252=DIRECTION('center_axis',(0.,0.,1.));
#1253=DIRECTION('ref_axis',(0.,1.,0.));
#1254=DIRECTION('center_axis',(0.,0.,1.));
#1255=DIRECTION('ref_axis',(0.,1.,0.));
#1256=DIRECTION('',(0.,0.,1.));
#1257=DIRECTION('center_axis',(0.,1.,0.));
#1258=DIRECTION('ref_axis',(-1.,0.,0.));
#1259=DIRECTION('',(-1.,0.,0.));
#1260=DIRECTION('',(-1.,0.,0.));
#1261=DIRECTION('',(0.,0.,1.));
#1262=DIRECTION('center_axis',(1.,0.,0.));
#1263=DIRECTION('ref_axis',(0.,1.,0.));
#1264=DIRECTION('',(0.,1.,0.));
#1265=DIRECTION('',(0.,1.,0.));
#1266=DIRECTION('',(0.,0.,1.));
#1267=DIRECTION('center_axis',(-3.97517138033384E-16,-1.,0.));
#1268=DIRECTION('ref_axis',(1.,-3.97517138033384E-16,0.));
#1269=DIRECTION('',(-1.,3.97517138033384E-16,0.));
#1270=DIRECTION('',(1.,-3.97517138033384E-16,0.));
#1271=DIRECTION('',(0.,0.,1.));
#1272=DIRECTION('center_axis',(0.,0.,1.));
#1273=DIRECTION('ref_axis',(0.,1.,0.));
#1274=DIRECTION('center_axis',(0.,0.,1.));
#1275=DIRECTION('ref_axis',(0.,1.,0.));
#1276=DIRECTION('center_axis',(0.,0.,-1.));
#1277=DIRECTION('ref_axis',(0.,1.,0.));
#1278=DIRECTION('',(0.,0.,1.));
#1279=DIRECTION('center_axis',(0.707106751379177,0.707106810993916,0.));
#1280=DIRECTION('ref_axis',(-0.707106810993916,0.707106751379177,0.));
#1281=DIRECTION('',(-0.707106810993916,0.707106751379177,0.));
#1282=DIRECTION('',(-0.707106810993916,0.707106751379177,0.));
#1283=DIRECTION('',(0.,0.,1.));
#1284=DIRECTION('center_axis',(-9.61365234731387E-9,1.,0.));
#1285=DIRECTION('ref_axis',(-1.,-9.61365234731387E-9,0.));
#1286=DIRECTION('',(-1.,-9.61365234731387E-9,0.));
#1287=DIRECTION('',(-1.,-9.61365234731387E-9,0.));
#1288=DIRECTION('',(0.,0.,1.));
#1289=DIRECTION('center_axis',(-0.707106751379178,0.707106810993916,0.));
#1290=DIRECTION('ref_axis',(-0.707106810993916,-0.707106751379178,0.));
#1291=DIRECTION('',(0.707106810993916,0.707106751379178,0.));
#1292=DIRECTION('',(-0.707106810993916,-0.707106751379178,0.));
#1293=DIRECTION('',(0.,0.,1.));
#1294=DIRECTION('center_axis',(0.,0.,1.));
#1295=DIRECTION('ref_axis',(0.707106751379179,-0.707106810993915,0.));
#1296=DIRECTION('center_axis',(0.,0.,1.));
#1297=DIRECTION('ref_axis',(0.707106751379179,-0.707106810993915,0.));
#1298=DIRECTION('center_axis',(0.,0.,-1.));
#1299=DIRECTION('ref_axis',(0.707106751379179,-0.707106810993915,0.));
#1300=DIRECTION('',(0.,0.,1.));
#1301=DIRECTION('center_axis',(0.,-1.,0.));
#1302=DIRECTION('ref_axis',(1.,0.,0.));
#1303=DIRECTION('',(1.,0.,0.));
#1304=DIRECTION('',(1.,0.,0.));
#1305=DIRECTION('',(0.,0.,1.));
#1306=DIRECTION('center_axis',(-1.,0.,0.));
#1307=DIRECTION('ref_axis',(0.,-1.,0.));
#1308=DIRECTION('',(0.,1.,0.));
#1309=DIRECTION('',(0.,-1.,0.));
#1310=DIRECTION('',(0.,0.,1.));
#1311=DIRECTION('center_axis',(0.,1.,0.));
#1312=DIRECTION('ref_axis',(-1.,0.,0.));
#1313=DIRECTION('',(-1.,0.,0.));
#1314=DIRECTION('',(-1.,0.,0.));
#1315=DIRECTION('',(0.,0.,1.));
#1316=DIRECTION('center_axis',(0.,0.,1.));
#1317=DIRECTION('ref_axis',(1.,0.,0.));
#1318=DIRECTION('center_axis',(0.,0.,1.));
#1319=DIRECTION('ref_axis',(1.,0.,0.));
#1320=DIRECTION('center_axis',(0.,0.,1.));
#1321=DIRECTION('ref_axis',(1.,0.,0.));
#1322=DIRECTION('',(0.,0.,1.));
#1323=DIRECTION('center_axis',(1.,0.,0.));
#1324=DIRECTION('ref_axis',(0.,1.,0.));
#1325=DIRECTION('',(0.,1.,0.));
#1326=DIRECTION('',(0.,1.,0.));
#1327=DIRECTION('',(0.,0.,1.));
#1328=DIRECTION('center_axis',(0.,-1.,0.));
#1329=DIRECTION('ref_axis',(1.,0.,0.));
#1330=DIRECTION('',(1.,0.,0.));
#1331=DIRECTION('',(1.,0.,0.));
#1332=DIRECTION('',(0.,0.,1.));
#1333=DIRECTION('center_axis',(-1.,-3.97517138033384E-16,0.));
#1334=DIRECTION('ref_axis',(3.97517138033384E-16,-1.,0.));
#1335=DIRECTION('',(-3.97517138033384E-16,1.,0.));
#1336=DIRECTION('',(3.97517138033384E-16,-1.,0.));
#1337=DIRECTION('',(0.,0.,1.));
#1338=DIRECTION('center_axis',(0.,0.,1.));
#1339=DIRECTION('ref_axis',(1.,0.,0.));
#1340=DIRECTION('center_axis',(0.,0.,1.));
#1341=DIRECTION('ref_axis',(1.,0.,0.));
#1342=DIRECTION('center_axis',(0.,0.,-1.));
#1343=DIRECTION('ref_axis',(1.,0.,0.));
#1344=DIRECTION('',(0.,0.,1.));
#1345=DIRECTION('center_axis',(0.707106810993917,-0.707106751379177,0.));
#1346=DIRECTION('ref_axis',(0.707106751379177,0.707106810993917,0.));
#1347=DIRECTION('',(0.707106751379177,0.707106810993917,0.));
#1348=DIRECTION('',(0.707106751379177,0.707106810993917,0.));
#1349=DIRECTION('',(0.,0.,1.));
#1350=DIRECTION('center_axis',(1.,-9.61365234731387E-9,0.));
#1351=DIRECTION('ref_axis',(9.61365234731387E-9,1.,0.));
#1352=DIRECTION('',(9.61365234731387E-9,1.,0.));
#1353=DIRECTION('',(9.61365234731387E-9,1.,0.));
#1354=DIRECTION('',(0.,0.,1.));
#1355=DIRECTION('center_axis',(0.707106810993916,0.707106751379177,0.));
#1356=DIRECTION('ref_axis',(-0.707106751379177,0.707106810993916,0.));
#1357=DIRECTION('',(0.707106751379177,-0.707106810993916,0.));
#1358=DIRECTION('',(-0.707106751379177,0.707106810993916,0.));
#1359=DIRECTION('',(0.,0.,1.));
#1360=DIRECTION('center_axis',(0.,0.,1.));
#1361=DIRECTION('ref_axis',(-0.707106810993913,-0.70710675137918,0.));
#1362=DIRECTION('center_axis',(0.,0.,1.));
#1363=DIRECTION('ref_axis',(-0.707106810993913,-0.70710675137918,0.));
#1364=DIRECTION('center_axis',(0.,0.,-1.));
#1365=DIRECTION('ref_axis',(-0.707106810993913,-0.70710675137918,0.));
#1366=DIRECTION('',(0.,0.,1.));
#1367=DIRECTION('center_axis',(-1.,3.97517138033384E-16,0.));
#1368=DIRECTION('ref_axis',(-3.97517138033384E-16,-1.,0.));
#1369=DIRECTION('',(-3.97517138033384E-16,-1.,0.));
#1370=DIRECTION('',(-3.97517138033384E-16,-1.,0.));
#1371=DIRECTION('',(0.,0.,1.));
#1372=DIRECTION('center_axis',(0.,1.,0.));
#1373=DIRECTION('ref_axis',(-1.,0.,0.));
#1374=DIRECTION('',(1.,0.,0.));
#1375=DIRECTION('',(-1.,0.,0.));
#1376=DIRECTION('',(0.,0.,1.));
#1377=DIRECTION('center_axis',(1.,0.,0.));
#1378=DIRECTION('ref_axis',(0.,1.,0.));
#1379=DIRECTION('',(0.,1.,0.));
#1380=DIRECTION('',(0.,1.,0.));
#1381=DIRECTION('',(0.,0.,1.));
#1382=DIRECTION('center_axis',(0.,0.,1.));
#1383=DIRECTION('ref_axis',(0.,-1.,0.));
#1384=DIRECTION('center_axis',(0.,0.,1.));
#1385=DIRECTION('ref_axis',(0.,-1.,0.));
#1386=DIRECTION('center_axis',(0.,0.,1.));
#1387=DIRECTION('ref_axis',(0.,-1.,0.));
#1388=DIRECTION('',(0.,0.,1.));
#1389=DIRECTION('center_axis',(0.,-1.,0.));
#1390=DIRECTION('ref_axis',(1.,0.,0.));
#1391=DIRECTION('',(1.,0.,0.));
#1392=DIRECTION('',(1.,0.,0.));
#1393=DIRECTION('',(0.,0.,1.));
#1394=DIRECTION('center_axis',(-1.,0.,0.));
#1395=DIRECTION('ref_axis',(0.,-1.,0.));
#1396=DIRECTION('',(0.,-1.,0.));
#1397=DIRECTION('',(0.,-1.,0.));
#1398=DIRECTION('',(0.,0.,1.));
#1399=DIRECTION('center_axis',(0.,1.,0.));
#1400=DIRECTION('ref_axis',(-1.,0.,0.));
#1401=DIRECTION('',(1.,0.,0.));
#1402=DIRECTION('',(-1.,0.,0.));
#1403=DIRECTION('',(0.,0.,1.));
#1404=DIRECTION('center_axis',(0.,0.,1.));
#1405=DIRECTION('ref_axis',(4.44089209850061E-15,-1.,0.));
#1406=DIRECTION('center_axis',(0.,0.,1.));
#1407=DIRECTION('ref_axis',(4.44089209850061E-15,-1.,0.));
#1408=DIRECTION('center_axis',(0.,0.,-1.));
#1409=DIRECTION('ref_axis',(4.44089209850061E-15,-1.,0.));
#1410=DIRECTION('',(0.,0.,1.));
#1411=DIRECTION('center_axis',(-0.707106751379177,-0.707106810993916,0.));
#1412=DIRECTION('ref_axis',(0.707106810993916,-0.707106751379177,0.));
#1413=DIRECTION('',(0.707106810993916,-0.707106751379177,0.));
#1414=DIRECTION('',(0.707106810993916,-0.707106751379177,0.));
#1415=DIRECTION('',(0.,0.,1.));
#1416=DIRECTION('center_axis',(9.61365234731387E-9,-1.,0.));
#1417=DIRECTION('ref_axis',(1.,9.61365234731387E-9,0.));
#1418=DIRECTION('',(1.,9.61365234731387E-9,0.));
#1419=DIRECTION('',(1.,9.61365234731387E-9,0.));
#1420=DIRECTION('',(0.,0.,1.));
#1421=DIRECTION('center_axis',(0.707106751379178,-0.707106810993916,0.));
#1422=DIRECTION('ref_axis',(0.707106810993916,0.707106751379177,0.));
#1423=DIRECTION('',(-0.707106810993916,-0.707106751379177,0.));
#1424=DIRECTION('',(0.707106810993916,0.707106751379177,0.));
#1425=DIRECTION('',(0.,0.,1.));
#1426=DIRECTION('center_axis',(0.,0.,1.));
#1427=DIRECTION('ref_axis',(-0.707106751379175,0.707106810993919,0.));
#1428=DIRECTION('center_axis',(0.,0.,1.));
#1429=DIRECTION('ref_axis',(-0.707106751379175,0.707106810993919,0.));
#1430=DIRECTION('center_axis',(0.,0.,-1.));
#1431=DIRECTION('ref_axis',(-0.707106751379175,0.707106810993919,0.));
#1432=DIRECTION('',(0.,0.,1.));
#1433=DIRECTION('center_axis',(0.,1.,0.));
#1434=DIRECTION('ref_axis',(-1.,0.,0.));
#1435=DIRECTION('',(-1.,0.,0.));
#1436=DIRECTION('',(-1.,0.,0.));
#1437=DIRECTION('',(0.,0.,1.));
#1438=DIRECTION('center_axis',(1.,0.,0.));
#1439=DIRECTION('ref_axis',(0.,1.,0.));
#1440=DIRECTION('',(0.,-1.,0.));
#1441=DIRECTION('',(0.,1.,0.));
#1442=DIRECTION('',(0.,0.,1.));
#1443=DIRECTION('center_axis',(0.,-1.,0.));
#1444=DIRECTION('ref_axis',(1.,0.,0.));
#1445=DIRECTION('',(1.,0.,0.));
#1446=DIRECTION('',(1.,0.,0.));
#1447=DIRECTION('',(0.,0.,1.));
#1448=DIRECTION('center_axis',(0.,0.,1.));
#1449=DIRECTION('ref_axis',(-1.,0.,0.));
#1450=DIRECTION('center_axis',(0.,0.,1.));
#1451=DIRECTION('ref_axis',(-1.,0.,0.));
#1452=DIRECTION('center_axis',(0.,0.,1.));
#1453=DIRECTION('ref_axis',(-1.,0.,0.));
#1454=DIRECTION('',(0.,0.,1.));
#1455=DIRECTION('center_axis',(-1.,0.,0.));
#1456=DIRECTION('ref_axis',(0.,-1.,0.));
#1457=DIRECTION('',(0.,-1.,0.));
#1458=DIRECTION('',(0.,-1.,0.));
#1459=DIRECTION('',(0.,0.,1.));
#1460=DIRECTION('center_axis',(0.,1.,0.));
#1461=DIRECTION('ref_axis',(-1.,0.,0.));
#1462=DIRECTION('',(-1.,0.,0.));
#1463=DIRECTION('',(-1.,0.,0.));
#1464=DIRECTION('center_axis',(0.,0.,1.));
#1465=DIRECTION('ref_axis',(1.,0.,0.));
#1466=DIRECTION('center_axis',(0.,0.,1.));
#1467=DIRECTION('ref_axis',(1.,0.,0.));
#1468=DIRECTION('center_axis',(0.,1.,0.));
#1469=DIRECTION('ref_axis',(1.,0.,0.));
#1470=DIRECTION('center_axis',(0.,1.,0.));
#1471=DIRECTION('ref_axis',(1.,0.,0.));
#1472=DIRECTION('',(0.,-1.,0.));
#1473=DIRECTION('center_axis',(0.,1.,0.));
#1474=DIRECTION('ref_axis',(1.,0.,0.));
#1475=DIRECTION('center_axis',(0.,1.,0.));
#1476=DIRECTION('ref_axis',(1.,0.,0.));
#1477=DIRECTION('center_axis',(0.,1.,0.));
#1478=DIRECTION('ref_axis',(1.,0.,0.));
#1479=DIRECTION('center_axis',(0.,1.,0.));
#1480=DIRECTION('ref_axis',(1.,0.,0.));
#1481=DIRECTION('center_axis',(0.,1.,0.));
#1482=DIRECTION('ref_axis',(1.,0.,0.));
#1483=DIRECTION('',(0.,-1.,0.));
#1484=DIRECTION('center_axis',(0.,1.,0.));
#1485=DIRECTION('ref_axis',(1.,0.,0.));
#1486=DIRECTION('center_axis',(0.,1.,0.));
#1487=DIRECTION('ref_axis',(1.,0.,0.));
#1488=DIRECTION('center_axis',(0.,1.,0.));
#1489=DIRECTION('ref_axis',(1.,0.,0.));
#1490=CARTESIAN_POINT('',(0.,0.,0.));
#1491=CARTESIAN_POINT('Origin',(0.,0.,0.));
#1492=CARTESIAN_POINT('',(-2.,-2.44929359829471E-16,260.));
#1493=CARTESIAN_POINT('Origin',(0.,0.,260.));
#1494=CARTESIAN_POINT('',(-2.,-2.44929359829471E-16,0.));
#1495=CARTESIAN_POINT('',(-2.,-2.44929359829471E-16,0.));
#1496=CARTESIAN_POINT('Origin',(0.,0.,0.));
#1497=CARTESIAN_POINT('Origin',(-8.00000005960465,-5.89289348408399,0.));
#1498=CARTESIAN_POINT('',(-8.00000005960465,-3.1,0.));
#1499=CARTESIAN_POINT('',(-8.00000005960465,-5.89289348408399,0.));
#1500=CARTESIAN_POINT('',(-8.00000005960465,-3.1,0.));
#1501=CARTESIAN_POINT('',(-8.00000005960465,-3.1,260.));
#1502=CARTESIAN_POINT('',(-8.00000005960465,-3.1,0.));
#1503=CARTESIAN_POINT('',(-8.00000005960465,-5.89289348408399,260.));
#1504=CARTESIAN_POINT('',(-8.00000005960465,-3.1,260.));
#1505=CARTESIAN_POINT('',(-8.00000005960465,-5.89289348408399,0.));
#1506=CARTESIAN_POINT('Origin',(-7.50000005960464,-5.89289348408399,0.));
#1507=CARTESIAN_POINT('',(-7.14644665410769,-6.24644685977358,0.));
#1508=CARTESIAN_POINT('Origin',(-7.50000005960464,-5.89289348408399,0.));
#1509=CARTESIAN_POINT('',(-7.14644665410769,-6.24644685977358,260.));
#1510=CARTESIAN_POINT('Origin',(-7.50000005960464,-5.89289348408399,260.));
#1511=CARTESIAN_POINT('',(-7.14644665410769,-6.24644685977358,0.));
#1512=CARTESIAN_POINT('Origin',(-4.00000005960464,-3.1,0.));
#1513=CARTESIAN_POINT('',(-4.00000005960464,-3.1,0.));
#1514=CARTESIAN_POINT('',(-4.00000005960464,-3.1,0.));
#1515=CARTESIAN_POINT('',(-4.00000005960464,-3.1,260.));
#1516=CARTESIAN_POINT('',(-4.00000005960464,-3.1,260.));
#1517=CARTESIAN_POINT('',(-4.00000005960464,-3.1,0.));
#1518=CARTESIAN_POINT('Origin',(-4.00000005960464,3.1,0.));
#1519=CARTESIAN_POINT('',(-4.00000005960464,3.1,0.));
#1520=CARTESIAN_POINT('',(-4.00000005960464,3.1,0.));
#1521=CARTESIAN_POINT('',(-4.00000005960464,3.1,260.));
#1522=CARTESIAN_POINT('',(-4.00000005960464,3.1,260.));
#1523=CARTESIAN_POINT('',(-4.00000005960464,3.1,0.));
#1524=CARTESIAN_POINT('Origin',(-7.14644665410769,6.24644685977359,0.));
#1525=CARTESIAN_POINT('',(-7.14644665410769,6.24644685977359,0.));
#1526=CARTESIAN_POINT('',(-4.00000005960464,3.1,0.));
#1527=CARTESIAN_POINT('',(-7.14644665410769,6.24644685977359,260.));
#1528=CARTESIAN_POINT('',(-4.00000005960464,3.1,260.));
#1529=CARTESIAN_POINT('',(-7.14644665410769,6.24644685977359,0.));
#1530=CARTESIAN_POINT('Origin',(-7.50000005960464,5.892893484084,0.));
#1531=CARTESIAN_POINT('',(-8.00000005960464,5.892893484084,0.));
#1532=CARTESIAN_POINT('Origin',(-7.50000005960464,5.892893484084,0.));
#1533=CARTESIAN_POINT('',(-8.00000005960464,5.892893484084,260.));
#1534=CARTESIAN_POINT('Origin',(-7.50000005960464,5.892893484084,260.));
#1535=CARTESIAN_POINT('',(-8.00000005960464,5.892893484084,0.));
#1536=CARTESIAN_POINT('Origin',(-8.00000005960465,3.1,0.));
#1537=CARTESIAN_POINT('',(-8.00000005960465,3.1,0.));
#1538=CARTESIAN_POINT('',(-8.00000005960465,3.1,0.));
#1539=CARTESIAN_POINT('',(-8.00000005960465,3.1,260.));
#1540=CARTESIAN_POINT('',(-8.00000005960465,3.1,260.));
#1541=CARTESIAN_POINT('',(-8.00000005960465,3.1,0.));
#1542=CARTESIAN_POINT('Origin',(-10.,3.1,0.));
#1543=CARTESIAN_POINT('',(-10.,3.1,0.));
#1544=CARTESIAN_POINT('',(-8.00000005960465,3.1,0.));
#1545=CARTESIAN_POINT('',(-10.,3.1,260.));
#1546=CARTESIAN_POINT('',(-8.00000005960465,3.1,260.));
#1547=CARTESIAN_POINT('',(-10.,3.1,0.));
#1548=CARTESIAN_POINT('Origin',(-10.,9.,0.));
#1549=CARTESIAN_POINT('',(-10.,9.,0.));
#1550=CARTESIAN_POINT('',(-10.,9.,0.));
#1551=CARTESIAN_POINT('',(-10.,9.,260.));
#1552=CARTESIAN_POINT('',(-10.,9.,260.));
#1553=CARTESIAN_POINT('',(-10.,9.,0.));
#1554=CARTESIAN_POINT('Origin',(-9.,9.,0.));
#1555=CARTESIAN_POINT('',(-9.,10.,0.));
#1556=CARTESIAN_POINT('Origin',(-9.,9.,0.));
#1557=CARTESIAN_POINT('',(-9.,10.,260.));
#1558=CARTESIAN_POINT('Origin',(-9.,9.,260.));
#1559=CARTESIAN_POINT('',(-9.,10.,0.));
#1560=CARTESIAN_POINT('Origin',(-3.1,10.,0.));
#1561=CARTESIAN_POINT('',(-3.1,10.,0.));
#1562=CARTESIAN_POINT('',(-3.1,10.,0.));
#1563=CARTESIAN_POINT('',(-3.1,10.,260.));
#1564=CARTESIAN_POINT('',(-3.1,10.,260.));
#1565=CARTESIAN_POINT('',(-3.1,10.,0.));
#1566=CARTESIAN_POINT('Origin',(-3.1,8.00000005960464,0.));
#1567=CARTESIAN_POINT('',(-3.1,8.00000005960464,0.));
#1568=CARTESIAN_POINT('',(-3.1,8.00000005960464,0.));
#1569=CARTESIAN_POINT('',(-3.1,8.00000005960464,260.));
#1570=CARTESIAN_POINT('',(-3.1,8.00000005960464,260.));
#1571=CARTESIAN_POINT('',(-3.1,8.00000005960464,0.));
#1572=CARTESIAN_POINT('Origin',(-5.892893484084,8.00000005960465,0.));
#1573=CARTESIAN_POINT('',(-5.892893484084,8.00000005960465,0.));
#1574=CARTESIAN_POINT('',(-3.1,8.00000005960464,0.));
#1575=CARTESIAN_POINT('',(-5.892893484084,8.00000005960465,260.));
#1576=CARTESIAN_POINT('',(-3.1,8.00000005960464,260.));
#1577=CARTESIAN_POINT('',(-5.892893484084,8.00000005960465,0.));
#1578=CARTESIAN_POINT('Origin',(-5.892893484084,7.50000005960465,0.));
#1579=CARTESIAN_POINT('',(-6.24644685977359,7.14644665410769,0.));
#1580=CARTESIAN_POINT('Origin',(-5.892893484084,7.50000005960465,0.));
#1581=CARTESIAN_POINT('',(-6.24644685977359,7.14644665410769,260.));
#1582=CARTESIAN_POINT('Origin',(-5.892893484084,7.50000005960465,260.));
#1583=CARTESIAN_POINT('',(-6.24644685977359,7.14644665410769,0.));
#1584=CARTESIAN_POINT('Origin',(-3.1,4.00000005960464,0.));
#1585=CARTESIAN_POINT('',(-3.1,4.00000005960464,0.));
#1586=CARTESIAN_POINT('',(-3.1,4.00000005960464,0.));
#1587=CARTESIAN_POINT('',(-3.1,4.00000005960464,260.));
#1588=CARTESIAN_POINT('',(-3.1,4.00000005960464,260.));
#1589=CARTESIAN_POINT('',(-3.1,4.00000005960464,0.));
#1590=CARTESIAN_POINT('Origin',(3.1,4.00000005960464,0.));
#1591=CARTESIAN_POINT('',(3.1,4.00000005960464,0.));
#1592=CARTESIAN_POINT('',(3.1,4.00000005960464,0.));
#1593=CARTESIAN_POINT('',(3.1,4.00000005960464,260.));
#1594=CARTESIAN_POINT('',(3.1,4.00000005960464,260.));
#1595=CARTESIAN_POINT('',(3.1,4.00000005960464,0.));
#1596=CARTESIAN_POINT('Origin',(6.24644685977359,7.14644665410769,0.));
#1597=CARTESIAN_POINT('',(6.24644685977359,7.14644665410769,0.));
#1598=CARTESIAN_POINT('',(3.1,4.00000005960464,0.));
#1599=CARTESIAN_POINT('',(6.24644685977359,7.14644665410769,260.));
#1600=CARTESIAN_POINT('',(3.1,4.00000005960464,260.));
#1601=CARTESIAN_POINT('',(6.24644685977359,7.14644665410769,0.));
#1602=CARTESIAN_POINT('Origin',(5.892893484084,7.50000005960465,0.));
#1603=CARTESIAN_POINT('',(5.892893484084,8.00000005960464,0.));
#1604=CARTESIAN_POINT('Origin',(5.892893484084,7.50000005960465,0.));
#1605=CARTESIAN_POINT('',(5.892893484084,8.00000005960464,260.));
#1606=CARTESIAN_POINT('Origin',(5.892893484084,7.50000005960465,260.));
#1607=CARTESIAN_POINT('',(5.892893484084,8.00000005960464,0.));
#1608=CARTESIAN_POINT('Origin',(3.1,8.00000005960464,0.));
#1609=CARTESIAN_POINT('',(3.1,8.00000005960464,0.));
#1610=CARTESIAN_POINT('',(3.1,8.00000005960464,0.));
#1611=CARTESIAN_POINT('',(3.1,8.00000005960464,260.));
#1612=CARTESIAN_POINT('',(3.1,8.00000005960464,260.));
#1613=CARTESIAN_POINT('',(3.1,8.00000005960464,0.));
#1614=CARTESIAN_POINT('Origin',(3.1,10.,0.));
#1615=CARTESIAN_POINT('',(3.1,10.,0.));
#1616=CARTESIAN_POINT('',(3.1,8.00000005960464,0.));
#1617=CARTESIAN_POINT('',(3.1,10.,260.));
#1618=CARTESIAN_POINT('',(3.1,8.00000005960464,260.));
#1619=CARTESIAN_POINT('',(3.1,10.,0.));
#1620=CARTESIAN_POINT('Origin',(9.,10.,0.));
#1621=CARTESIAN_POINT('',(9.,10.,0.));
#1622=CARTESIAN_POINT('',(9.,10.,0.));
#1623=CARTESIAN_POINT('',(9.,10.,260.));
#1624=CARTESIAN_POINT('',(9.,10.,260.));
#1625=CARTESIAN_POINT('',(9.,10.,0.));
#1626=CARTESIAN_POINT('Origin',(9.,9.,0.));
#1627=CARTESIAN_POINT('',(10.,9.,0.));
#1628=CARTESIAN_POINT('Origin',(9.,9.,0.));
#1629=CARTESIAN_POINT('',(10.,9.,260.));
#1630=CARTESIAN_POINT('Origin',(9.,9.,260.));
#1631=CARTESIAN_POINT('',(10.,9.,0.));
#1632=CARTESIAN_POINT('Origin',(10.,3.1,0.));
#1633=CARTESIAN_POINT('',(10.,3.1,0.));
#1634=CARTESIAN_POINT('',(10.,3.1,0.));
#1635=CARTESIAN_POINT('',(10.,3.1,260.));
#1636=CARTESIAN_POINT('',(10.,3.1,260.));
#1637=CARTESIAN_POINT('',(10.,3.1,0.));
#1638=CARTESIAN_POINT('Origin',(8.00000005960465,3.1,0.));
#1639=CARTESIAN_POINT('',(8.00000005960465,3.1,0.));
#1640=CARTESIAN_POINT('',(8.00000005960465,3.1,0.));
#1641=CARTESIAN_POINT('',(8.00000005960465,3.1,260.));
#1642=CARTESIAN_POINT('',(8.00000005960465,3.1,260.));
#1643=CARTESIAN_POINT('',(8.00000005960465,3.1,0.));
#1644=CARTESIAN_POINT('Origin',(8.00000005960464,5.892893484084,0.));
#1645=CARTESIAN_POINT('',(8.00000005960464,5.892893484084,0.));
#1646=CARTESIAN_POINT('',(8.00000005960465,3.1,0.));
#1647=CARTESIAN_POINT('',(8.00000005960465,5.892893484084,260.));
#1648=CARTESIAN_POINT('',(8.00000005960465,3.1,260.));
#1649=CARTESIAN_POINT('',(8.00000005960464,5.892893484084,0.));
#1650=CARTESIAN_POINT('Origin',(7.50000005960464,5.892893484084,0.));
#1651=CARTESIAN_POINT('',(7.14644665410769,6.24644685977359,0.));
#1652=CARTESIAN_POINT('Origin',(7.50000005960464,5.892893484084,0.));
#1653=CARTESIAN_POINT('',(7.14644665410769,6.24644685977359,260.));
#1654=CARTESIAN_POINT('Origin',(7.50000005960464,5.892893484084,260.));
#1655=CARTESIAN_POINT('',(7.14644665410769,6.24644685977359,0.));
#1656=CARTESIAN_POINT('Origin',(4.00000005960464,3.1,0.));
#1657=CARTESIAN_POINT('',(4.00000005960464,3.1,0.));
#1658=CARTESIAN_POINT('',(4.00000005960464,3.1,0.));
#1659=CARTESIAN_POINT('',(4.00000005960464,3.1,260.));
#1660=CARTESIAN_POINT('',(4.00000005960464,3.1,260.));
#1661=CARTESIAN_POINT('',(4.00000005960464,3.1,0.));
#1662=CARTESIAN_POINT('Origin',(4.,-3.1,0.));
#1663=CARTESIAN_POINT('',(4.00000005960464,-3.1,0.));
#1664=CARTESIAN_POINT('',(4.,-3.1,0.));
#1665=CARTESIAN_POINT('',(4.00000005960464,-3.1,260.));
#1666=CARTESIAN_POINT('',(4.,-3.1,260.));
#1667=CARTESIAN_POINT('',(4.00000005960464,-3.1,0.));
#1668=CARTESIAN_POINT('Origin',(7.14644665410769,-6.24644685977359,0.));
#1669=CARTESIAN_POINT('',(7.14644665410769,-6.24644685977359,0.));
#1670=CARTESIAN_POINT('',(4.00000005960464,-3.1,0.));
#1671=CARTESIAN_POINT('',(7.14644665410769,-6.24644685977359,260.));
#1672=CARTESIAN_POINT('',(4.00000005960464,-3.1,260.));
#1673=CARTESIAN_POINT('',(7.14644665410769,-6.24644685977359,0.));
#1674=CARTESIAN_POINT('Origin',(7.50000005960464,-5.89289348408399,0.));
#1675=CARTESIAN_POINT('',(8.00000005960464,-5.892893484084,0.));
#1676=CARTESIAN_POINT('Origin',(7.50000005960464,-5.89289348408399,0.));
#1677=CARTESIAN_POINT('',(8.00000005960465,-5.892893484084,260.));
#1678=CARTESIAN_POINT('Origin',(7.50000005960464,-5.89289348408399,260.));
#1679=CARTESIAN_POINT('',(8.00000005960464,-5.892893484084,0.));
#1680=CARTESIAN_POINT('Origin',(8.00000005960465,-3.1,0.));
#1681=CARTESIAN_POINT('',(8.00000005960465,-3.1,0.));
#1682=CARTESIAN_POINT('',(8.00000005960465,-3.1,0.));
#1683=CARTESIAN_POINT('',(8.00000005960465,-3.1,260.));
#1684=CARTESIAN_POINT('',(8.00000005960465,-3.1,260.));
#1685=CARTESIAN_POINT('',(8.00000005960465,-3.1,0.));
#1686=CARTESIAN_POINT('Origin',(10.,-3.1,0.));
#1687=CARTESIAN_POINT('',(10.,-3.1,0.));
#1688=CARTESIAN_POINT('',(8.00000005960465,-3.1,0.));
#1689=CARTESIAN_POINT('',(10.,-3.1,260.));
#1690=CARTESIAN_POINT('',(8.00000005960465,-3.1,260.));
#1691=CARTESIAN_POINT('',(10.,-3.1,0.));
#1692=CARTESIAN_POINT('Origin',(10.,-9.,0.));
#1693=CARTESIAN_POINT('',(10.,-9.,0.));
#1694=CARTESIAN_POINT('',(10.,-9.,0.));
#1695=CARTESIAN_POINT('',(10.,-9.,260.));
#1696=CARTESIAN_POINT('',(10.,-9.,260.));
#1697=CARTESIAN_POINT('',(10.,-9.,0.));
#1698=CARTESIAN_POINT('Origin',(9.,-9.,0.));
#1699=CARTESIAN_POINT('',(9.,-10.,0.));
#1700=CARTESIAN_POINT('Origin',(9.,-9.,0.));
#1701=CARTESIAN_POINT('',(9.,-10.,260.));
#1702=CARTESIAN_POINT('Origin',(9.,-9.,260.));
#1703=CARTESIAN_POINT('',(9.,-10.,0.));
#1704=CARTESIAN_POINT('Origin',(3.1,-10.,0.));
#1705=CARTESIAN_POINT('',(3.1,-10.,0.));
#1706=CARTESIAN_POINT('',(3.1,-10.,0.));
#1707=CARTESIAN_POINT('',(3.1,-10.,260.));
#1708=CARTESIAN_POINT('',(3.1,-10.,260.));
#1709=CARTESIAN_POINT('',(3.1,-10.,0.));
#1710=CARTESIAN_POINT('Origin',(3.1,-8.00000005960464,0.));
#1711=CARTESIAN_POINT('',(3.1,-8.00000005960464,0.));
#1712=CARTESIAN_POINT('',(3.1,-8.00000005960464,0.));
#1713=CARTESIAN_POINT('',(3.1,-8.00000005960464,260.));
#1714=CARTESIAN_POINT('',(3.1,-8.00000005960464,260.));
#1715=CARTESIAN_POINT('',(3.1,-8.00000005960464,0.));
#1716=CARTESIAN_POINT('Origin',(5.892893484084,-8.00000005960464,0.));
#1717=CARTESIAN_POINT('',(5.892893484084,-8.00000005960464,0.));
#1718=CARTESIAN_POINT('',(3.1,-8.00000005960464,0.));
#1719=CARTESIAN_POINT('',(5.892893484084,-8.00000005960464,260.));
#1720=CARTESIAN_POINT('',(3.1,-8.00000005960464,260.));
#1721=CARTESIAN_POINT('',(5.892893484084,-8.00000005960464,0.));
#1722=CARTESIAN_POINT('Origin',(5.89289348408399,-7.50000005960464,0.));
#1723=CARTESIAN_POINT('',(6.24644685977359,-7.14644665410769,0.));
#1724=CARTESIAN_POINT('Origin',(5.89289348408399,-7.50000005960464,0.));
#1725=CARTESIAN_POINT('',(6.24644685977359,-7.14644665410769,260.));
#1726=CARTESIAN_POINT('Origin',(5.89289348408399,-7.50000005960464,260.));
#1727=CARTESIAN_POINT('',(6.24644685977359,-7.14644665410769,0.));
#1728=CARTESIAN_POINT('Origin',(3.1,-4.00000005960464,0.));
#1729=CARTESIAN_POINT('',(3.1,-4.00000005960464,0.));
#1730=CARTESIAN_POINT('',(3.1,-4.00000005960464,0.));
#1731=CARTESIAN_POINT('',(3.1,-4.00000005960464,260.));
#1732=CARTESIAN_POINT('',(3.1,-4.00000005960464,260.));
#1733=CARTESIAN_POINT('',(3.1,-4.00000005960464,0.));
#1734=CARTESIAN_POINT('Origin',(-3.1,-4.00000005960464,0.));
#1735=CARTESIAN_POINT('',(-3.1,-4.00000005960464,0.));
#1736=CARTESIAN_POINT('',(-3.1,-4.00000005960464,0.));
#1737=CARTESIAN_POINT('',(-3.1,-4.00000005960464,260.));
#1738=CARTESIAN_POINT('',(-3.1,-4.00000005960464,260.));
#1739=CARTESIAN_POINT('',(-3.1,-4.00000005960464,0.));
#1740=CARTESIAN_POINT('Origin',(-6.24644685977359,-7.14644665410769,0.));
#1741=CARTESIAN_POINT('',(-6.24644685977359,-7.14644665410769,0.));
#1742=CARTESIAN_POINT('',(-3.1,-4.00000005960464,0.));
#1743=CARTESIAN_POINT('',(-6.24644685977359,-7.14644665410769,260.));
#1744=CARTESIAN_POINT('',(-3.1,-4.00000005960464,260.));
#1745=CARTESIAN_POINT('',(-6.24644685977359,-7.14644665410769,0.));
#1746=CARTESIAN_POINT('Origin',(-5.892893484084,-7.50000005960465,0.));
#1747=CARTESIAN_POINT('',(-5.892893484084,-8.00000005960464,0.));
#1748=CARTESIAN_POINT('Origin',(-5.892893484084,-7.50000005960465,0.));
#1749=CARTESIAN_POINT('',(-5.892893484084,-8.00000005960464,260.));
#1750=CARTESIAN_POINT('Origin',(-5.892893484084,-7.50000005960465,260.));
#1751=CARTESIAN_POINT('',(-5.892893484084,-8.00000005960464,0.));
#1752=CARTESIAN_POINT('Origin',(-3.1,-8.00000005960464,0.));
#1753=CARTESIAN_POINT('',(-3.1,-8.00000005960464,0.));
#1754=CARTESIAN_POINT('',(-3.1,-8.00000005960464,0.));
#1755=CARTESIAN_POINT('',(-3.1,-8.00000005960464,260.));
#1756=CARTESIAN_POINT('',(-3.1,-8.00000005960464,260.));
#1757=CARTESIAN_POINT('',(-3.1,-8.00000005960464,0.));
#1758=CARTESIAN_POINT('Origin',(-3.1,-10.,0.));
#1759=CARTESIAN_POINT('',(-3.1,-10.,0.));
#1760=CARTESIAN_POINT('',(-3.1,-8.00000005960464,0.));
#1761=CARTESIAN_POINT('',(-3.1,-10.,260.));
#1762=CARTESIAN_POINT('',(-3.1,-8.00000005960464,260.));
#1763=CARTESIAN_POINT('',(-3.1,-10.,0.));
#1764=CARTESIAN_POINT('Origin',(-9.,-10.,0.));
#1765=CARTESIAN_POINT('',(-9.,-10.,0.));
#1766=CARTESIAN_POINT('',(-9.,-10.,0.));
#1767=CARTESIAN_POINT('',(-9.,-10.,260.));
#1768=CARTESIAN_POINT('',(-9.,-10.,260.));
#1769=CARTESIAN_POINT('',(-9.,-10.,0.));
#1770=CARTESIAN_POINT('Origin',(-9.,-9.,0.));
#1771=CARTESIAN_POINT('',(-10.,-9.,0.));
#1772=CARTESIAN_POINT('Origin',(-9.,-9.,0.));
#1773=CARTESIAN_POINT('',(-10.,-9.,260.));
#1774=CARTESIAN_POINT('Origin',(-9.,-9.,260.));
#1775=CARTESIAN_POINT('',(-10.,-9.,0.));
#1776=CARTESIAN_POINT('Origin',(-10.,-3.1,0.));
#1777=CARTESIAN_POINT('',(-10.,-3.1,0.));
#1778=CARTESIAN_POINT('',(-10.,-3.1,0.));
#1779=CARTESIAN_POINT('',(-10.,-3.1,260.));
#1780=CARTESIAN_POINT('',(-10.,-3.1,260.));
#1781=CARTESIAN_POINT('',(-10.,-3.1,0.));
#1782=CARTESIAN_POINT('Origin',(-8.00000005960465,-3.1,0.));
#1783=CARTESIAN_POINT('',(-8.00000005960465,-3.1,0.));
#1784=CARTESIAN_POINT('',(-8.00000005960465,-3.1,260.));
#1785=CARTESIAN_POINT('Origin',(0.,0.,260.));
#1786=CARTESIAN_POINT('Origin',(0.,0.,0.));
#1787=CARTESIAN_POINT('Origin',(0.,0.,112.474));
#1788=CARTESIAN_POINT('',(-2.5,11.,112.474));
#1789=CARTESIAN_POINT('Origin',(0.,11.,112.474));
#1790=CARTESIAN_POINT('',(-2.5,0.,112.474));
#1791=CARTESIAN_POINT('',(-2.5,0.,112.474));
#1792=CARTESIAN_POINT('Origin',(0.,0.,112.474));
#1793=CARTESIAN_POINT('Origin',(0.,11.,112.474));
#1794=CARTESIAN_POINT('Origin',(0.,0.,112.474));
#1795=CARTESIAN_POINT('Origin',(0.,0.,147.526));
#1796=CARTESIAN_POINT('',(-2.5,11.,147.526));
#1797=CARTESIAN_POINT('Origin',(0.,11.,147.526));
#1798=CARTESIAN_POINT('',(-2.5,0.,147.526));
#1799=CARTESIAN_POINT('',(-2.5,0.,147.526));
#1800=CARTESIAN_POINT('Origin',(0.,0.,147.526));
#1801=CARTESIAN_POINT('Origin',(0.,11.,147.526));
#1802=CARTESIAN_POINT('Origin',(0.,0.,147.526));
#1803=UNCERTAINTY_MEASURE_WITH_UNIT(LENGTH_MEASURE(0.01),#1807,
'DISTANCE_ACCURACY_VALUE',
'Maximum model space distance between geometric entities at asserted c
onnectivities');
#1804=UNCERTAINTY_MEASURE_WITH_UNIT(LENGTH_MEASURE(0.01),#1807,
'DISTANCE_ACCURACY_VALUE',
'Maximum model space distance between geometric entities at asserted c
onnectivities');
#1805=(
GEOMETRIC_REPRESENTATION_CONTEXT(3)
GLOBAL_UNCERTAINTY_ASSIGNED_CONTEXT((#1803))
GLOBAL_UNIT_ASSIGNED_CONTEXT((#1807,#1809,#1810))
REPRESENTATION_CONTEXT('','3D')
);
#1806=(
GEOMETRIC_REPRESENTATION_CONTEXT(3)
GLOBAL_UNCERTAINTY_ASSIGNED_CONTEXT((#1804))
GLOBAL_UNIT_ASSIGNED_CONTEXT((#1807,#1809,#1810))
REPRESENTATION_CONTEXT('','3D')
);
#1807=(
LENGTH_UNIT()
NAMED_UNIT(*)
SI_UNIT(.MILLI.,.METRE.)
);
#1808=(
LENGTH_UNIT()
NAMED_UNIT(*)
SI_UNIT($,.METRE.)
);
#1809=(
NAMED_UNIT(*)
PLANE_ANGLE_UNIT()
SI_UNIT($,.RADIAN.)
);
#1810=(
NAMED_UNIT(*)
SI_UNIT($,.STERADIAN.)
SOLID_ANGLE_UNIT()
);
#1811=SHAPE_DEFINITION_REPRESENTATION(#1812,#1813);
#1812=PRODUCT_DEFINITION_SHAPE('',$,#1815);
#1813=SHAPE_REPRESENTATION('',(#1103),#1805);
#1814=PRODUCT_DEFINITION_CONTEXT('part definition',#1819,'design');
#1815=PRODUCT_DEFINITION('20 mm ROD 260mm length',
'20 mm ROD 260mm length v1',#1816,#1814);
#1816=PRODUCT_DEFINITION_FORMATION('',$,#1821);
#1817=PRODUCT_RELATED_PRODUCT_CATEGORY('20 mm ROD 260mm length v1',
'20 mm ROD 260mm length v1',(#1821));
#1818=APPLICATION_PROTOCOL_DEFINITION('international standard',
'automotive_design',2009,#1819);
#1819=APPLICATION_CONTEXT(
'Core Data for Automotive Mechanical Design Process');
#1820=PRODUCT_CONTEXT('part definition',#1819,'mechanical');
#1821=PRODUCT('20 mm ROD 260mm length','20 mm ROD 260mm length v1',$,(#1820));
#1822=PRESENTATION_STYLE_ASSIGNMENT((#1823));
#1823=SURFACE_STYLE_USAGE(.BOTH.,#1824);
#1824=SURFACE_SIDE_STYLE('',(#1825));
#1825=SURFACE_STYLE_FILL_AREA(#1826);
#1826=FILL_AREA_STYLE('Aluminum - Satin',(#1827));
#1827=FILL_AREA_STYLE_COLOUR('Aluminum - Satin',#1828);
#1828=COLOUR_RGB('Aluminum - Satin',0.96078431372549,0.96078431372549,0.964705882352941);
ENDSEC;
END-ISO-10303-21;
