ISO-10303-21;
HEADER;
/* Generated by software containing ST-Developer
 * from STEP Tools, Inc. (www.steptools.com) 
 */

FILE_DESCRIPTION(
/* description */ (''),
/* implementation_level */ '2;1');

FILE_NAME(
/* name */ '20 mm ROD 660mm  length v1.step',
/* time_stamp */ '2025-07-18T20:13:34+05:30',
/* author */ (''),
/* organization */ (''),
/* preprocessor_version */ 'ST-DEVELOPER v20.1',
/* originating_system */ 'Autodesk Translation Framework v14.10.0.0',
/* authorisation */ '');

FILE_SCHEMA (('AUTOMOTIVE_DESIGN { 1 0 10303 214 3 1 1 }'));
ENDSEC;

DATA;
#10=MECHANICAL_DESIGN_GEOMETRIC_PRESENTATION_REPRESENTATION('',(#13),#1698);
#11=SHAPE_REPRESENTATION_RELATIONSHIP('SRR','None',#1705,#12);
#12=ADVANCED_BREP_SHAPE_REPRESENTATION('',(#14),#1697);
#13=STYLED_ITEM('',(#1714),#14);
#14=MANIFOLD_SOLID_BREP('Body1',#1030);
#15=FACE_BOUND('',#156,.T.);
#16=FACE_BOUND('',#158,.T.);
#17=PLANE('',#1047);
#18=PLANE('',#1051);
#19=PLANE('',#1052);
#20=PLANE('',#1053);
#21=PLANE('',#1057);
#22=PLANE('',#1058);
#23=PLANE('',#1059);
#24=PLANE('',#1063);
#25=PLANE('',#1064);
#26=PLANE('',#1065);
#27=PLANE('',#1069);
#28=PLANE('',#1070);
#29=PLANE('',#1071);
#30=PLANE('',#1075);
#31=PLANE('',#1076);
#32=PLANE('',#1077);
#33=PLANE('',#1081);
#34=PLANE('',#1082);
#35=PLANE('',#1083);
#36=PLANE('',#1087);
#37=PLANE('',#1088);
#38=PLANE('',#1089);
#39=PLANE('',#1093);
#40=PLANE('',#1094);
#41=PLANE('',#1095);
#42=PLANE('',#1099);
#43=PLANE('',#1100);
#44=PLANE('',#1101);
#45=PLANE('',#1105);
#46=PLANE('',#1106);
#47=PLANE('',#1107);
#48=PLANE('',#1111);
#49=PLANE('',#1112);
#50=PLANE('',#1113);
#51=PLANE('',#1117);
#52=PLANE('',#1118);
#53=PLANE('',#1119);
#54=PLANE('',#1120);
#55=FACE_OUTER_BOUND('',#106,.T.);
#56=FACE_OUTER_BOUND('',#107,.T.);
#57=FACE_OUTER_BOUND('',#108,.T.);
#58=FACE_OUTER_BOUND('',#109,.T.);
#59=FACE_OUTER_BOUND('',#110,.T.);
#60=FACE_OUTER_BOUND('',#111,.T.);
#61=FACE_OUTER_BOUND('',#112,.T.);
#62=FACE_OUTER_BOUND('',#113,.T.);
#63=FACE_OUTER_BOUND('',#114,.T.);
#64=FACE_OUTER_BOUND('',#115,.T.);
#65=FACE_OUTER_BOUND('',#116,.T.);
#66=FACE_OUTER_BOUND('',#117,.T.);
#67=FACE_OUTER_BOUND('',#118,.T.);
#68=FACE_OUTER_BOUND('',#119,.T.);
#69=FACE_OUTER_BOUND('',#120,.T.);
#70=FACE_OUTER_BOUND('',#121,.T.);
#71=FACE_OUTER_BOUND('',#122,.T.);
#72=FACE_OUTER_BOUND('',#123,.T.);
#73=FACE_OUTER_BOUND('',#124,.T.);
#74=FACE_OUTER_BOUND('',#125,.T.);
#75=FACE_OUTER_BOUND('',#126,.T.);
#76=FACE_OUTER_BOUND('',#127,.T.);
#77=FACE_OUTER_BOUND('',#128,.T.);
#78=FACE_OUTER_BOUND('',#129,.T.);
#79=FACE_OUTER_BOUND('',#130,.T.);
#80=FACE_OUTER_BOUND('',#131,.T.);
#81=FACE_OUTER_BOUND('',#132,.T.);
#82=FACE_OUTER_BOUND('',#133,.T.);
#83=FACE_OUTER_BOUND('',#134,.T.);
#84=FACE_OUTER_BOUND('',#135,.T.);
#85=FACE_OUTER_BOUND('',#136,.T.);
#86=FACE_OUTER_BOUND('',#137,.T.);
#87=FACE_OUTER_BOUND('',#138,.T.);
#88=FACE_OUTER_BOUND('',#139,.T.);
#89=FACE_OUTER_BOUND('',#140,.T.);
#90=FACE_OUTER_BOUND('',#141,.T.);
#91=FACE_OUTER_BOUND('',#142,.T.);
#92=FACE_OUTER_BOUND('',#143,.T.);
#93=FACE_OUTER_BOUND('',#144,.T.);
#94=FACE_OUTER_BOUND('',#145,.T.);
#95=FACE_OUTER_BOUND('',#146,.T.);
#96=FACE_OUTER_BOUND('',#147,.T.);
#97=FACE_OUTER_BOUND('',#148,.T.);
#98=FACE_OUTER_BOUND('',#149,.T.);
#99=FACE_OUTER_BOUND('',#150,.T.);
#100=FACE_OUTER_BOUND('',#151,.T.);
#101=FACE_OUTER_BOUND('',#152,.T.);
#102=FACE_OUTER_BOUND('',#153,.T.);
#103=FACE_OUTER_BOUND('',#154,.T.);
#104=FACE_OUTER_BOUND('',#155,.T.);
#105=FACE_OUTER_BOUND('',#157,.T.);
#106=EDGE_LOOP('',(#672,#673,#674,#675));
#107=EDGE_LOOP('',(#676,#677,#678,#679));
#108=EDGE_LOOP('',(#680,#681,#682,#683));
#109=EDGE_LOOP('',(#684,#685,#686,#687));
#110=EDGE_LOOP('',(#688,#689,#690,#691));
#111=EDGE_LOOP('',(#692,#693,#694,#695));
#112=EDGE_LOOP('',(#696,#697,#698,#699));
#113=EDGE_LOOP('',(#700,#701,#702,#703));
#114=EDGE_LOOP('',(#704,#705,#706,#707));
#115=EDGE_LOOP('',(#708,#709,#710,#711));
#116=EDGE_LOOP('',(#712,#713,#714,#715));
#117=EDGE_LOOP('',(#716,#717,#718,#719));
#118=EDGE_LOOP('',(#720,#721,#722,#723));
#119=EDGE_LOOP('',(#724,#725,#726,#727));
#120=EDGE_LOOP('',(#728,#729,#730,#731));
#121=EDGE_LOOP('',(#732,#733,#734,#735));
#122=EDGE_LOOP('',(#736,#737,#738,#739));
#123=EDGE_LOOP('',(#740,#741,#742,#743));
#124=EDGE_LOOP('',(#744,#745,#746,#747));
#125=EDGE_LOOP('',(#748,#749,#750,#751));
#126=EDGE_LOOP('',(#752,#753,#754,#755));
#127=EDGE_LOOP('',(#756,#757,#758,#759));
#128=EDGE_LOOP('',(#760,#761,#762,#763));
#129=EDGE_LOOP('',(#764,#765,#766,#767));
#130=EDGE_LOOP('',(#768,#769,#770,#771));
#131=EDGE_LOOP('',(#772,#773,#774,#775));
#132=EDGE_LOOP('',(#776,#777,#778,#779));
#133=EDGE_LOOP('',(#780,#781,#782,#783));
#134=EDGE_LOOP('',(#784,#785,#786,#787));
#135=EDGE_LOOP('',(#788,#789,#790,#791));
#136=EDGE_LOOP('',(#792,#793,#794,#795));
#137=EDGE_LOOP('',(#796,#797,#798,#799));
#138=EDGE_LOOP('',(#800,#801,#802,#803));
#139=EDGE_LOOP('',(#804,#805,#806,#807));
#140=EDGE_LOOP('',(#808,#809,#810,#811));
#141=EDGE_LOOP('',(#812,#813,#814,#815));
#142=EDGE_LOOP('',(#816,#817,#818,#819));
#143=EDGE_LOOP('',(#820,#821,#822,#823));
#144=EDGE_LOOP('',(#824,#825,#826,#827));
#145=EDGE_LOOP('',(#828,#829,#830,#831));
#146=EDGE_LOOP('',(#832,#833,#834,#835));
#147=EDGE_LOOP('',(#836,#837,#838,#839));
#148=EDGE_LOOP('',(#840,#841,#842,#843));
#149=EDGE_LOOP('',(#844,#845,#846,#847));
#150=EDGE_LOOP('',(#848,#849,#850,#851));
#151=EDGE_LOOP('',(#852,#853,#854,#855));
#152=EDGE_LOOP('',(#856,#857,#858,#859));
#153=EDGE_LOOP('',(#860,#861,#862,#863));
#154=EDGE_LOOP('',(#864,#865,#866,#867));
#155=EDGE_LOOP('',(#868,#869,#870,#871,#872,#873,#874,#875,#876,#877,#878,
#879,#880,#881,#882,#883,#884,#885,#886,#887,#888,#889,#890,#891,#892,#893,
#894,#895,#896,#897,#898,#899,#900,#901,#902,#903,#904,#905,#906,#907,#908,
#909,#910,#911,#912,#913,#914,#915));
#156=EDGE_LOOP('',(#916));
#157=EDGE_LOOP('',(#917,#918,#919,#920,#921,#922,#923,#924,#925,#926,#927,
#928,#929,#930,#931,#932,#933,#934,#935,#936,#937,#938,#939,#940,#941,#942,
#943,#944,#945,#946,#947,#948,#949,#950,#951,#952,#953,#954,#955,#956,#957,
#958,#959,#960,#961,#962,#963,#964));
#158=EDGE_LOOP('',(#965));
#159=LINE('',#1403,#280);
#160=LINE('',#1408,#281);
#161=LINE('',#1410,#282);
#162=LINE('',#1412,#283);
#163=LINE('',#1413,#284);
#164=LINE('',#1419,#285);
#165=LINE('',#1422,#286);
#166=LINE('',#1424,#287);
#167=LINE('',#1425,#288);
#168=LINE('',#1428,#289);
#169=LINE('',#1430,#290);
#170=LINE('',#1431,#291);
#171=LINE('',#1434,#292);
#172=LINE('',#1436,#293);
#173=LINE('',#1437,#294);
#174=LINE('',#1443,#295);
#175=LINE('',#1446,#296);
#176=LINE('',#1448,#297);
#177=LINE('',#1449,#298);
#178=LINE('',#1452,#299);
#179=LINE('',#1454,#300);
#180=LINE('',#1455,#301);
#181=LINE('',#1458,#302);
#182=LINE('',#1460,#303);
#183=LINE('',#1461,#304);
#184=LINE('',#1467,#305);
#185=LINE('',#1470,#306);
#186=LINE('',#1472,#307);
#187=LINE('',#1473,#308);
#188=LINE('',#1476,#309);
#189=LINE('',#1478,#310);
#190=LINE('',#1479,#311);
#191=LINE('',#1482,#312);
#192=LINE('',#1484,#313);
#193=LINE('',#1485,#314);
#194=LINE('',#1491,#315);
#195=LINE('',#1494,#316);
#196=LINE('',#1496,#317);
#197=LINE('',#1497,#318);
#198=LINE('',#1500,#319);
#199=LINE('',#1502,#320);
#200=LINE('',#1503,#321);
#201=LINE('',#1506,#322);
#202=LINE('',#1508,#323);
#203=LINE('',#1509,#324);
#204=LINE('',#1515,#325);
#205=LINE('',#1518,#326);
#206=LINE('',#1520,#327);
#207=LINE('',#1521,#328);
#208=LINE('',#1524,#329);
#209=LINE('',#1526,#330);
#210=LINE('',#1527,#331);
#211=LINE('',#1530,#332);
#212=LINE('',#1532,#333);
#213=LINE('',#1533,#334);
#214=LINE('',#1539,#335);
#215=LINE('',#1542,#336);
#216=LINE('',#1544,#337);
#217=LINE('',#1545,#338);
#218=LINE('',#1548,#339);
#219=LINE('',#1550,#340);
#220=LINE('',#1551,#341);
#221=LINE('',#1554,#342);
#222=LINE('',#1556,#343);
#223=LINE('',#1557,#344);
#224=LINE('',#1563,#345);
#225=LINE('',#1566,#346);
#226=LINE('',#1568,#347);
#227=LINE('',#1569,#348);
#228=LINE('',#1572,#349);
#229=LINE('',#1574,#350);
#230=LINE('',#1575,#351);
#231=LINE('',#1578,#352);
#232=LINE('',#1580,#353);
#233=LINE('',#1581,#354);
#234=LINE('',#1587,#355);
#235=LINE('',#1590,#356);
#236=LINE('',#1592,#357);
#237=LINE('',#1593,#358);
#238=LINE('',#1596,#359);
#239=LINE('',#1598,#360);
#240=LINE('',#1599,#361);
#241=LINE('',#1602,#362);
#242=LINE('',#1604,#363);
#243=LINE('',#1605,#364);
#244=LINE('',#1611,#365);
#245=LINE('',#1614,#366);
#246=LINE('',#1616,#367);
#247=LINE('',#1617,#368);
#248=LINE('',#1620,#369);
#249=LINE('',#1622,#370);
#250=LINE('',#1623,#371);
#251=LINE('',#1626,#372);
#252=LINE('',#1628,#373);
#253=LINE('',#1629,#374);
#254=LINE('',#1635,#375);
#255=LINE('',#1638,#376);
#256=LINE('',#1640,#377);
#257=LINE('',#1641,#378);
#258=LINE('',#1644,#379);
#259=LINE('',#1646,#380);
#260=LINE('',#1647,#381);
#261=LINE('',#1650,#382);
#262=LINE('',#1652,#383);
#263=LINE('',#1653,#384);
#264=LINE('',#1659,#385);
#265=LINE('',#1662,#386);
#266=LINE('',#1664,#387);
#267=LINE('',#1665,#388);
#268=LINE('',#1668,#389);
#269=LINE('',#1670,#390);
#270=LINE('',#1671,#391);
#271=LINE('',#1674,#392);
#272=LINE('',#1676,#393);
#273=LINE('',#1677,#394);
#274=LINE('',#1683,#395);
#275=LINE('',#1686,#396);
#276=LINE('',#1688,#397);
#277=LINE('',#1689,#398);
#278=LINE('',#1691,#399);
#279=LINE('',#1692,#400);
#280=VECTOR('',#1127,2.);
#281=VECTOR('',#1132,10.);
#282=VECTOR('',#1133,10.);
#283=VECTOR('',#1134,10.);
#284=VECTOR('',#1135,10.);
#285=VECTOR('',#1142,10.);
#286=VECTOR('',#1145,10.);
#287=VECTOR('',#1146,10.);
#288=VECTOR('',#1147,10.);
#289=VECTOR('',#1150,10.);
#290=VECTOR('',#1151,10.);
#291=VECTOR('',#1152,10.);
#292=VECTOR('',#1155,10.);
#293=VECTOR('',#1156,10.);
#294=VECTOR('',#1157,10.);
#295=VECTOR('',#1164,10.);
#296=VECTOR('',#1167,10.);
#297=VECTOR('',#1168,10.);
#298=VECTOR('',#1169,10.);
#299=VECTOR('',#1172,10.);
#300=VECTOR('',#1173,10.);
#301=VECTOR('',#1174,10.);
#302=VECTOR('',#1177,10.);
#303=VECTOR('',#1178,10.);
#304=VECTOR('',#1179,10.);
#305=VECTOR('',#1186,10.);
#306=VECTOR('',#1189,10.);
#307=VECTOR('',#1190,10.);
#308=VECTOR('',#1191,10.);
#309=VECTOR('',#1194,10.);
#310=VECTOR('',#1195,10.);
#311=VECTOR('',#1196,10.);
#312=VECTOR('',#1199,10.);
#313=VECTOR('',#1200,10.);
#314=VECTOR('',#1201,10.);
#315=VECTOR('',#1208,10.);
#316=VECTOR('',#1211,10.);
#317=VECTOR('',#1212,10.);
#318=VECTOR('',#1213,10.);
#319=VECTOR('',#1216,10.);
#320=VECTOR('',#1217,10.);
#321=VECTOR('',#1218,10.);
#322=VECTOR('',#1221,10.);
#323=VECTOR('',#1222,10.);
#324=VECTOR('',#1223,10.);
#325=VECTOR('',#1230,10.);
#326=VECTOR('',#1233,10.);
#327=VECTOR('',#1234,10.);
#328=VECTOR('',#1235,10.);
#329=VECTOR('',#1238,10.);
#330=VECTOR('',#1239,10.);
#331=VECTOR('',#1240,10.);
#332=VECTOR('',#1243,10.);
#333=VECTOR('',#1244,10.);
#334=VECTOR('',#1245,10.);
#335=VECTOR('',#1252,10.);
#336=VECTOR('',#1255,10.);
#337=VECTOR('',#1256,10.);
#338=VECTOR('',#1257,10.);
#339=VECTOR('',#1260,10.);
#340=VECTOR('',#1261,10.);
#341=VECTOR('',#1262,10.);
#342=VECTOR('',#1265,10.);
#343=VECTOR('',#1266,10.);
#344=VECTOR('',#1267,10.);
#345=VECTOR('',#1274,10.);
#346=VECTOR('',#1277,10.);
#347=VECTOR('',#1278,10.);
#348=VECTOR('',#1279,10.);
#349=VECTOR('',#1282,10.);
#350=VECTOR('',#1283,10.);
#351=VECTOR('',#1284,10.);
#352=VECTOR('',#1287,10.);
#353=VECTOR('',#1288,10.);
#354=VECTOR('',#1289,10.);
#355=VECTOR('',#1296,10.);
#356=VECTOR('',#1299,10.);
#357=VECTOR('',#1300,10.);
#358=VECTOR('',#1301,10.);
#359=VECTOR('',#1304,10.);
#360=VECTOR('',#1305,10.);
#361=VECTOR('',#1306,10.);
#362=VECTOR('',#1309,10.);
#363=VECTOR('',#1310,10.);
#364=VECTOR('',#1311,10.);
#365=VECTOR('',#1318,10.);
#366=VECTOR('',#1321,10.);
#367=VECTOR('',#1322,10.);
#368=VECTOR('',#1323,10.);
#369=VECTOR('',#1326,10.);
#370=VECTOR('',#1327,10.);
#371=VECTOR('',#1328,10.);
#372=VECTOR('',#1331,10.);
#373=VECTOR('',#1332,10.);
#374=VECTOR('',#1333,10.);
#375=VECTOR('',#1340,10.);
#376=VECTOR('',#1343,10.);
#377=VECTOR('',#1344,10.);
#378=VECTOR('',#1345,10.);
#379=VECTOR('',#1348,10.);
#380=VECTOR('',#1349,10.);
#381=VECTOR('',#1350,10.);
#382=VECTOR('',#1353,10.);
#383=VECTOR('',#1354,10.);
#384=VECTOR('',#1355,10.);
#385=VECTOR('',#1362,10.);
#386=VECTOR('',#1365,10.);
#387=VECTOR('',#1366,10.);
#388=VECTOR('',#1367,10.);
#389=VECTOR('',#1370,10.);
#390=VECTOR('',#1371,10.);
#391=VECTOR('',#1372,10.);
#392=VECTOR('',#1375,10.);
#393=VECTOR('',#1376,10.);
#394=VECTOR('',#1377,10.);
#395=VECTOR('',#1384,10.);
#396=VECTOR('',#1387,10.);
#397=VECTOR('',#1388,10.);
#398=VECTOR('',#1389,10.);
#399=VECTOR('',#1392,10.);
#400=VECTOR('',#1393,10.);
#401=CIRCLE('',#1045,2.);
#402=CIRCLE('',#1046,2.);
#403=CIRCLE('',#1049,0.500000000000002);
#404=CIRCLE('',#1050,0.500000000000002);
#405=CIRCLE('',#1055,0.5);
#406=CIRCLE('',#1056,0.5);
#407=CIRCLE('',#1061,1.);
#408=CIRCLE('',#1062,1.);
#409=CIRCLE('',#1067,0.5);
#410=CIRCLE('',#1068,0.5);
#411=CIRCLE('',#1073,0.499999999999999);
#412=CIRCLE('',#1074,0.499999999999999);
#413=CIRCLE('',#1079,1.);
#414=CIRCLE('',#1080,1.);
#415=CIRCLE('',#1085,0.5);
#416=CIRCLE('',#1086,0.5);
#417=CIRCLE('',#1091,0.500000000000002);
#418=CIRCLE('',#1092,0.500000000000002);
#419=CIRCLE('',#1097,1.);
#420=CIRCLE('',#1098,1.);
#421=CIRCLE('',#1103,0.500000000000002);
#422=CIRCLE('',#1104,0.500000000000002);
#423=CIRCLE('',#1109,0.499999999999999);
#424=CIRCLE('',#1110,0.499999999999999);
#425=CIRCLE('',#1115,1.);
#426=CIRCLE('',#1116,1.);
#427=VERTEX_POINT('',#1400);
#428=VERTEX_POINT('',#1402);
#429=VERTEX_POINT('',#1406);
#430=VERTEX_POINT('',#1407);
#431=VERTEX_POINT('',#1409);
#432=VERTEX_POINT('',#1411);
#433=VERTEX_POINT('',#1415);
#434=VERTEX_POINT('',#1417);
#435=VERTEX_POINT('',#1421);
#436=VERTEX_POINT('',#1423);
#437=VERTEX_POINT('',#1427);
#438=VERTEX_POINT('',#1429);
#439=VERTEX_POINT('',#1433);
#440=VERTEX_POINT('',#1435);
#441=VERTEX_POINT('',#1439);
#442=VERTEX_POINT('',#1441);
#443=VERTEX_POINT('',#1445);
#444=VERTEX_POINT('',#1447);
#445=VERTEX_POINT('',#1451);
#446=VERTEX_POINT('',#1453);
#447=VERTEX_POINT('',#1457);
#448=VERTEX_POINT('',#1459);
#449=VERTEX_POINT('',#1463);
#450=VERTEX_POINT('',#1465);
#451=VERTEX_POINT('',#1469);
#452=VERTEX_POINT('',#1471);
#453=VERTEX_POINT('',#1475);
#454=VERTEX_POINT('',#1477);
#455=VERTEX_POINT('',#1481);
#456=VERTEX_POINT('',#1483);
#457=VERTEX_POINT('',#1487);
#458=VERTEX_POINT('',#1489);
#459=VERTEX_POINT('',#1493);
#460=VERTEX_POINT('',#1495);
#461=VERTEX_POINT('',#1499);
#462=VERTEX_POINT('',#1501);
#463=VERTEX_POINT('',#1505);
#464=VERTEX_POINT('',#1507);
#465=VERTEX_POINT('',#1511);
#466=VERTEX_POINT('',#1513);
#467=VERTEX_POINT('',#1517);
#468=VERTEX_POINT('',#1519);
#469=VERTEX_POINT('',#1523);
#470=VERTEX_POINT('',#1525);
#471=VERTEX_POINT('',#1529);
#472=VERTEX_POINT('',#1531);
#473=VERTEX_POINT('',#1535);
#474=VERTEX_POINT('',#1537);
#475=VERTEX_POINT('',#1541);
#476=VERTEX_POINT('',#1543);
#477=VERTEX_POINT('',#1547);
#478=VERTEX_POINT('',#1549);
#479=VERTEX_POINT('',#1553);
#480=VERTEX_POINT('',#1555);
#481=VERTEX_POINT('',#1559);
#482=VERTEX_POINT('',#1561);
#483=VERTEX_POINT('',#1565);
#484=VERTEX_POINT('',#1567);
#485=VERTEX_POINT('',#1571);
#486=VERTEX_POINT('',#1573);
#487=VERTEX_POINT('',#1577);
#488=VERTEX_POINT('',#1579);
#489=VERTEX_POINT('',#1583);
#490=VERTEX_POINT('',#1585);
#491=VERTEX_POINT('',#1589);
#492=VERTEX_POINT('',#1591);
#493=VERTEX_POINT('',#1595);
#494=VERTEX_POINT('',#1597);
#495=VERTEX_POINT('',#1601);
#496=VERTEX_POINT('',#1603);
#497=VERTEX_POINT('',#1607);
#498=VERTEX_POINT('',#1609);
#499=VERTEX_POINT('',#1613);
#500=VERTEX_POINT('',#1615);
#501=VERTEX_POINT('',#1619);
#502=VERTEX_POINT('',#1621);
#503=VERTEX_POINT('',#1625);
#504=VERTEX_POINT('',#1627);
#505=VERTEX_POINT('',#1631);
#506=VERTEX_POINT('',#1633);
#507=VERTEX_POINT('',#1637);
#508=VERTEX_POINT('',#1639);
#509=VERTEX_POINT('',#1643);
#510=VERTEX_POINT('',#1645);
#511=VERTEX_POINT('',#1649);
#512=VERTEX_POINT('',#1651);
#513=VERTEX_POINT('',#1655);
#514=VERTEX_POINT('',#1657);
#515=VERTEX_POINT('',#1661);
#516=VERTEX_POINT('',#1663);
#517=VERTEX_POINT('',#1667);
#518=VERTEX_POINT('',#1669);
#519=VERTEX_POINT('',#1673);
#520=VERTEX_POINT('',#1675);
#521=VERTEX_POINT('',#1679);
#522=VERTEX_POINT('',#1681);
#523=VERTEX_POINT('',#1685);
#524=VERTEX_POINT('',#1687);
#525=EDGE_CURVE('',#427,#427,#401,.T.);
#526=EDGE_CURVE('',#427,#428,#159,.T.);
#527=EDGE_CURVE('',#428,#428,#402,.T.);
#528=EDGE_CURVE('',#429,#430,#160,.T.);
#529=EDGE_CURVE('',#429,#431,#161,.T.);
#530=EDGE_CURVE('',#432,#431,#162,.T.);
#531=EDGE_CURVE('',#430,#432,#163,.T.);
#532=EDGE_CURVE('',#430,#433,#403,.T.);
#533=EDGE_CURVE('',#434,#432,#404,.T.);
#534=EDGE_CURVE('',#433,#434,#164,.T.);
#535=EDGE_CURVE('',#435,#433,#165,.T.);
#536=EDGE_CURVE('',#436,#434,#166,.T.);
#537=EDGE_CURVE('',#435,#436,#167,.T.);
#538=EDGE_CURVE('',#437,#435,#168,.T.);
#539=EDGE_CURVE('',#438,#436,#169,.T.);
#540=EDGE_CURVE('',#437,#438,#170,.T.);
#541=EDGE_CURVE('',#437,#439,#171,.T.);
#542=EDGE_CURVE('',#440,#438,#172,.T.);
#543=EDGE_CURVE('',#439,#440,#173,.T.);
#544=EDGE_CURVE('',#439,#441,#405,.T.);
#545=EDGE_CURVE('',#442,#440,#406,.T.);
#546=EDGE_CURVE('',#441,#442,#174,.T.);
#547=EDGE_CURVE('',#443,#441,#175,.T.);
#548=EDGE_CURVE('',#444,#442,#176,.T.);
#549=EDGE_CURVE('',#443,#444,#177,.T.);
#550=EDGE_CURVE('',#443,#445,#178,.T.);
#551=EDGE_CURVE('',#446,#444,#179,.T.);
#552=EDGE_CURVE('',#445,#446,#180,.T.);
#553=EDGE_CURVE('',#447,#445,#181,.T.);
#554=EDGE_CURVE('',#448,#446,#182,.T.);
#555=EDGE_CURVE('',#447,#448,#183,.T.);
#556=EDGE_CURVE('',#449,#447,#407,.T.);
#557=EDGE_CURVE('',#450,#448,#408,.T.);
#558=EDGE_CURVE('',#449,#450,#184,.T.);
#559=EDGE_CURVE('',#451,#449,#185,.T.);
#560=EDGE_CURVE('',#452,#450,#186,.T.);
#561=EDGE_CURVE('',#451,#452,#187,.T.);
#562=EDGE_CURVE('',#453,#451,#188,.T.);
#563=EDGE_CURVE('',#454,#452,#189,.T.);
#564=EDGE_CURVE('',#453,#454,#190,.T.);
#565=EDGE_CURVE('',#453,#455,#191,.T.);
#566=EDGE_CURVE('',#456,#454,#192,.T.);
#567=EDGE_CURVE('',#455,#456,#193,.T.);
#568=EDGE_CURVE('',#455,#457,#409,.T.);
#569=EDGE_CURVE('',#458,#456,#410,.T.);
#570=EDGE_CURVE('',#457,#458,#194,.T.);
#571=EDGE_CURVE('',#459,#457,#195,.T.);
#572=EDGE_CURVE('',#460,#458,#196,.T.);
#573=EDGE_CURVE('',#459,#460,#197,.T.);
#574=EDGE_CURVE('',#461,#459,#198,.T.);
#575=EDGE_CURVE('',#462,#460,#199,.T.);
#576=EDGE_CURVE('',#461,#462,#200,.T.);
#577=EDGE_CURVE('',#461,#463,#201,.T.);
#578=EDGE_CURVE('',#464,#462,#202,.T.);
#579=EDGE_CURVE('',#463,#464,#203,.T.);
#580=EDGE_CURVE('',#463,#465,#411,.T.);
#581=EDGE_CURVE('',#466,#464,#412,.T.);
#582=EDGE_CURVE('',#465,#466,#204,.T.);
#583=EDGE_CURVE('',#467,#465,#205,.T.);
#584=EDGE_CURVE('',#468,#466,#206,.T.);
#585=EDGE_CURVE('',#467,#468,#207,.T.);
#586=EDGE_CURVE('',#467,#469,#208,.T.);
#587=EDGE_CURVE('',#470,#468,#209,.T.);
#588=EDGE_CURVE('',#469,#470,#210,.T.);
#589=EDGE_CURVE('',#471,#469,#211,.T.);
#590=EDGE_CURVE('',#472,#470,#212,.T.);
#591=EDGE_CURVE('',#471,#472,#213,.T.);
#592=EDGE_CURVE('',#473,#471,#413,.T.);
#593=EDGE_CURVE('',#474,#472,#414,.T.);
#594=EDGE_CURVE('',#473,#474,#214,.T.);
#595=EDGE_CURVE('',#475,#473,#215,.T.);
#596=EDGE_CURVE('',#476,#474,#216,.T.);
#597=EDGE_CURVE('',#475,#476,#217,.T.);
#598=EDGE_CURVE('',#477,#475,#218,.T.);
#599=EDGE_CURVE('',#478,#476,#219,.T.);
#600=EDGE_CURVE('',#477,#478,#220,.T.);
#601=EDGE_CURVE('',#477,#479,#221,.T.);
#602=EDGE_CURVE('',#480,#478,#222,.T.);
#603=EDGE_CURVE('',#479,#480,#223,.T.);
#604=EDGE_CURVE('',#479,#481,#415,.T.);
#605=EDGE_CURVE('',#482,#480,#416,.T.);
#606=EDGE_CURVE('',#481,#482,#224,.T.);
#607=EDGE_CURVE('',#483,#481,#225,.T.);
#608=EDGE_CURVE('',#484,#482,#226,.T.);
#609=EDGE_CURVE('',#483,#484,#227,.T.);
#610=EDGE_CURVE('',#485,#483,#228,.T.);
#611=EDGE_CURVE('',#486,#484,#229,.T.);
#612=EDGE_CURVE('',#485,#486,#230,.T.);
#613=EDGE_CURVE('',#485,#487,#231,.T.);
#614=EDGE_CURVE('',#488,#486,#232,.T.);
#615=EDGE_CURVE('',#487,#488,#233,.T.);
#616=EDGE_CURVE('',#487,#489,#417,.T.);
#617=EDGE_CURVE('',#490,#488,#418,.T.);
#618=EDGE_CURVE('',#489,#490,#234,.T.);
#619=EDGE_CURVE('',#491,#489,#235,.T.);
#620=EDGE_CURVE('',#492,#490,#236,.T.);
#621=EDGE_CURVE('',#491,#492,#237,.T.);
#622=EDGE_CURVE('',#491,#493,#238,.T.);
#623=EDGE_CURVE('',#494,#492,#239,.T.);
#624=EDGE_CURVE('',#493,#494,#240,.T.);
#625=EDGE_CURVE('',#495,#493,#241,.T.);
#626=EDGE_CURVE('',#496,#494,#242,.T.);
#627=EDGE_CURVE('',#495,#496,#243,.T.);
#628=EDGE_CURVE('',#497,#495,#419,.T.);
#629=EDGE_CURVE('',#498,#496,#420,.T.);
#630=EDGE_CURVE('',#497,#498,#244,.T.);
#631=EDGE_CURVE('',#499,#497,#245,.T.);
#632=EDGE_CURVE('',#500,#498,#246,.T.);
#633=EDGE_CURVE('',#499,#500,#247,.T.);
#634=EDGE_CURVE('',#501,#499,#248,.T.);
#635=EDGE_CURVE('',#502,#500,#249,.T.);
#636=EDGE_CURVE('',#501,#502,#250,.T.);
#637=EDGE_CURVE('',#501,#503,#251,.T.);
#638=EDGE_CURVE('',#504,#502,#252,.T.);
#639=EDGE_CURVE('',#503,#504,#253,.T.);
#640=EDGE_CURVE('',#503,#505,#421,.T.);
#641=EDGE_CURVE('',#506,#504,#422,.T.);
#642=EDGE_CURVE('',#505,#506,#254,.T.);
#643=EDGE_CURVE('',#507,#505,#255,.T.);
#644=EDGE_CURVE('',#508,#506,#256,.T.);
#645=EDGE_CURVE('',#507,#508,#257,.T.);
#646=EDGE_CURVE('',#509,#507,#258,.T.);
#647=EDGE_CURVE('',#510,#508,#259,.T.);
#648=EDGE_CURVE('',#509,#510,#260,.T.);
#649=EDGE_CURVE('',#509,#511,#261,.T.);
#650=EDGE_CURVE('',#512,#510,#262,.T.);
#651=EDGE_CURVE('',#511,#512,#263,.T.);
#652=EDGE_CURVE('',#511,#513,#423,.T.);
#653=EDGE_CURVE('',#514,#512,#424,.T.);
#654=EDGE_CURVE('',#513,#514,#264,.T.);
#655=EDGE_CURVE('',#515,#513,#265,.T.);
#656=EDGE_CURVE('',#516,#514,#266,.T.);
#657=EDGE_CURVE('',#515,#516,#267,.T.);
#658=EDGE_CURVE('',#515,#517,#268,.T.);
#659=EDGE_CURVE('',#518,#516,#269,.T.);
#660=EDGE_CURVE('',#517,#518,#270,.T.);
#661=EDGE_CURVE('',#519,#517,#271,.T.);
#662=EDGE_CURVE('',#520,#518,#272,.T.);
#663=EDGE_CURVE('',#519,#520,#273,.T.);
#664=EDGE_CURVE('',#521,#519,#425,.T.);
#665=EDGE_CURVE('',#522,#520,#426,.T.);
#666=EDGE_CURVE('',#521,#522,#274,.T.);
#667=EDGE_CURVE('',#523,#521,#275,.T.);
#668=EDGE_CURVE('',#524,#522,#276,.T.);
#669=EDGE_CURVE('',#523,#524,#277,.T.);
#670=EDGE_CURVE('',#429,#523,#278,.T.);
#671=EDGE_CURVE('',#431,#524,#279,.T.);
#672=ORIENTED_EDGE('',*,*,#525,.F.);
#673=ORIENTED_EDGE('',*,*,#526,.T.);
#674=ORIENTED_EDGE('',*,*,#527,.T.);
#675=ORIENTED_EDGE('',*,*,#526,.F.);
#676=ORIENTED_EDGE('',*,*,#528,.F.);
#677=ORIENTED_EDGE('',*,*,#529,.T.);
#678=ORIENTED_EDGE('',*,*,#530,.F.);
#679=ORIENTED_EDGE('',*,*,#531,.F.);
#680=ORIENTED_EDGE('',*,*,#532,.F.);
#681=ORIENTED_EDGE('',*,*,#531,.T.);
#682=ORIENTED_EDGE('',*,*,#533,.F.);
#683=ORIENTED_EDGE('',*,*,#534,.F.);
#684=ORIENTED_EDGE('',*,*,#535,.T.);
#685=ORIENTED_EDGE('',*,*,#534,.T.);
#686=ORIENTED_EDGE('',*,*,#536,.F.);
#687=ORIENTED_EDGE('',*,*,#537,.F.);
#688=ORIENTED_EDGE('',*,*,#538,.T.);
#689=ORIENTED_EDGE('',*,*,#537,.T.);
#690=ORIENTED_EDGE('',*,*,#539,.F.);
#691=ORIENTED_EDGE('',*,*,#540,.F.);
#692=ORIENTED_EDGE('',*,*,#541,.F.);
#693=ORIENTED_EDGE('',*,*,#540,.T.);
#694=ORIENTED_EDGE('',*,*,#542,.F.);
#695=ORIENTED_EDGE('',*,*,#543,.F.);
#696=ORIENTED_EDGE('',*,*,#544,.F.);
#697=ORIENTED_EDGE('',*,*,#543,.T.);
#698=ORIENTED_EDGE('',*,*,#545,.F.);
#699=ORIENTED_EDGE('',*,*,#546,.F.);
#700=ORIENTED_EDGE('',*,*,#547,.T.);
#701=ORIENTED_EDGE('',*,*,#546,.T.);
#702=ORIENTED_EDGE('',*,*,#548,.F.);
#703=ORIENTED_EDGE('',*,*,#549,.F.);
#704=ORIENTED_EDGE('',*,*,#550,.F.);
#705=ORIENTED_EDGE('',*,*,#549,.T.);
#706=ORIENTED_EDGE('',*,*,#551,.F.);
#707=ORIENTED_EDGE('',*,*,#552,.F.);
#708=ORIENTED_EDGE('',*,*,#553,.T.);
#709=ORIENTED_EDGE('',*,*,#552,.T.);
#710=ORIENTED_EDGE('',*,*,#554,.F.);
#711=ORIENTED_EDGE('',*,*,#555,.F.);
#712=ORIENTED_EDGE('',*,*,#556,.T.);
#713=ORIENTED_EDGE('',*,*,#555,.T.);
#714=ORIENTED_EDGE('',*,*,#557,.F.);
#715=ORIENTED_EDGE('',*,*,#558,.F.);
#716=ORIENTED_EDGE('',*,*,#559,.T.);
#717=ORIENTED_EDGE('',*,*,#558,.T.);
#718=ORIENTED_EDGE('',*,*,#560,.F.);
#719=ORIENTED_EDGE('',*,*,#561,.F.);
#720=ORIENTED_EDGE('',*,*,#562,.T.);
#721=ORIENTED_EDGE('',*,*,#561,.T.);
#722=ORIENTED_EDGE('',*,*,#563,.F.);
#723=ORIENTED_EDGE('',*,*,#564,.F.);
#724=ORIENTED_EDGE('',*,*,#565,.F.);
#725=ORIENTED_EDGE('',*,*,#564,.T.);
#726=ORIENTED_EDGE('',*,*,#566,.F.);
#727=ORIENTED_EDGE('',*,*,#567,.F.);
#728=ORIENTED_EDGE('',*,*,#568,.F.);
#729=ORIENTED_EDGE('',*,*,#567,.T.);
#730=ORIENTED_EDGE('',*,*,#569,.F.);
#731=ORIENTED_EDGE('',*,*,#570,.F.);
#732=ORIENTED_EDGE('',*,*,#571,.T.);
#733=ORIENTED_EDGE('',*,*,#570,.T.);
#734=ORIENTED_EDGE('',*,*,#572,.F.);
#735=ORIENTED_EDGE('',*,*,#573,.F.);
#736=ORIENTED_EDGE('',*,*,#574,.T.);
#737=ORIENTED_EDGE('',*,*,#573,.T.);
#738=ORIENTED_EDGE('',*,*,#575,.F.);
#739=ORIENTED_EDGE('',*,*,#576,.F.);
#740=ORIENTED_EDGE('',*,*,#577,.F.);
#741=ORIENTED_EDGE('',*,*,#576,.T.);
#742=ORIENTED_EDGE('',*,*,#578,.F.);
#743=ORIENTED_EDGE('',*,*,#579,.F.);
#744=ORIENTED_EDGE('',*,*,#580,.F.);
#745=ORIENTED_EDGE('',*,*,#579,.T.);
#746=ORIENTED_EDGE('',*,*,#581,.F.);
#747=ORIENTED_EDGE('',*,*,#582,.F.);
#748=ORIENTED_EDGE('',*,*,#583,.T.);
#749=ORIENTED_EDGE('',*,*,#582,.T.);
#750=ORIENTED_EDGE('',*,*,#584,.F.);
#751=ORIENTED_EDGE('',*,*,#585,.F.);
#752=ORIENTED_EDGE('',*,*,#586,.F.);
#753=ORIENTED_EDGE('',*,*,#585,.T.);
#754=ORIENTED_EDGE('',*,*,#587,.F.);
#755=ORIENTED_EDGE('',*,*,#588,.F.);
#756=ORIENTED_EDGE('',*,*,#589,.T.);
#757=ORIENTED_EDGE('',*,*,#588,.T.);
#758=ORIENTED_EDGE('',*,*,#590,.F.);
#759=ORIENTED_EDGE('',*,*,#591,.F.);
#760=ORIENTED_EDGE('',*,*,#592,.T.);
#761=ORIENTED_EDGE('',*,*,#591,.T.);
#762=ORIENTED_EDGE('',*,*,#593,.F.);
#763=ORIENTED_EDGE('',*,*,#594,.F.);
#764=ORIENTED_EDGE('',*,*,#595,.T.);
#765=ORIENTED_EDGE('',*,*,#594,.T.);
#766=ORIENTED_EDGE('',*,*,#596,.F.);
#767=ORIENTED_EDGE('',*,*,#597,.F.);
#768=ORIENTED_EDGE('',*,*,#598,.T.);
#769=ORIENTED_EDGE('',*,*,#597,.T.);
#770=ORIENTED_EDGE('',*,*,#599,.F.);
#771=ORIENTED_EDGE('',*,*,#600,.F.);
#772=ORIENTED_EDGE('',*,*,#601,.F.);
#773=ORIENTED_EDGE('',*,*,#600,.T.);
#774=ORIENTED_EDGE('',*,*,#602,.F.);
#775=ORIENTED_EDGE('',*,*,#603,.F.);
#776=ORIENTED_EDGE('',*,*,#604,.F.);
#777=ORIENTED_EDGE('',*,*,#603,.T.);
#778=ORIENTED_EDGE('',*,*,#605,.F.);
#779=ORIENTED_EDGE('',*,*,#606,.F.);
#780=ORIENTED_EDGE('',*,*,#607,.T.);
#781=ORIENTED_EDGE('',*,*,#606,.T.);
#782=ORIENTED_EDGE('',*,*,#608,.F.);
#783=ORIENTED_EDGE('',*,*,#609,.F.);
#784=ORIENTED_EDGE('',*,*,#610,.T.);
#785=ORIENTED_EDGE('',*,*,#609,.T.);
#786=ORIENTED_EDGE('',*,*,#611,.F.);
#787=ORIENTED_EDGE('',*,*,#612,.F.);
#788=ORIENTED_EDGE('',*,*,#613,.F.);
#789=ORIENTED_EDGE('',*,*,#612,.T.);
#790=ORIENTED_EDGE('',*,*,#614,.F.);
#791=ORIENTED_EDGE('',*,*,#615,.F.);
#792=ORIENTED_EDGE('',*,*,#616,.F.);
#793=ORIENTED_EDGE('',*,*,#615,.T.);
#794=ORIENTED_EDGE('',*,*,#617,.F.);
#795=ORIENTED_EDGE('',*,*,#618,.F.);
#796=ORIENTED_EDGE('',*,*,#619,.T.);
#797=ORIENTED_EDGE('',*,*,#618,.T.);
#798=ORIENTED_EDGE('',*,*,#620,.F.);
#799=ORIENTED_EDGE('',*,*,#621,.F.);
#800=ORIENTED_EDGE('',*,*,#622,.F.);
#801=ORIENTED_EDGE('',*,*,#621,.T.);
#802=ORIENTED_EDGE('',*,*,#623,.F.);
#803=ORIENTED_EDGE('',*,*,#624,.F.);
#804=ORIENTED_EDGE('',*,*,#625,.T.);
#805=ORIENTED_EDGE('',*,*,#624,.T.);
#806=ORIENTED_EDGE('',*,*,#626,.F.);
#807=ORIENTED_EDGE('',*,*,#627,.F.);
#808=ORIENTED_EDGE('',*,*,#628,.T.);
#809=ORIENTED_EDGE('',*,*,#627,.T.);
#810=ORIENTED_EDGE('',*,*,#629,.F.);
#811=ORIENTED_EDGE('',*,*,#630,.F.);
#812=ORIENTED_EDGE('',*,*,#631,.T.);
#813=ORIENTED_EDGE('',*,*,#630,.T.);
#814=ORIENTED_EDGE('',*,*,#632,.F.);
#815=ORIENTED_EDGE('',*,*,#633,.F.);
#816=ORIENTED_EDGE('',*,*,#634,.T.);
#817=ORIENTED_EDGE('',*,*,#633,.T.);
#818=ORIENTED_EDGE('',*,*,#635,.F.);
#819=ORIENTED_EDGE('',*,*,#636,.F.);
#820=ORIENTED_EDGE('',*,*,#637,.F.);
#821=ORIENTED_EDGE('',*,*,#636,.T.);
#822=ORIENTED_EDGE('',*,*,#638,.F.);
#823=ORIENTED_EDGE('',*,*,#639,.F.);
#824=ORIENTED_EDGE('',*,*,#640,.F.);
#825=ORIENTED_EDGE('',*,*,#639,.T.);
#826=ORIENTED_EDGE('',*,*,#641,.F.);
#827=ORIENTED_EDGE('',*,*,#642,.F.);
#828=ORIENTED_EDGE('',*,*,#643,.T.);
#829=ORIENTED_EDGE('',*,*,#642,.T.);
#830=ORIENTED_EDGE('',*,*,#644,.F.);
#831=ORIENTED_EDGE('',*,*,#645,.F.);
#832=ORIENTED_EDGE('',*,*,#646,.T.);
#833=ORIENTED_EDGE('',*,*,#645,.T.);
#834=ORIENTED_EDGE('',*,*,#647,.F.);
#835=ORIENTED_EDGE('',*,*,#648,.F.);
#836=ORIENTED_EDGE('',*,*,#649,.F.);
#837=ORIENTED_EDGE('',*,*,#648,.T.);
#838=ORIENTED_EDGE('',*,*,#650,.F.);
#839=ORIENTED_EDGE('',*,*,#651,.F.);
#840=ORIENTED_EDGE('',*,*,#652,.F.);
#841=ORIENTED_EDGE('',*,*,#651,.T.);
#842=ORIENTED_EDGE('',*,*,#653,.F.);
#843=ORIENTED_EDGE('',*,*,#654,.F.);
#844=ORIENTED_EDGE('',*,*,#655,.T.);
#845=ORIENTED_EDGE('',*,*,#654,.T.);
#846=ORIENTED_EDGE('',*,*,#656,.F.);
#847=ORIENTED_EDGE('',*,*,#657,.F.);
#848=ORIENTED_EDGE('',*,*,#658,.F.);
#849=ORIENTED_EDGE('',*,*,#657,.T.);
#850=ORIENTED_EDGE('',*,*,#659,.F.);
#851=ORIENTED_EDGE('',*,*,#660,.F.);
#852=ORIENTED_EDGE('',*,*,#661,.T.);
#853=ORIENTED_EDGE('',*,*,#660,.T.);
#854=ORIENTED_EDGE('',*,*,#662,.F.);
#855=ORIENTED_EDGE('',*,*,#663,.F.);
#856=ORIENTED_EDGE('',*,*,#664,.T.);
#857=ORIENTED_EDGE('',*,*,#663,.T.);
#858=ORIENTED_EDGE('',*,*,#665,.F.);
#859=ORIENTED_EDGE('',*,*,#666,.F.);
#860=ORIENTED_EDGE('',*,*,#667,.T.);
#861=ORIENTED_EDGE('',*,*,#666,.T.);
#862=ORIENTED_EDGE('',*,*,#668,.F.);
#863=ORIENTED_EDGE('',*,*,#669,.F.);
#864=ORIENTED_EDGE('',*,*,#670,.T.);
#865=ORIENTED_EDGE('',*,*,#669,.T.);
#866=ORIENTED_EDGE('',*,*,#671,.F.);
#867=ORIENTED_EDGE('',*,*,#529,.F.);
#868=ORIENTED_EDGE('',*,*,#671,.T.);
#869=ORIENTED_EDGE('',*,*,#668,.T.);
#870=ORIENTED_EDGE('',*,*,#665,.T.);
#871=ORIENTED_EDGE('',*,*,#662,.T.);
#872=ORIENTED_EDGE('',*,*,#659,.T.);
#873=ORIENTED_EDGE('',*,*,#656,.T.);
#874=ORIENTED_EDGE('',*,*,#653,.T.);
#875=ORIENTED_EDGE('',*,*,#650,.T.);
#876=ORIENTED_EDGE('',*,*,#647,.T.);
#877=ORIENTED_EDGE('',*,*,#644,.T.);
#878=ORIENTED_EDGE('',*,*,#641,.T.);
#879=ORIENTED_EDGE('',*,*,#638,.T.);
#880=ORIENTED_EDGE('',*,*,#635,.T.);
#881=ORIENTED_EDGE('',*,*,#632,.T.);
#882=ORIENTED_EDGE('',*,*,#629,.T.);
#883=ORIENTED_EDGE('',*,*,#626,.T.);
#884=ORIENTED_EDGE('',*,*,#623,.T.);
#885=ORIENTED_EDGE('',*,*,#620,.T.);
#886=ORIENTED_EDGE('',*,*,#617,.T.);
#887=ORIENTED_EDGE('',*,*,#614,.T.);
#888=ORIENTED_EDGE('',*,*,#611,.T.);
#889=ORIENTED_EDGE('',*,*,#608,.T.);
#890=ORIENTED_EDGE('',*,*,#605,.T.);
#891=ORIENTED_EDGE('',*,*,#602,.T.);
#892=ORIENTED_EDGE('',*,*,#599,.T.);
#893=ORIENTED_EDGE('',*,*,#596,.T.);
#894=ORIENTED_EDGE('',*,*,#593,.T.);
#895=ORIENTED_EDGE('',*,*,#590,.T.);
#896=ORIENTED_EDGE('',*,*,#587,.T.);
#897=ORIENTED_EDGE('',*,*,#584,.T.);
#898=ORIENTED_EDGE('',*,*,#581,.T.);
#899=ORIENTED_EDGE('',*,*,#578,.T.);
#900=ORIENTED_EDGE('',*,*,#575,.T.);
#901=ORIENTED_EDGE('',*,*,#572,.T.);
#902=ORIENTED_EDGE('',*,*,#569,.T.);
#903=ORIENTED_EDGE('',*,*,#566,.T.);
#904=ORIENTED_EDGE('',*,*,#563,.T.);
#905=ORIENTED_EDGE('',*,*,#560,.T.);
#906=ORIENTED_EDGE('',*,*,#557,.T.);
#907=ORIENTED_EDGE('',*,*,#554,.T.);
#908=ORIENTED_EDGE('',*,*,#551,.T.);
#909=ORIENTED_EDGE('',*,*,#548,.T.);
#910=ORIENTED_EDGE('',*,*,#545,.T.);
#911=ORIENTED_EDGE('',*,*,#542,.T.);
#912=ORIENTED_EDGE('',*,*,#539,.T.);
#913=ORIENTED_EDGE('',*,*,#536,.T.);
#914=ORIENTED_EDGE('',*,*,#533,.T.);
#915=ORIENTED_EDGE('',*,*,#530,.T.);
#916=ORIENTED_EDGE('',*,*,#525,.T.);
#917=ORIENTED_EDGE('',*,*,#670,.F.);
#918=ORIENTED_EDGE('',*,*,#528,.T.);
#919=ORIENTED_EDGE('',*,*,#532,.T.);
#920=ORIENTED_EDGE('',*,*,#535,.F.);
#921=ORIENTED_EDGE('',*,*,#538,.F.);
#922=ORIENTED_EDGE('',*,*,#541,.T.);
#923=ORIENTED_EDGE('',*,*,#544,.T.);
#924=ORIENTED_EDGE('',*,*,#547,.F.);
#925=ORIENTED_EDGE('',*,*,#550,.T.);
#926=ORIENTED_EDGE('',*,*,#553,.F.);
#927=ORIENTED_EDGE('',*,*,#556,.F.);
#928=ORIENTED_EDGE('',*,*,#559,.F.);
#929=ORIENTED_EDGE('',*,*,#562,.F.);
#930=ORIENTED_EDGE('',*,*,#565,.T.);
#931=ORIENTED_EDGE('',*,*,#568,.T.);
#932=ORIENTED_EDGE('',*,*,#571,.F.);
#933=ORIENTED_EDGE('',*,*,#574,.F.);
#934=ORIENTED_EDGE('',*,*,#577,.T.);
#935=ORIENTED_EDGE('',*,*,#580,.T.);
#936=ORIENTED_EDGE('',*,*,#583,.F.);
#937=ORIENTED_EDGE('',*,*,#586,.T.);
#938=ORIENTED_EDGE('',*,*,#589,.F.);
#939=ORIENTED_EDGE('',*,*,#592,.F.);
#940=ORIENTED_EDGE('',*,*,#595,.F.);
#941=ORIENTED_EDGE('',*,*,#598,.F.);
#942=ORIENTED_EDGE('',*,*,#601,.T.);
#943=ORIENTED_EDGE('',*,*,#604,.T.);
#944=ORIENTED_EDGE('',*,*,#607,.F.);
#945=ORIENTED_EDGE('',*,*,#610,.F.);
#946=ORIENTED_EDGE('',*,*,#613,.T.);
#947=ORIENTED_EDGE('',*,*,#616,.T.);
#948=ORIENTED_EDGE('',*,*,#619,.F.);
#949=ORIENTED_EDGE('',*,*,#622,.T.);
#950=ORIENTED_EDGE('',*,*,#625,.F.);
#951=ORIENTED_EDGE('',*,*,#628,.F.);
#952=ORIENTED_EDGE('',*,*,#631,.F.);
#953=ORIENTED_EDGE('',*,*,#634,.F.);
#954=ORIENTED_EDGE('',*,*,#637,.T.);
#955=ORIENTED_EDGE('',*,*,#640,.T.);
#956=ORIENTED_EDGE('',*,*,#643,.F.);
#957=ORIENTED_EDGE('',*,*,#646,.F.);
#958=ORIENTED_EDGE('',*,*,#649,.T.);
#959=ORIENTED_EDGE('',*,*,#652,.T.);
#960=ORIENTED_EDGE('',*,*,#655,.F.);
#961=ORIENTED_EDGE('',*,*,#658,.T.);
#962=ORIENTED_EDGE('',*,*,#661,.F.);
#963=ORIENTED_EDGE('',*,*,#664,.F.);
#964=ORIENTED_EDGE('',*,*,#667,.F.);
#965=ORIENTED_EDGE('',*,*,#527,.F.);
#966=CYLINDRICAL_SURFACE('',#1044,2.);
#967=CYLINDRICAL_SURFACE('',#1048,0.500000000000002);
#968=CYLINDRICAL_SURFACE('',#1054,0.5);
#969=CYLINDRICAL_SURFACE('',#1060,1.);
#970=CYLINDRICAL_SURFACE('',#1066,0.5);
#971=CYLINDRICAL_SURFACE('',#1072,0.499999999999999);
#972=CYLINDRICAL_SURFACE('',#1078,1.);
#973=CYLINDRICAL_SURFACE('',#1084,0.5);
#974=CYLINDRICAL_SURFACE('',#1090,0.500000000000002);
#975=CYLINDRICAL_SURFACE('',#1096,1.);
#976=CYLINDRICAL_SURFACE('',#1102,0.500000000000002);
#977=CYLINDRICAL_SURFACE('',#1108,0.499999999999999);
#978=CYLINDRICAL_SURFACE('',#1114,1.);
#979=ADVANCED_FACE('',(#55),#966,.F.);
#980=ADVANCED_FACE('',(#56),#17,.T.);
#981=ADVANCED_FACE('',(#57),#967,.F.);
#982=ADVANCED_FACE('',(#58),#18,.T.);
#983=ADVANCED_FACE('',(#59),#19,.T.);
#984=ADVANCED_FACE('',(#60),#20,.T.);
#985=ADVANCED_FACE('',(#61),#968,.F.);
#986=ADVANCED_FACE('',(#62),#21,.T.);
#987=ADVANCED_FACE('',(#63),#22,.T.);
#988=ADVANCED_FACE('',(#64),#23,.T.);
#989=ADVANCED_FACE('',(#65),#969,.T.);
#990=ADVANCED_FACE('',(#66),#24,.T.);
#991=ADVANCED_FACE('',(#67),#25,.T.);
#992=ADVANCED_FACE('',(#68),#26,.T.);
#993=ADVANCED_FACE('',(#69),#970,.F.);
#994=ADVANCED_FACE('',(#70),#27,.T.);
#995=ADVANCED_FACE('',(#71),#28,.T.);
#996=ADVANCED_FACE('',(#72),#29,.T.);
#997=ADVANCED_FACE('',(#73),#971,.F.);
#998=ADVANCED_FACE('',(#74),#30,.T.);
#999=ADVANCED_FACE('',(#75),#31,.T.);
#1000=ADVANCED_FACE('',(#76),#32,.T.);
#1001=ADVANCED_FACE('',(#77),#972,.T.);
#1002=ADVANCED_FACE('',(#78),#33,.T.);
#1003=ADVANCED_FACE('',(#79),#34,.T.);
#1004=ADVANCED_FACE('',(#80),#35,.T.);
#1005=ADVANCED_FACE('',(#81),#973,.F.);
#1006=ADVANCED_FACE('',(#82),#36,.T.);
#1007=ADVANCED_FACE('',(#83),#37,.T.);
#1008=ADVANCED_FACE('',(#84),#38,.T.);
#1009=ADVANCED_FACE('',(#85),#974,.F.);
#1010=ADVANCED_FACE('',(#86),#39,.T.);
#1011=ADVANCED_FACE('',(#87),#40,.T.);
#1012=ADVANCED_FACE('',(#88),#41,.T.);
#1013=ADVANCED_FACE('',(#89),#975,.T.);
#1014=ADVANCED_FACE('',(#90),#42,.T.);
#1015=ADVANCED_FACE('',(#91),#43,.T.);
#1016=ADVANCED_FACE('',(#92),#44,.T.);
#1017=ADVANCED_FACE('',(#93),#976,.F.);
#1018=ADVANCED_FACE('',(#94),#45,.T.);
#1019=ADVANCED_FACE('',(#95),#46,.T.);
#1020=ADVANCED_FACE('',(#96),#47,.T.);
#1021=ADVANCED_FACE('',(#97),#977,.F.);
#1022=ADVANCED_FACE('',(#98),#48,.T.);
#1023=ADVANCED_FACE('',(#99),#49,.T.);
#1024=ADVANCED_FACE('',(#100),#50,.T.);
#1025=ADVANCED_FACE('',(#101),#978,.T.);
#1026=ADVANCED_FACE('',(#102),#51,.T.);
#1027=ADVANCED_FACE('',(#103),#52,.T.);
#1028=ADVANCED_FACE('',(#104,#15),#53,.T.);
#1029=ADVANCED_FACE('',(#105,#16),#54,.F.);
#1030=CLOSED_SHELL('',(#979,#980,#981,#982,#983,#984,#985,#986,#987,#988,
#989,#990,#991,#992,#993,#994,#995,#996,#997,#998,#999,#1000,#1001,#1002,
#1003,#1004,#1005,#1006,#1007,#1008,#1009,#1010,#1011,#1012,#1013,#1014,
#1015,#1016,#1017,#1018,#1019,#1020,#1021,#1022,#1023,#1024,#1025,#1026,
#1027,#1028,#1029));
#1031=DERIVED_UNIT_ELEMENT(#1033,1.);
#1032=DERIVED_UNIT_ELEMENT(#1700,-3.);
#1033=(
MASS_UNIT()
NAMED_UNIT(*)
SI_UNIT(.KILO.,.GRAM.)
);
#1034=DERIVED_UNIT((#1031,#1032));
#1035=MEASURE_REPRESENTATION_ITEM('density measure',
POSITIVE_RATIO_MEASURE(2700.),#1034);
#1036=PROPERTY_DEFINITION_REPRESENTATION(#1041,#1038);
#1037=PROPERTY_DEFINITION_REPRESENTATION(#1042,#1039);
#1038=REPRESENTATION('material name',(#1040),#1697);
#1039=REPRESENTATION('density',(#1035),#1697);
#1040=DESCRIPTIVE_REPRESENTATION_ITEM('Aluminum 6061(1)',
'Aluminum 6061(1)');
#1041=PROPERTY_DEFINITION('material property','material name',#1707);
#1042=PROPERTY_DEFINITION('material property','density of part',#1707);
#1043=AXIS2_PLACEMENT_3D('',#1398,#1121,#1122);
#1044=AXIS2_PLACEMENT_3D('',#1399,#1123,#1124);
#1045=AXIS2_PLACEMENT_3D('',#1401,#1125,#1126);
#1046=AXIS2_PLACEMENT_3D('',#1404,#1128,#1129);
#1047=AXIS2_PLACEMENT_3D('',#1405,#1130,#1131);
#1048=AXIS2_PLACEMENT_3D('',#1414,#1136,#1137);
#1049=AXIS2_PLACEMENT_3D('',#1416,#1138,#1139);
#1050=AXIS2_PLACEMENT_3D('',#1418,#1140,#1141);
#1051=AXIS2_PLACEMENT_3D('',#1420,#1143,#1144);
#1052=AXIS2_PLACEMENT_3D('',#1426,#1148,#1149);
#1053=AXIS2_PLACEMENT_3D('',#1432,#1153,#1154);
#1054=AXIS2_PLACEMENT_3D('',#1438,#1158,#1159);
#1055=AXIS2_PLACEMENT_3D('',#1440,#1160,#1161);
#1056=AXIS2_PLACEMENT_3D('',#1442,#1162,#1163);
#1057=AXIS2_PLACEMENT_3D('',#1444,#1165,#1166);
#1058=AXIS2_PLACEMENT_3D('',#1450,#1170,#1171);
#1059=AXIS2_PLACEMENT_3D('',#1456,#1175,#1176);
#1060=AXIS2_PLACEMENT_3D('',#1462,#1180,#1181);
#1061=AXIS2_PLACEMENT_3D('',#1464,#1182,#1183);
#1062=AXIS2_PLACEMENT_3D('',#1466,#1184,#1185);
#1063=AXIS2_PLACEMENT_3D('',#1468,#1187,#1188);
#1064=AXIS2_PLACEMENT_3D('',#1474,#1192,#1193);
#1065=AXIS2_PLACEMENT_3D('',#1480,#1197,#1198);
#1066=AXIS2_PLACEMENT_3D('',#1486,#1202,#1203);
#1067=AXIS2_PLACEMENT_3D('',#1488,#1204,#1205);
#1068=AXIS2_PLACEMENT_3D('',#1490,#1206,#1207);
#1069=AXIS2_PLACEMENT_3D('',#1492,#1209,#1210);
#1070=AXIS2_PLACEMENT_3D('',#1498,#1214,#1215);
#1071=AXIS2_PLACEMENT_3D('',#1504,#1219,#1220);
#1072=AXIS2_PLACEMENT_3D('',#1510,#1224,#1225);
#1073=AXIS2_PLACEMENT_3D('',#1512,#1226,#1227);
#1074=AXIS2_PLACEMENT_3D('',#1514,#1228,#1229);
#1075=AXIS2_PLACEMENT_3D('',#1516,#1231,#1232);
#1076=AXIS2_PLACEMENT_3D('',#1522,#1236,#1237);
#1077=AXIS2_PLACEMENT_3D('',#1528,#1241,#1242);
#1078=AXIS2_PLACEMENT_3D('',#1534,#1246,#1247);
#1079=AXIS2_PLACEMENT_3D('',#1536,#1248,#1249);
#1080=AXIS2_PLACEMENT_3D('',#1538,#1250,#1251);
#1081=AXIS2_PLACEMENT_3D('',#1540,#1253,#1254);
#1082=AXIS2_PLACEMENT_3D('',#1546,#1258,#1259);
#1083=AXIS2_PLACEMENT_3D('',#1552,#1263,#1264);
#1084=AXIS2_PLACEMENT_3D('',#1558,#1268,#1269);
#1085=AXIS2_PLACEMENT_3D('',#1560,#1270,#1271);
#1086=AXIS2_PLACEMENT_3D('',#1562,#1272,#1273);
#1087=AXIS2_PLACEMENT_3D('',#1564,#1275,#1276);
#1088=AXIS2_PLACEMENT_3D('',#1570,#1280,#1281);
#1089=AXIS2_PLACEMENT_3D('',#1576,#1285,#1286);
#1090=AXIS2_PLACEMENT_3D('',#1582,#1290,#1291);
#1091=AXIS2_PLACEMENT_3D('',#1584,#1292,#1293);
#1092=AXIS2_PLACEMENT_3D('',#1586,#1294,#1295);
#1093=AXIS2_PLACEMENT_3D('',#1588,#1297,#1298);
#1094=AXIS2_PLACEMENT_3D('',#1594,#1302,#1303);
#1095=AXIS2_PLACEMENT_3D('',#1600,#1307,#1308);
#1096=AXIS2_PLACEMENT_3D('',#1606,#1312,#1313);
#1097=AXIS2_PLACEMENT_3D('',#1608,#1314,#1315);
#1098=AXIS2_PLACEMENT_3D('',#1610,#1316,#1317);
#1099=AXIS2_PLACEMENT_3D('',#1612,#1319,#1320);
#1100=AXIS2_PLACEMENT_3D('',#1618,#1324,#1325);
#1101=AXIS2_PLACEMENT_3D('',#1624,#1329,#1330);
#1102=AXIS2_PLACEMENT_3D('',#1630,#1334,#1335);
#1103=AXIS2_PLACEMENT_3D('',#1632,#1336,#1337);
#1104=AXIS2_PLACEMENT_3D('',#1634,#1338,#1339);
#1105=AXIS2_PLACEMENT_3D('',#1636,#1341,#1342);
#1106=AXIS2_PLACEMENT_3D('',#1642,#1346,#1347);
#1107=AXIS2_PLACEMENT_3D('',#1648,#1351,#1352);
#1108=AXIS2_PLACEMENT_3D('',#1654,#1356,#1357);
#1109=AXIS2_PLACEMENT_3D('',#1656,#1358,#1359);
#1110=AXIS2_PLACEMENT_3D('',#1658,#1360,#1361);
#1111=AXIS2_PLACEMENT_3D('',#1660,#1363,#1364);
#1112=AXIS2_PLACEMENT_3D('',#1666,#1368,#1369);
#1113=AXIS2_PLACEMENT_3D('',#1672,#1373,#1374);
#1114=AXIS2_PLACEMENT_3D('',#1678,#1378,#1379);
#1115=AXIS2_PLACEMENT_3D('',#1680,#1380,#1381);
#1116=AXIS2_PLACEMENT_3D('',#1682,#1382,#1383);
#1117=AXIS2_PLACEMENT_3D('',#1684,#1385,#1386);
#1118=AXIS2_PLACEMENT_3D('',#1690,#1390,#1391);
#1119=AXIS2_PLACEMENT_3D('',#1693,#1394,#1395);
#1120=AXIS2_PLACEMENT_3D('',#1694,#1396,#1397);
#1121=DIRECTION('axis',(0.,0.,1.));
#1122=DIRECTION('refdir',(1.,0.,0.));
#1123=DIRECTION('center_axis',(0.,0.,1.));
#1124=DIRECTION('ref_axis',(1.,0.,0.));
#1125=DIRECTION('center_axis',(0.,0.,-1.));
#1126=DIRECTION('ref_axis',(1.,0.,0.));
#1127=DIRECTION('',(0.,0.,-1.));
#1128=DIRECTION('center_axis',(0.,0.,-1.));
#1129=DIRECTION('ref_axis',(1.,0.,0.));
#1130=DIRECTION('center_axis',(1.,0.,0.));
#1131=DIRECTION('ref_axis',(0.,1.,0.));
#1132=DIRECTION('',(0.,-1.,0.));
#1133=DIRECTION('',(0.,0.,1.));
#1134=DIRECTION('',(0.,1.,0.));
#1135=DIRECTION('',(0.,0.,1.));
#1136=DIRECTION('center_axis',(0.,0.,1.));
#1137=DIRECTION('ref_axis',(-1.,0.,0.));
#1138=DIRECTION('center_axis',(0.,0.,1.));
#1139=DIRECTION('ref_axis',(-1.,0.,0.));
#1140=DIRECTION('center_axis',(0.,0.,-1.));
#1141=DIRECTION('ref_axis',(-1.,0.,0.));
#1142=DIRECTION('',(0.,0.,1.));
#1143=DIRECTION('center_axis',(-0.707106810993916,0.707106751379178,0.));
#1144=DIRECTION('ref_axis',(-0.707106751379177,-0.707106810993916,0.));
#1145=DIRECTION('',(-0.707106751379177,-0.707106810993916,0.));
#1146=DIRECTION('',(-0.707106751379177,-0.707106810993916,0.));
#1147=DIRECTION('',(0.,0.,1.));
#1148=DIRECTION('center_axis',(-1.,0.,0.));
#1149=DIRECTION('ref_axis',(0.,-1.,0.));
#1150=DIRECTION('',(0.,-1.,0.));
#1151=DIRECTION('',(0.,-1.,0.));
#1152=DIRECTION('',(0.,0.,1.));
#1153=DIRECTION('center_axis',(-0.707106810993917,-0.707106751379177,0.));
#1154=DIRECTION('ref_axis',(0.707106751379177,-0.707106810993917,0.));
#1155=DIRECTION('',(-0.707106751379177,0.707106810993917,0.));
#1156=DIRECTION('',(0.707106751379177,-0.707106810993917,0.));
#1157=DIRECTION('',(0.,0.,1.));
#1158=DIRECTION('center_axis',(0.,0.,1.));
#1159=DIRECTION('ref_axis',(0.707106810993916,0.707106751379178,0.));
#1160=DIRECTION('center_axis',(0.,0.,1.));
#1161=DIRECTION('ref_axis',(0.707106810993916,0.707106751379178,0.));
#1162=DIRECTION('center_axis',(0.,0.,-1.));
#1163=DIRECTION('ref_axis',(0.707106810993916,0.707106751379178,0.));
#1164=DIRECTION('',(0.,0.,1.));
#1165=DIRECTION('center_axis',(1.,-3.97517138033384E-16,0.));
#1166=DIRECTION('ref_axis',(3.97517138033384E-16,1.,0.));
#1167=DIRECTION('',(3.97517138033384E-16,1.,0.));
#1168=DIRECTION('',(3.97517138033384E-16,1.,0.));
#1169=DIRECTION('',(0.,0.,1.));
#1170=DIRECTION('center_axis',(0.,-1.,0.));
#1171=DIRECTION('ref_axis',(1.,0.,0.));
#1172=DIRECTION('',(-1.,0.,0.));
#1173=DIRECTION('',(1.,0.,0.));
#1174=DIRECTION('',(0.,0.,1.));
#1175=DIRECTION('center_axis',(-1.,0.,0.));
#1176=DIRECTION('ref_axis',(0.,-1.,0.));
#1177=DIRECTION('',(0.,-1.,0.));
#1178=DIRECTION('',(0.,-1.,0.));
#1179=DIRECTION('',(0.,0.,1.));
#1180=DIRECTION('center_axis',(0.,0.,1.));
#1181=DIRECTION('ref_axis',(0.,1.,0.));
#1182=DIRECTION('center_axis',(0.,0.,1.));
#1183=DIRECTION('ref_axis',(0.,1.,0.));
#1184=DIRECTION('center_axis',(0.,0.,1.));
#1185=DIRECTION('ref_axis',(0.,1.,0.));
#1186=DIRECTION('',(0.,0.,1.));
#1187=DIRECTION('center_axis',(0.,1.,0.));
#1188=DIRECTION('ref_axis',(-1.,0.,0.));
#1189=DIRECTION('',(-1.,0.,0.));
#1190=DIRECTION('',(-1.,0.,0.));
#1191=DIRECTION('',(0.,0.,1.));
#1192=DIRECTION('center_axis',(1.,0.,0.));
#1193=DIRECTION('ref_axis',(0.,1.,0.));
#1194=DIRECTION('',(0.,1.,0.));
#1195=DIRECTION('',(0.,1.,0.));
#1196=DIRECTION('',(0.,0.,1.));
#1197=DIRECTION('center_axis',(-3.97517138033384E-16,-1.,0.));
#1198=DIRECTION('ref_axis',(1.,-3.97517138033384E-16,0.));
#1199=DIRECTION('',(-1.,3.97517138033384E-16,0.));
#1200=DIRECTION('',(1.,-3.97517138033384E-16,0.));
#1201=DIRECTION('',(0.,0.,1.));
#1202=DIRECTION('center_axis',(0.,0.,1.));
#1203=DIRECTION('ref_axis',(0.,1.,0.));
#1204=DIRECTION('center_axis',(0.,0.,1.));
#1205=DIRECTION('ref_axis',(0.,1.,0.));
#1206=DIRECTION('center_axis',(0.,0.,-1.));
#1207=DIRECTION('ref_axis',(0.,1.,0.));
#1208=DIRECTION('',(0.,0.,1.));
#1209=DIRECTION('center_axis',(0.707106751379177,0.707106810993916,0.));
#1210=DIRECTION('ref_axis',(-0.707106810993916,0.707106751379177,0.));
#1211=DIRECTION('',(-0.707106810993916,0.707106751379177,0.));
#1212=DIRECTION('',(-0.707106810993916,0.707106751379177,0.));
#1213=DIRECTION('',(0.,0.,1.));
#1214=DIRECTION('center_axis',(-9.61365234731387E-9,1.,0.));
#1215=DIRECTION('ref_axis',(-1.,-9.61365234731387E-9,0.));
#1216=DIRECTION('',(-1.,-9.61365234731387E-9,0.));
#1217=DIRECTION('',(-1.,-9.61365234731387E-9,0.));
#1218=DIRECTION('',(0.,0.,1.));
#1219=DIRECTION('center_axis',(-0.707106751379178,0.707106810993916,0.));
#1220=DIRECTION('ref_axis',(-0.707106810993916,-0.707106751379178,0.));
#1221=DIRECTION('',(0.707106810993916,0.707106751379178,0.));
#1222=DIRECTION('',(-0.707106810993916,-0.707106751379178,0.));
#1223=DIRECTION('',(0.,0.,1.));
#1224=DIRECTION('center_axis',(0.,0.,1.));
#1225=DIRECTION('ref_axis',(0.707106751379179,-0.707106810993915,0.));
#1226=DIRECTION('center_axis',(0.,0.,1.));
#1227=DIRECTION('ref_axis',(0.707106751379179,-0.707106810993915,0.));
#1228=DIRECTION('center_axis',(0.,0.,-1.));
#1229=DIRECTION('ref_axis',(0.707106751379179,-0.707106810993915,0.));
#1230=DIRECTION('',(0.,0.,1.));
#1231=DIRECTION('center_axis',(0.,-1.,0.));
#1232=DIRECTION('ref_axis',(1.,0.,0.));
#1233=DIRECTION('',(1.,0.,0.));
#1234=DIRECTION('',(1.,0.,0.));
#1235=DIRECTION('',(0.,0.,1.));
#1236=DIRECTION('center_axis',(-1.,0.,0.));
#1237=DIRECTION('ref_axis',(0.,-1.,0.));
#1238=DIRECTION('',(0.,1.,0.));
#1239=DIRECTION('',(0.,-1.,0.));
#1240=DIRECTION('',(0.,0.,1.));
#1241=DIRECTION('center_axis',(0.,1.,0.));
#1242=DIRECTION('ref_axis',(-1.,0.,0.));
#1243=DIRECTION('',(-1.,0.,0.));
#1244=DIRECTION('',(-1.,0.,0.));
#1245=DIRECTION('',(0.,0.,1.));
#1246=DIRECTION('center_axis',(0.,0.,1.));
#1247=DIRECTION('ref_axis',(1.,0.,0.));
#1248=DIRECTION('center_axis',(0.,0.,1.));
#1249=DIRECTION('ref_axis',(1.,0.,0.));
#1250=DIRECTION('center_axis',(0.,0.,1.));
#1251=DIRECTION('ref_axis',(1.,0.,0.));
#1252=DIRECTION('',(0.,0.,1.));
#1253=DIRECTION('center_axis',(1.,0.,0.));
#1254=DIRECTION('ref_axis',(0.,1.,0.));
#1255=DIRECTION('',(0.,1.,0.));
#1256=DIRECTION('',(0.,1.,0.));
#1257=DIRECTION('',(0.,0.,1.));
#1258=DIRECTION('center_axis',(0.,-1.,0.));
#1259=DIRECTION('ref_axis',(1.,0.,0.));
#1260=DIRECTION('',(1.,0.,0.));
#1261=DIRECTION('',(1.,0.,0.));
#1262=DIRECTION('',(0.,0.,1.));
#1263=DIRECTION('center_axis',(-1.,-3.97517138033384E-16,0.));
#1264=DIRECTION('ref_axis',(3.97517138033384E-16,-1.,0.));
#1265=DIRECTION('',(-3.97517138033384E-16,1.,0.));
#1266=DIRECTION('',(3.97517138033384E-16,-1.,0.));
#1267=DIRECTION('',(0.,0.,1.));
#1268=DIRECTION('center_axis',(0.,0.,1.));
#1269=DIRECTION('ref_axis',(1.,0.,0.));
#1270=DIRECTION('center_axis',(0.,0.,1.));
#1271=DIRECTION('ref_axis',(1.,0.,0.));
#1272=DIRECTION('center_axis',(0.,0.,-1.));
#1273=DIRECTION('ref_axis',(1.,0.,0.));
#1274=DIRECTION('',(0.,0.,1.));
#1275=DIRECTION('center_axis',(0.707106810993917,-0.707106751379177,0.));
#1276=DIRECTION('ref_axis',(0.707106751379177,0.707106810993917,0.));
#1277=DIRECTION('',(0.707106751379177,0.707106810993917,0.));
#1278=DIRECTION('',(0.707106751379177,0.707106810993917,0.));
#1279=DIRECTION('',(0.,0.,1.));
#1280=DIRECTION('center_axis',(1.,-9.61365234731387E-9,0.));
#1281=DIRECTION('ref_axis',(9.61365234731387E-9,1.,0.));
#1282=DIRECTION('',(9.61365234731387E-9,1.,0.));
#1283=DIRECTION('',(9.61365234731387E-9,1.,0.));
#1284=DIRECTION('',(0.,0.,1.));
#1285=DIRECTION('center_axis',(0.707106810993916,0.707106751379177,0.));
#1286=DIRECTION('ref_axis',(-0.707106751379177,0.707106810993916,0.));
#1287=DIRECTION('',(0.707106751379177,-0.707106810993916,0.));
#1288=DIRECTION('',(-0.707106751379177,0.707106810993916,0.));
#1289=DIRECTION('',(0.,0.,1.));
#1290=DIRECTION('center_axis',(0.,0.,1.));
#1291=DIRECTION('ref_axis',(-0.707106810993913,-0.70710675137918,0.));
#1292=DIRECTION('center_axis',(0.,0.,1.));
#1293=DIRECTION('ref_axis',(-0.707106810993913,-0.70710675137918,0.));
#1294=DIRECTION('center_axis',(0.,0.,-1.));
#1295=DIRECTION('ref_axis',(-0.707106810993913,-0.70710675137918,0.));
#1296=DIRECTION('',(0.,0.,1.));
#1297=DIRECTION('center_axis',(-1.,3.97517138033384E-16,0.));
#1298=DIRECTION('ref_axis',(-3.97517138033384E-16,-1.,0.));
#1299=DIRECTION('',(-3.97517138033384E-16,-1.,0.));
#1300=DIRECTION('',(-3.97517138033384E-16,-1.,0.));
#1301=DIRECTION('',(0.,0.,1.));
#1302=DIRECTION('center_axis',(0.,1.,0.));
#1303=DIRECTION('ref_axis',(-1.,0.,0.));
#1304=DIRECTION('',(1.,0.,0.));
#1305=DIRECTION('',(-1.,0.,0.));
#1306=DIRECTION('',(0.,0.,1.));
#1307=DIRECTION('center_axis',(1.,0.,0.));
#1308=DIRECTION('ref_axis',(0.,1.,0.));
#1309=DIRECTION('',(0.,1.,0.));
#1310=DIRECTION('',(0.,1.,0.));
#1311=DIRECTION('',(0.,0.,1.));
#1312=DIRECTION('center_axis',(0.,0.,1.));
#1313=DIRECTION('ref_axis',(0.,-1.,0.));
#1314=DIRECTION('center_axis',(0.,0.,1.));
#1315=DIRECTION('ref_axis',(0.,-1.,0.));
#1316=DIRECTION('center_axis',(0.,0.,1.));
#1317=DIRECTION('ref_axis',(0.,-1.,0.));
#1318=DIRECTION('',(0.,0.,1.));
#1319=DIRECTION('center_axis',(0.,-1.,0.));
#1320=DIRECTION('ref_axis',(1.,0.,0.));
#1321=DIRECTION('',(1.,0.,0.));
#1322=DIRECTION('',(1.,0.,0.));
#1323=DIRECTION('',(0.,0.,1.));
#1324=DIRECTION('center_axis',(-1.,0.,0.));
#1325=DIRECTION('ref_axis',(0.,-1.,0.));
#1326=DIRECTION('',(0.,-1.,0.));
#1327=DIRECTION('',(0.,-1.,0.));
#1328=DIRECTION('',(0.,0.,1.));
#1329=DIRECTION('center_axis',(0.,1.,0.));
#1330=DIRECTION('ref_axis',(-1.,0.,0.));
#1331=DIRECTION('',(1.,0.,0.));
#1332=DIRECTION('',(-1.,0.,0.));
#1333=DIRECTION('',(0.,0.,1.));
#1334=DIRECTION('center_axis',(0.,0.,1.));
#1335=DIRECTION('ref_axis',(4.44089209850061E-15,-1.,0.));
#1336=DIRECTION('center_axis',(0.,0.,1.));
#1337=DIRECTION('ref_axis',(4.44089209850061E-15,-1.,0.));
#1338=DIRECTION('center_axis',(0.,0.,-1.));
#1339=DIRECTION('ref_axis',(4.44089209850061E-15,-1.,0.));
#1340=DIRECTION('',(0.,0.,1.));
#1341=DIRECTION('center_axis',(-0.707106751379177,-0.707106810993916,0.));
#1342=DIRECTION('ref_axis',(0.707106810993916,-0.707106751379177,0.));
#1343=DIRECTION('',(0.707106810993916,-0.707106751379177,0.));
#1344=DIRECTION('',(0.707106810993916,-0.707106751379177,0.));
#1345=DIRECTION('',(0.,0.,1.));
#1346=DIRECTION('center_axis',(9.61365234731387E-9,-1.,0.));
#1347=DIRECTION('ref_axis',(1.,9.61365234731387E-9,0.));
#1348=DIRECTION('',(1.,9.61365234731387E-9,0.));
#1349=DIRECTION('',(1.,9.61365234731387E-9,0.));
#1350=DIRECTION('',(0.,0.,1.));
#1351=DIRECTION('center_axis',(0.707106751379178,-0.707106810993916,0.));
#1352=DIRECTION('ref_axis',(0.707106810993916,0.707106751379177,0.));
#1353=DIRECTION('',(-0.707106810993916,-0.707106751379177,0.));
#1354=DIRECTION('',(0.707106810993916,0.707106751379177,0.));
#1355=DIRECTION('',(0.,0.,1.));
#1356=DIRECTION('center_axis',(0.,0.,1.));
#1357=DIRECTION('ref_axis',(-0.707106751379175,0.707106810993919,0.));
#1358=DIRECTION('center_axis',(0.,0.,1.));
#1359=DIRECTION('ref_axis',(-0.707106751379175,0.707106810993919,0.));
#1360=DIRECTION('center_axis',(0.,0.,-1.));
#1361=DIRECTION('ref_axis',(-0.707106751379175,0.707106810993919,0.));
#1362=DIRECTION('',(0.,0.,1.));
#1363=DIRECTION('center_axis',(0.,1.,0.));
#1364=DIRECTION('ref_axis',(-1.,0.,0.));
#1365=DIRECTION('',(-1.,0.,0.));
#1366=DIRECTION('',(-1.,0.,0.));
#1367=DIRECTION('',(0.,0.,1.));
#1368=DIRECTION('center_axis',(1.,0.,0.));
#1369=DIRECTION('ref_axis',(0.,1.,0.));
#1370=DIRECTION('',(0.,-1.,0.));
#1371=DIRECTION('',(0.,1.,0.));
#1372=DIRECTION('',(0.,0.,1.));
#1373=DIRECTION('center_axis',(0.,-1.,0.));
#1374=DIRECTION('ref_axis',(1.,0.,0.));
#1375=DIRECTION('',(1.,0.,0.));
#1376=DIRECTION('',(1.,0.,0.));
#1377=DIRECTION('',(0.,0.,1.));
#1378=DIRECTION('center_axis',(0.,0.,1.));
#1379=DIRECTION('ref_axis',(-1.,0.,0.));
#1380=DIRECTION('center_axis',(0.,0.,1.));
#1381=DIRECTION('ref_axis',(-1.,0.,0.));
#1382=DIRECTION('center_axis',(0.,0.,1.));
#1383=DIRECTION('ref_axis',(-1.,0.,0.));
#1384=DIRECTION('',(0.,0.,1.));
#1385=DIRECTION('center_axis',(-1.,0.,0.));
#1386=DIRECTION('ref_axis',(0.,-1.,0.));
#1387=DIRECTION('',(0.,-1.,0.));
#1388=DIRECTION('',(0.,-1.,0.));
#1389=DIRECTION('',(0.,0.,1.));
#1390=DIRECTION('center_axis',(0.,1.,0.));
#1391=DIRECTION('ref_axis',(-1.,0.,0.));
#1392=DIRECTION('',(-1.,0.,0.));
#1393=DIRECTION('',(-1.,0.,0.));
#1394=DIRECTION('center_axis',(0.,0.,1.));
#1395=DIRECTION('ref_axis',(1.,0.,0.));
#1396=DIRECTION('center_axis',(0.,0.,1.));
#1397=DIRECTION('ref_axis',(1.,0.,0.));
#1398=CARTESIAN_POINT('',(0.,0.,0.));
#1399=CARTESIAN_POINT('Origin',(0.,0.,0.));
#1400=CARTESIAN_POINT('',(-2.,-2.44929359829471E-16,660.));
#1401=CARTESIAN_POINT('Origin',(0.,0.,660.));
#1402=CARTESIAN_POINT('',(-2.,-2.44929359829471E-16,0.));
#1403=CARTESIAN_POINT('',(-2.,-2.44929359829471E-16,0.));
#1404=CARTESIAN_POINT('Origin',(0.,0.,0.));
#1405=CARTESIAN_POINT('Origin',(-8.00000005960465,-5.89289348408399,0.));
#1406=CARTESIAN_POINT('',(-8.00000005960465,-3.1,0.));
#1407=CARTESIAN_POINT('',(-8.00000005960465,-5.89289348408399,0.));
#1408=CARTESIAN_POINT('',(-8.00000005960465,-3.1,0.));
#1409=CARTESIAN_POINT('',(-8.00000005960465,-3.1,660.));
#1410=CARTESIAN_POINT('',(-8.00000005960465,-3.1,0.));
#1411=CARTESIAN_POINT('',(-8.00000005960465,-5.89289348408399,660.));
#1412=CARTESIAN_POINT('',(-8.00000005960465,-3.1,660.));
#1413=CARTESIAN_POINT('',(-8.00000005960465,-5.89289348408399,0.));
#1414=CARTESIAN_POINT('Origin',(-7.50000005960464,-5.89289348408399,0.));
#1415=CARTESIAN_POINT('',(-7.14644665410769,-6.24644685977358,0.));
#1416=CARTESIAN_POINT('Origin',(-7.50000005960464,-5.89289348408399,0.));
#1417=CARTESIAN_POINT('',(-7.14644665410769,-6.24644685977358,660.));
#1418=CARTESIAN_POINT('Origin',(-7.50000005960464,-5.89289348408399,660.));
#1419=CARTESIAN_POINT('',(-7.14644665410769,-6.24644685977358,0.));
#1420=CARTESIAN_POINT('Origin',(-4.00000005960464,-3.1,0.));
#1421=CARTESIAN_POINT('',(-4.00000005960464,-3.1,0.));
#1422=CARTESIAN_POINT('',(-4.00000005960464,-3.1,0.));
#1423=CARTESIAN_POINT('',(-4.00000005960464,-3.1,660.));
#1424=CARTESIAN_POINT('',(-4.00000005960464,-3.1,660.));
#1425=CARTESIAN_POINT('',(-4.00000005960464,-3.1,0.));
#1426=CARTESIAN_POINT('Origin',(-4.00000005960464,3.1,0.));
#1427=CARTESIAN_POINT('',(-4.00000005960464,3.1,0.));
#1428=CARTESIAN_POINT('',(-4.00000005960464,3.1,0.));
#1429=CARTESIAN_POINT('',(-4.00000005960464,3.1,660.));
#1430=CARTESIAN_POINT('',(-4.00000005960464,3.1,660.));
#1431=CARTESIAN_POINT('',(-4.00000005960464,3.1,0.));
#1432=CARTESIAN_POINT('Origin',(-7.14644665410769,6.24644685977359,0.));
#1433=CARTESIAN_POINT('',(-7.14644665410769,6.24644685977359,0.));
#1434=CARTESIAN_POINT('',(-4.00000005960464,3.1,0.));
#1435=CARTESIAN_POINT('',(-7.14644665410769,6.24644685977359,660.));
#1436=CARTESIAN_POINT('',(-4.00000005960464,3.1,660.));
#1437=CARTESIAN_POINT('',(-7.14644665410769,6.24644685977359,0.));
#1438=CARTESIAN_POINT('Origin',(-7.50000005960464,5.892893484084,0.));
#1439=CARTESIAN_POINT('',(-8.00000005960464,5.892893484084,0.));
#1440=CARTESIAN_POINT('Origin',(-7.50000005960464,5.892893484084,0.));
#1441=CARTESIAN_POINT('',(-8.00000005960464,5.892893484084,660.));
#1442=CARTESIAN_POINT('Origin',(-7.50000005960464,5.892893484084,660.));
#1443=CARTESIAN_POINT('',(-8.00000005960464,5.892893484084,0.));
#1444=CARTESIAN_POINT('Origin',(-8.00000005960465,3.1,0.));
#1445=CARTESIAN_POINT('',(-8.00000005960465,3.1,0.));
#1446=CARTESIAN_POINT('',(-8.00000005960465,3.1,0.));
#1447=CARTESIAN_POINT('',(-8.00000005960465,3.1,660.));
#1448=CARTESIAN_POINT('',(-8.00000005960465,3.1,660.));
#1449=CARTESIAN_POINT('',(-8.00000005960465,3.1,0.));
#1450=CARTESIAN_POINT('Origin',(-10.,3.1,0.));
#1451=CARTESIAN_POINT('',(-10.,3.1,0.));
#1452=CARTESIAN_POINT('',(-8.00000005960465,3.1,0.));
#1453=CARTESIAN_POINT('',(-10.,3.1,660.));
#1454=CARTESIAN_POINT('',(-8.00000005960465,3.1,660.));
#1455=CARTESIAN_POINT('',(-10.,3.1,0.));
#1456=CARTESIAN_POINT('Origin',(-10.,9.,0.));
#1457=CARTESIAN_POINT('',(-10.,9.,0.));
#1458=CARTESIAN_POINT('',(-10.,9.,0.));
#1459=CARTESIAN_POINT('',(-10.,9.,660.));
#1460=CARTESIAN_POINT('',(-10.,9.,660.));
#1461=CARTESIAN_POINT('',(-10.,9.,0.));
#1462=CARTESIAN_POINT('Origin',(-9.,9.,0.));
#1463=CARTESIAN_POINT('',(-9.,10.,0.));
#1464=CARTESIAN_POINT('Origin',(-9.,9.,0.));
#1465=CARTESIAN_POINT('',(-9.,10.,660.));
#1466=CARTESIAN_POINT('Origin',(-9.,9.,660.));
#1467=CARTESIAN_POINT('',(-9.,10.,0.));
#1468=CARTESIAN_POINT('Origin',(-3.1,10.,0.));
#1469=CARTESIAN_POINT('',(-3.1,10.,0.));
#1470=CARTESIAN_POINT('',(-3.1,10.,0.));
#1471=CARTESIAN_POINT('',(-3.1,10.,660.));
#1472=CARTESIAN_POINT('',(-3.1,10.,660.));
#1473=CARTESIAN_POINT('',(-3.1,10.,0.));
#1474=CARTESIAN_POINT('Origin',(-3.1,8.00000005960464,0.));
#1475=CARTESIAN_POINT('',(-3.1,8.00000005960464,0.));
#1476=CARTESIAN_POINT('',(-3.1,8.00000005960464,0.));
#1477=CARTESIAN_POINT('',(-3.1,8.00000005960464,660.));
#1478=CARTESIAN_POINT('',(-3.1,8.00000005960464,660.));
#1479=CARTESIAN_POINT('',(-3.1,8.00000005960464,0.));
#1480=CARTESIAN_POINT('Origin',(-5.892893484084,8.00000005960465,0.));
#1481=CARTESIAN_POINT('',(-5.892893484084,8.00000005960465,0.));
#1482=CARTESIAN_POINT('',(-3.1,8.00000005960464,0.));
#1483=CARTESIAN_POINT('',(-5.892893484084,8.00000005960465,660.));
#1484=CARTESIAN_POINT('',(-3.1,8.00000005960464,660.));
#1485=CARTESIAN_POINT('',(-5.892893484084,8.00000005960465,0.));
#1486=CARTESIAN_POINT('Origin',(-5.892893484084,7.50000005960465,0.));
#1487=CARTESIAN_POINT('',(-6.24644685977359,7.14644665410769,0.));
#1488=CARTESIAN_POINT('Origin',(-5.892893484084,7.50000005960465,0.));
#1489=CARTESIAN_POINT('',(-6.24644685977359,7.14644665410769,660.));
#1490=CARTESIAN_POINT('Origin',(-5.892893484084,7.50000005960465,660.));
#1491=CARTESIAN_POINT('',(-6.24644685977359,7.14644665410769,0.));
#1492=CARTESIAN_POINT('Origin',(-3.1,4.00000005960464,0.));
#1493=CARTESIAN_POINT('',(-3.1,4.00000005960464,0.));
#1494=CARTESIAN_POINT('',(-3.1,4.00000005960464,0.));
#1495=CARTESIAN_POINT('',(-3.1,4.00000005960464,660.));
#1496=CARTESIAN_POINT('',(-3.1,4.00000005960464,660.));
#1497=CARTESIAN_POINT('',(-3.1,4.00000005960464,0.));
#1498=CARTESIAN_POINT('Origin',(3.1,4.00000005960464,0.));
#1499=CARTESIAN_POINT('',(3.1,4.00000005960464,0.));
#1500=CARTESIAN_POINT('',(3.1,4.00000005960464,0.));
#1501=CARTESIAN_POINT('',(3.1,4.00000005960464,660.));
#1502=CARTESIAN_POINT('',(3.1,4.00000005960464,660.));
#1503=CARTESIAN_POINT('',(3.1,4.00000005960464,0.));
#1504=CARTESIAN_POINT('Origin',(6.24644685977359,7.14644665410769,0.));
#1505=CARTESIAN_POINT('',(6.24644685977359,7.14644665410769,0.));
#1506=CARTESIAN_POINT('',(3.1,4.00000005960464,0.));
#1507=CARTESIAN_POINT('',(6.24644685977359,7.14644665410769,660.));
#1508=CARTESIAN_POINT('',(3.1,4.00000005960464,660.));
#1509=CARTESIAN_POINT('',(6.24644685977359,7.14644665410769,0.));
#1510=CARTESIAN_POINT('Origin',(5.892893484084,7.50000005960465,0.));
#1511=CARTESIAN_POINT('',(5.892893484084,8.00000005960464,0.));
#1512=CARTESIAN_POINT('Origin',(5.892893484084,7.50000005960465,0.));
#1513=CARTESIAN_POINT('',(5.892893484084,8.00000005960464,660.));
#1514=CARTESIAN_POINT('Origin',(5.892893484084,7.50000005960465,660.));
#1515=CARTESIAN_POINT('',(5.892893484084,8.00000005960464,0.));
#1516=CARTESIAN_POINT('Origin',(3.1,8.00000005960464,0.));
#1517=CARTESIAN_POINT('',(3.1,8.00000005960464,0.));
#1518=CARTESIAN_POINT('',(3.1,8.00000005960464,0.));
#1519=CARTESIAN_POINT('',(3.1,8.00000005960464,660.));
#1520=CARTESIAN_POINT('',(3.1,8.00000005960464,660.));
#1521=CARTESIAN_POINT('',(3.1,8.00000005960464,0.));
#1522=CARTESIAN_POINT('Origin',(3.1,10.,0.));
#1523=CARTESIAN_POINT('',(3.1,10.,0.));
#1524=CARTESIAN_POINT('',(3.1,8.00000005960464,0.));
#1525=CARTESIAN_POINT('',(3.1,10.,660.));
#1526=CARTESIAN_POINT('',(3.1,8.00000005960464,660.));
#1527=CARTESIAN_POINT('',(3.1,10.,0.));
#1528=CARTESIAN_POINT('Origin',(9.,10.,0.));
#1529=CARTESIAN_POINT('',(9.,10.,0.));
#1530=CARTESIAN_POINT('',(9.,10.,0.));
#1531=CARTESIAN_POINT('',(9.,10.,660.));
#1532=CARTESIAN_POINT('',(9.,10.,660.));
#1533=CARTESIAN_POINT('',(9.,10.,0.));
#1534=CARTESIAN_POINT('Origin',(9.,9.,0.));
#1535=CARTESIAN_POINT('',(10.,9.,0.));
#1536=CARTESIAN_POINT('Origin',(9.,9.,0.));
#1537=CARTESIAN_POINT('',(10.,9.,660.));
#1538=CARTESIAN_POINT('Origin',(9.,9.,660.));
#1539=CARTESIAN_POINT('',(10.,9.,0.));
#1540=CARTESIAN_POINT('Origin',(10.,3.1,0.));
#1541=CARTESIAN_POINT('',(10.,3.1,0.));
#1542=CARTESIAN_POINT('',(10.,3.1,0.));
#1543=CARTESIAN_POINT('',(10.,3.1,660.));
#1544=CARTESIAN_POINT('',(10.,3.1,660.));
#1545=CARTESIAN_POINT('',(10.,3.1,0.));
#1546=CARTESIAN_POINT('Origin',(8.00000005960465,3.1,0.));
#1547=CARTESIAN_POINT('',(8.00000005960465,3.1,0.));
#1548=CARTESIAN_POINT('',(8.00000005960465,3.1,0.));
#1549=CARTESIAN_POINT('',(8.00000005960465,3.1,660.));
#1550=CARTESIAN_POINT('',(8.00000005960465,3.1,660.));
#1551=CARTESIAN_POINT('',(8.00000005960465,3.1,0.));
#1552=CARTESIAN_POINT('Origin',(8.00000005960464,5.892893484084,0.));
#1553=CARTESIAN_POINT('',(8.00000005960464,5.892893484084,0.));
#1554=CARTESIAN_POINT('',(8.00000005960465,3.1,0.));
#1555=CARTESIAN_POINT('',(8.00000005960465,5.892893484084,660.));
#1556=CARTESIAN_POINT('',(8.00000005960465,3.1,660.));
#1557=CARTESIAN_POINT('',(8.00000005960464,5.892893484084,0.));
#1558=CARTESIAN_POINT('Origin',(7.50000005960464,5.892893484084,0.));
#1559=CARTESIAN_POINT('',(7.14644665410769,6.24644685977359,0.));
#1560=CARTESIAN_POINT('Origin',(7.50000005960464,5.892893484084,0.));
#1561=CARTESIAN_POINT('',(7.14644665410769,6.24644685977359,660.));
#1562=CARTESIAN_POINT('Origin',(7.50000005960464,5.892893484084,660.));
#1563=CARTESIAN_POINT('',(7.14644665410769,6.24644685977359,0.));
#1564=CARTESIAN_POINT('Origin',(4.00000005960464,3.1,0.));
#1565=CARTESIAN_POINT('',(4.00000005960464,3.1,0.));
#1566=CARTESIAN_POINT('',(4.00000005960464,3.1,0.));
#1567=CARTESIAN_POINT('',(4.00000005960464,3.1,660.));
#1568=CARTESIAN_POINT('',(4.00000005960464,3.1,660.));
#1569=CARTESIAN_POINT('',(4.00000005960464,3.1,0.));
#1570=CARTESIAN_POINT('Origin',(4.,-3.1,0.));
#1571=CARTESIAN_POINT('',(4.00000005960464,-3.1,0.));
#1572=CARTESIAN_POINT('',(4.,-3.1,0.));
#1573=CARTESIAN_POINT('',(4.00000005960464,-3.1,660.));
#1574=CARTESIAN_POINT('',(4.,-3.1,660.));
#1575=CARTESIAN_POINT('',(4.00000005960464,-3.1,0.));
#1576=CARTESIAN_POINT('Origin',(7.14644665410769,-6.24644685977359,0.));
#1577=CARTESIAN_POINT('',(7.14644665410769,-6.24644685977359,0.));
#1578=CARTESIAN_POINT('',(4.00000005960464,-3.1,0.));
#1579=CARTESIAN_POINT('',(7.14644665410769,-6.24644685977359,660.));
#1580=CARTESIAN_POINT('',(4.00000005960464,-3.1,660.));
#1581=CARTESIAN_POINT('',(7.14644665410769,-6.24644685977359,0.));
#1582=CARTESIAN_POINT('Origin',(7.50000005960464,-5.89289348408399,0.));
#1583=CARTESIAN_POINT('',(8.00000005960464,-5.892893484084,0.));
#1584=CARTESIAN_POINT('Origin',(7.50000005960464,-5.89289348408399,0.));
#1585=CARTESIAN_POINT('',(8.00000005960465,-5.892893484084,660.));
#1586=CARTESIAN_POINT('Origin',(7.50000005960464,-5.89289348408399,660.));
#1587=CARTESIAN_POINT('',(8.00000005960464,-5.892893484084,0.));
#1588=CARTESIAN_POINT('Origin',(8.00000005960465,-3.1,0.));
#1589=CARTESIAN_POINT('',(8.00000005960465,-3.1,0.));
#1590=CARTESIAN_POINT('',(8.00000005960465,-3.1,0.));
#1591=CARTESIAN_POINT('',(8.00000005960465,-3.1,660.));
#1592=CARTESIAN_POINT('',(8.00000005960465,-3.1,660.));
#1593=CARTESIAN_POINT('',(8.00000005960465,-3.1,0.));
#1594=CARTESIAN_POINT('Origin',(10.,-3.1,0.));
#1595=CARTESIAN_POINT('',(10.,-3.1,0.));
#1596=CARTESIAN_POINT('',(8.00000005960465,-3.1,0.));
#1597=CARTESIAN_POINT('',(10.,-3.1,660.));
#1598=CARTESIAN_POINT('',(8.00000005960465,-3.1,660.));
#1599=CARTESIAN_POINT('',(10.,-3.1,0.));
#1600=CARTESIAN_POINT('Origin',(10.,-9.,0.));
#1601=CARTESIAN_POINT('',(10.,-9.,0.));
#1602=CARTESIAN_POINT('',(10.,-9.,0.));
#1603=CARTESIAN_POINT('',(10.,-9.,660.));
#1604=CARTESIAN_POINT('',(10.,-9.,660.));
#1605=CARTESIAN_POINT('',(10.,-9.,0.));
#1606=CARTESIAN_POINT('Origin',(9.,-9.,0.));
#1607=CARTESIAN_POINT('',(9.,-10.,0.));
#1608=CARTESIAN_POINT('Origin',(9.,-9.,0.));
#1609=CARTESIAN_POINT('',(9.,-10.,660.));
#1610=CARTESIAN_POINT('Origin',(9.,-9.,660.));
#1611=CARTESIAN_POINT('',(9.,-10.,0.));
#1612=CARTESIAN_POINT('Origin',(3.1,-10.,0.));
#1613=CARTESIAN_POINT('',(3.1,-10.,0.));
#1614=CARTESIAN_POINT('',(3.1,-10.,0.));
#1615=CARTESIAN_POINT('',(3.1,-10.,660.));
#1616=CARTESIAN_POINT('',(3.1,-10.,660.));
#1617=CARTESIAN_POINT('',(3.1,-10.,0.));
#1618=CARTESIAN_POINT('Origin',(3.1,-8.00000005960464,0.));
#1619=CARTESIAN_POINT('',(3.1,-8.00000005960464,0.));
#1620=CARTESIAN_POINT('',(3.1,-8.00000005960464,0.));
#1621=CARTESIAN_POINT('',(3.1,-8.00000005960464,660.));
#1622=CARTESIAN_POINT('',(3.1,-8.00000005960464,660.));
#1623=CARTESIAN_POINT('',(3.1,-8.00000005960464,0.));
#1624=CARTESIAN_POINT('Origin',(5.892893484084,-8.00000005960464,0.));
#1625=CARTESIAN_POINT('',(5.892893484084,-8.00000005960464,0.));
#1626=CARTESIAN_POINT('',(3.1,-8.00000005960464,0.));
#1627=CARTESIAN_POINT('',(5.892893484084,-8.00000005960464,660.));
#1628=CARTESIAN_POINT('',(3.1,-8.00000005960464,660.));
#1629=CARTESIAN_POINT('',(5.892893484084,-8.00000005960464,0.));
#1630=CARTESIAN_POINT('Origin',(5.89289348408399,-7.50000005960464,0.));
#1631=CARTESIAN_POINT('',(6.24644685977359,-7.14644665410769,0.));
#1632=CARTESIAN_POINT('Origin',(5.89289348408399,-7.50000005960464,0.));
#1633=CARTESIAN_POINT('',(6.24644685977359,-7.14644665410769,660.));
#1634=CARTESIAN_POINT('Origin',(5.89289348408399,-7.50000005960464,660.));
#1635=CARTESIAN_POINT('',(6.24644685977359,-7.14644665410769,0.));
#1636=CARTESIAN_POINT('Origin',(3.1,-4.00000005960464,0.));
#1637=CARTESIAN_POINT('',(3.1,-4.00000005960464,0.));
#1638=CARTESIAN_POINT('',(3.1,-4.00000005960464,0.));
#1639=CARTESIAN_POINT('',(3.1,-4.00000005960464,660.));
#1640=CARTESIAN_POINT('',(3.1,-4.00000005960464,660.));
#1641=CARTESIAN_POINT('',(3.1,-4.00000005960464,0.));
#1642=CARTESIAN_POINT('Origin',(-3.1,-4.00000005960464,0.));
#1643=CARTESIAN_POINT('',(-3.1,-4.00000005960464,0.));
#1644=CARTESIAN_POINT('',(-3.1,-4.00000005960464,0.));
#1645=CARTESIAN_POINT('',(-3.1,-4.00000005960464,660.));
#1646=CARTESIAN_POINT('',(-3.1,-4.00000005960464,660.));
#1647=CARTESIAN_POINT('',(-3.1,-4.00000005960464,0.));
#1648=CARTESIAN_POINT('Origin',(-6.24644685977359,-7.14644665410769,0.));
#1649=CARTESIAN_POINT('',(-6.24644685977359,-7.14644665410769,0.));
#1650=CARTESIAN_POINT('',(-3.1,-4.00000005960464,0.));
#1651=CARTESIAN_POINT('',(-6.24644685977359,-7.14644665410769,660.));
#1652=CARTESIAN_POINT('',(-3.1,-4.00000005960464,660.));
#1653=CARTESIAN_POINT('',(-6.24644685977359,-7.14644665410769,0.));
#1654=CARTESIAN_POINT('Origin',(-5.892893484084,-7.50000005960465,0.));
#1655=CARTESIAN_POINT('',(-5.892893484084,-8.00000005960464,0.));
#1656=CARTESIAN_POINT('Origin',(-5.892893484084,-7.50000005960465,0.));
#1657=CARTESIAN_POINT('',(-5.892893484084,-8.00000005960464,660.));
#1658=CARTESIAN_POINT('Origin',(-5.892893484084,-7.50000005960465,660.));
#1659=CARTESIAN_POINT('',(-5.892893484084,-8.00000005960464,0.));
#1660=CARTESIAN_POINT('Origin',(-3.1,-8.00000005960464,0.));
#1661=CARTESIAN_POINT('',(-3.1,-8.00000005960464,0.));
#1662=CARTESIAN_POINT('',(-3.1,-8.00000005960464,0.));
#1663=CARTESIAN_POINT('',(-3.1,-8.00000005960464,660.));
#1664=CARTESIAN_POINT('',(-3.1,-8.00000005960464,660.));
#1665=CARTESIAN_POINT('',(-3.1,-8.00000005960464,0.));
#1666=CARTESIAN_POINT('Origin',(-3.1,-10.,0.));
#1667=CARTESIAN_POINT('',(-3.1,-10.,0.));
#1668=CARTESIAN_POINT('',(-3.1,-8.00000005960464,0.));
#1669=CARTESIAN_POINT('',(-3.1,-10.,660.));
#1670=CARTESIAN_POINT('',(-3.1,-8.00000005960464,660.));
#1671=CARTESIAN_POINT('',(-3.1,-10.,0.));
#1672=CARTESIAN_POINT('Origin',(-9.,-10.,0.));
#1673=CARTESIAN_POINT('',(-9.,-10.,0.));
#1674=CARTESIAN_POINT('',(-9.,-10.,0.));
#1675=CARTESIAN_POINT('',(-9.,-10.,660.));
#1676=CARTESIAN_POINT('',(-9.,-10.,660.));
#1677=CARTESIAN_POINT('',(-9.,-10.,0.));
#1678=CARTESIAN_POINT('Origin',(-9.,-9.,0.));
#1679=CARTESIAN_POINT('',(-10.,-9.,0.));
#1680=CARTESIAN_POINT('Origin',(-9.,-9.,0.));
#1681=CARTESIAN_POINT('',(-10.,-9.,660.));
#1682=CARTESIAN_POINT('Origin',(-9.,-9.,660.));
#1683=CARTESIAN_POINT('',(-10.,-9.,0.));
#1684=CARTESIAN_POINT('Origin',(-10.,-3.1,0.));
#1685=CARTESIAN_POINT('',(-10.,-3.1,0.));
#1686=CARTESIAN_POINT('',(-10.,-3.1,0.));
#1687=CARTESIAN_POINT('',(-10.,-3.1,660.));
#1688=CARTESIAN_POINT('',(-10.,-3.1,660.));
#1689=CARTESIAN_POINT('',(-10.,-3.1,0.));
#1690=CARTESIAN_POINT('Origin',(-8.00000005960465,-3.1,0.));
#1691=CARTESIAN_POINT('',(-8.00000005960465,-3.1,0.));
#1692=CARTESIAN_POINT('',(-8.00000005960465,-3.1,660.));
#1693=CARTESIAN_POINT('Origin',(0.,0.,660.));
#1694=CARTESIAN_POINT('Origin',(0.,0.,0.));
#1695=UNCERTAINTY_MEASURE_WITH_UNIT(LENGTH_MEASURE(0.01),#1699,
'DISTANCE_ACCURACY_VALUE',
'Maximum model space distance between geometric entities at asserted c
onnectivities');
#1696=UNCERTAINTY_MEASURE_WITH_UNIT(LENGTH_MEASURE(0.01),#1699,
'DISTANCE_ACCURACY_VALUE',
'Maximum model space distance between geometric entities at asserted c
onnectivities');
#1697=(
GEOMETRIC_REPRESENTATION_CONTEXT(3)
GLOBAL_UNCERTAINTY_ASSIGNED_CONTEXT((#1695))
GLOBAL_UNIT_ASSIGNED_CONTEXT((#1699,#1701,#1702))
REPRESENTATION_CONTEXT('','3D')
);
#1698=(
GEOMETRIC_REPRESENTATION_CONTEXT(3)
GLOBAL_UNCERTAINTY_ASSIGNED_CONTEXT((#1696))
GLOBAL_UNIT_ASSIGNED_CONTEXT((#1699,#1701,#1702))
REPRESENTATION_CONTEXT('','3D')
);
#1699=(
LENGTH_UNIT()
NAMED_UNIT(*)
SI_UNIT(.MILLI.,.METRE.)
);
#1700=(
LENGTH_UNIT()
NAMED_UNIT(*)
SI_UNIT($,.METRE.)
);
#1701=(
NAMED_UNIT(*)
PLANE_ANGLE_UNIT()
SI_UNIT($,.RADIAN.)
);
#1702=(
NAMED_UNIT(*)
SI_UNIT($,.STERADIAN.)
SOLID_ANGLE_UNIT()
);
#1703=SHAPE_DEFINITION_REPRESENTATION(#1704,#1705);
#1704=PRODUCT_DEFINITION_SHAPE('',$,#1707);
#1705=SHAPE_REPRESENTATION('',(#1043),#1697);
#1706=PRODUCT_DEFINITION_CONTEXT('part definition',#1711,'design');
#1707=PRODUCT_DEFINITION('20 mm ROD 660mm  length',
'20 mm ROD 660mm  length v1',#1708,#1706);
#1708=PRODUCT_DEFINITION_FORMATION('',$,#1713);
#1709=PRODUCT_RELATED_PRODUCT_CATEGORY('20 mm ROD 660mm  length v1',
'20 mm ROD 660mm  length v1',(#1713));
#1710=APPLICATION_PROTOCOL_DEFINITION('international standard',
'automotive_design',2009,#1711);
#1711=APPLICATION_CONTEXT(
'Core Data for Automotive Mechanical Design Process');
#1712=PRODUCT_CONTEXT('part definition',#1711,'mechanical');
#1713=PRODUCT('20 mm ROD 660mm  length','20 mm ROD 660mm  length v1',$,
(#1712));
#1714=PRESENTATION_STYLE_ASSIGNMENT((#1715));
#1715=SURFACE_STYLE_USAGE(.BOTH.,#1716);
#1716=SURFACE_SIDE_STYLE('',(#1717));
#1717=SURFACE_STYLE_FILL_AREA(#1718);
#1718=FILL_AREA_STYLE('Aluminum - Satin',(#1719));
#1719=FILL_AREA_STYLE_COLOUR('Aluminum - Satin',#1720);
#1720=COLOUR_RGB('Aluminum - Satin',0.96078431372549,0.96078431372549,0.964705882352941);
ENDSEC;
END-ISO-10303-21;
