ISO-10303-21;
HEADER;
/* Generated by software containing ST-Developer
 * from STEP Tools, Inc. (www.steptools.com) 
 */

FILE_DESCRIPTION(
/* description */ (''),
/* implementation_level */ '2;1');

FILE_NAME(
/* name */ 'LOAD CELL v1.step',
/* time_stamp */ '2025-07-18T20:17:23+05:30',
/* author */ (''),
/* organization */ (''),
/* preprocessor_version */ 'ST-DEVELOPER v20.1',
/* originating_system */ 'Autodesk Translation Framework v14.10.0.0',
/* authorisation */ '');

FILE_SCHEMA (('AUTOMOTIVE_DESIGN { 1 0 10303 214 3 1 1 }'));
ENDSEC;

DATA;
#10=MECHANICAL_DESIGN_GEOMETRIC_PRESENTATION_REPRESENTATION('',(#21),#557);
#11=ITEM_DEFINED_TRANSFORMATION($,$,#340,#365);
#12=ITEM_DEFINED_TRANSFORMATION($,$,#339,#366);
#13=(
REPRESENTATION_RELATIONSHIP($,$,#572,#571)
REPRESENTATION_RELATIONSHIP_WITH_TRANSFORMATION(#11)
SHAPE_REPRESENTATION_RELATIONSHIP()
);
#14=(
REPRESENTATION_RELATIONSHIP($,$,#571,#570)
REPRESENTATION_RELATIONSHIP_WITH_TRANSFORMATION(#12)
SHAPE_REPRESENTATION_RELATIONSHIP()
);
#15=CONTEXT_DEPENDENT_SHAPE_REPRESENTATION(#13,#568);
#16=CONTEXT_DEPENDENT_SHAPE_REPRESENTATION(#14,#569);
#17=NEXT_ASSEMBLY_USAGE_OCCURRENCE('LOAD CELL:1','LOAD CELL:1',
'LOAD CELL:1',#575,#576,'LOAD CELL:1');
#18=NEXT_ASSEMBLY_USAGE_OCCURRENCE('LOAD CELL (1):1','LOAD CELL (1):1',
'LOAD CELL (1):1',#574,#575,'LOAD CELL (1):1');
#19=SHAPE_REPRESENTATION_RELATIONSHIP('SRR','None',#572,#20);
#20=ADVANCED_BREP_SHAPE_REPRESENTATION('',(#22),#556);
#21=STYLED_ITEM('',(#589),#22);
#22=MANIFOLD_SOLID_BREP('Body1',#325);
#23=FACE_BOUND('',#59,.T.);
#24=FACE_BOUND('',#63,.T.);
#25=FACE_BOUND('',#70,.T.);
#26=FACE_BOUND('',#73,.T.);
#27=PLANE('',#347);
#28=PLANE('',#348);
#29=PLANE('',#352);
#30=PLANE('',#353);
#31=PLANE('',#357);
#32=PLANE('',#358);
#33=PLANE('',#359);
#34=PLANE('',#360);
#35=PLANE('',#361);
#36=PLANE('',#362);
#37=PLANE('',#363);
#38=PLANE('',#364);
#39=FACE_OUTER_BOUND('',#55,.T.);
#40=FACE_OUTER_BOUND('',#56,.T.);
#41=FACE_OUTER_BOUND('',#57,.T.);
#42=FACE_OUTER_BOUND('',#58,.T.);
#43=FACE_OUTER_BOUND('',#60,.T.);
#44=FACE_OUTER_BOUND('',#61,.T.);
#45=FACE_OUTER_BOUND('',#62,.T.);
#46=FACE_OUTER_BOUND('',#64,.T.);
#47=FACE_OUTER_BOUND('',#65,.T.);
#48=FACE_OUTER_BOUND('',#66,.T.);
#49=FACE_OUTER_BOUND('',#67,.T.);
#50=FACE_OUTER_BOUND('',#68,.T.);
#51=FACE_OUTER_BOUND('',#69,.T.);
#52=FACE_OUTER_BOUND('',#71,.T.);
#53=FACE_OUTER_BOUND('',#72,.T.);
#54=FACE_OUTER_BOUND('',#74,.T.);
#55=EDGE_LOOP('',(#221,#222,#223,#224));
#56=EDGE_LOOP('',(#225,#226,#227,#228));
#57=EDGE_LOOP('',(#229,#230,#231,#232));
#58=EDGE_LOOP('',(#233,#234,#235,#236));
#59=EDGE_LOOP('',(#237));
#60=EDGE_LOOP('',(#238,#239,#240,#241));
#61=EDGE_LOOP('',(#242,#243,#244,#245));
#62=EDGE_LOOP('',(#246,#247,#248,#249));
#63=EDGE_LOOP('',(#250));
#64=EDGE_LOOP('',(#251,#252,#253,#254));
#65=EDGE_LOOP('',(#255,#256,#257,#258));
#66=EDGE_LOOP('',(#259,#260,#261,#262,#263,#264,#265,#266,#267,#268,#269,
#270));
#67=EDGE_LOOP('',(#271,#272,#273,#274));
#68=EDGE_LOOP('',(#275,#276,#277,#278));
#69=EDGE_LOOP('',(#279,#280,#281,#282));
#70=EDGE_LOOP('',(#283));
#71=EDGE_LOOP('',(#284,#285,#286,#287));
#72=EDGE_LOOP('',(#288,#289,#290,#291));
#73=EDGE_LOOP('',(#292));
#74=EDGE_LOOP('',(#293,#294,#295,#296,#297,#298,#299,#300,#301,#302,#303,
#304));
#75=LINE('',#466,#109);
#76=LINE('',#472,#110);
#77=LINE('',#477,#111);
#78=LINE('',#479,#112);
#79=LINE('',#481,#113);
#80=LINE('',#482,#114);
#81=LINE('',#486,#115);
#82=LINE('',#488,#116);
#83=LINE('',#490,#117);
#84=LINE('',#491,#118);
#85=LINE('',#498,#119);
#86=LINE('',#500,#120);
#87=LINE('',#502,#121);
#88=LINE('',#503,#122);
#89=LINE('',#507,#123);
#90=LINE('',#509,#124);
#91=LINE('',#511,#125);
#92=LINE('',#512,#126);
#93=LINE('',#518,#127);
#94=LINE('',#520,#128);
#95=LINE('',#521,#129);
#96=LINE('',#524,#130);
#97=LINE('',#525,#131);
#98=LINE('',#527,#132);
#99=LINE('',#529,#133);
#100=LINE('',#530,#134);
#101=LINE('',#533,#135);
#102=LINE('',#534,#136);
#103=LINE('',#537,#137);
#104=LINE('',#538,#138);
#105=LINE('',#540,#139);
#106=LINE('',#543,#140);
#107=LINE('',#544,#141);
#108=LINE('',#546,#142);
#109=VECTOR('',#377,6.);
#110=VECTOR('',#384,6.);
#111=VECTOR('',#389,10.);
#112=VECTOR('',#390,10.);
#113=VECTOR('',#391,10.);
#114=VECTOR('',#392,10.);
#115=VECTOR('',#395,10.);
#116=VECTOR('',#396,10.);
#117=VECTOR('',#397,10.);
#118=VECTOR('',#398,10.);
#119=VECTOR('',#407,10.);
#120=VECTOR('',#408,10.);
#121=VECTOR('',#409,10.);
#122=VECTOR('',#410,10.);
#123=VECTOR('',#413,10.);
#124=VECTOR('',#414,10.);
#125=VECTOR('',#415,10.);
#126=VECTOR('',#416,10.);
#127=VECTOR('',#425,10.);
#128=VECTOR('',#426,10.);
#129=VECTOR('',#427,10.);
#130=VECTOR('',#430,10.);
#131=VECTOR('',#431,10.);
#132=VECTOR('',#432,10.);
#133=VECTOR('',#433,10.);
#134=VECTOR('',#434,10.);
#135=VECTOR('',#437,10.);
#136=VECTOR('',#438,10.);
#137=VECTOR('',#441,10.);
#138=VECTOR('',#442,10.);
#139=VECTOR('',#445,10.);
#140=VECTOR('',#448,10.);
#141=VECTOR('',#449,10.);
#142=VECTOR('',#452,10.);
#143=CIRCLE('',#342,4.38975);
#144=CIRCLE('',#343,4.38975);
#145=CIRCLE('',#345,4.38975);
#146=CIRCLE('',#346,4.38975);
#147=CIRCLE('',#350,5.);
#148=CIRCLE('',#351,5.);
#149=CIRCLE('',#355,5.);
#150=CIRCLE('',#356,5.);
#151=VERTEX_POINT('',#463);
#152=VERTEX_POINT('',#465);
#153=VERTEX_POINT('',#469);
#154=VERTEX_POINT('',#471);
#155=VERTEX_POINT('',#475);
#156=VERTEX_POINT('',#476);
#157=VERTEX_POINT('',#478);
#158=VERTEX_POINT('',#480);
#159=VERTEX_POINT('',#484);
#160=VERTEX_POINT('',#485);
#161=VERTEX_POINT('',#487);
#162=VERTEX_POINT('',#489);
#163=VERTEX_POINT('',#496);
#164=VERTEX_POINT('',#497);
#165=VERTEX_POINT('',#499);
#166=VERTEX_POINT('',#501);
#167=VERTEX_POINT('',#505);
#168=VERTEX_POINT('',#506);
#169=VERTEX_POINT('',#508);
#170=VERTEX_POINT('',#510);
#171=VERTEX_POINT('',#517);
#172=VERTEX_POINT('',#519);
#173=VERTEX_POINT('',#523);
#174=VERTEX_POINT('',#526);
#175=VERTEX_POINT('',#528);
#176=VERTEX_POINT('',#532);
#177=VERTEX_POINT('',#536);
#178=VERTEX_POINT('',#542);
#179=EDGE_CURVE('',#151,#151,#143,.T.);
#180=EDGE_CURVE('',#151,#152,#75,.T.);
#181=EDGE_CURVE('',#152,#152,#144,.T.);
#182=EDGE_CURVE('',#153,#153,#145,.T.);
#183=EDGE_CURVE('',#153,#154,#76,.T.);
#184=EDGE_CURVE('',#154,#154,#146,.T.);
#185=EDGE_CURVE('',#155,#156,#77,.T.);
#186=EDGE_CURVE('',#157,#155,#78,.T.);
#187=EDGE_CURVE('',#158,#157,#79,.T.);
#188=EDGE_CURVE('',#156,#158,#80,.T.);
#189=EDGE_CURVE('',#159,#160,#81,.T.);
#190=EDGE_CURVE('',#161,#160,#82,.T.);
#191=EDGE_CURVE('',#162,#161,#83,.T.);
#192=EDGE_CURVE('',#159,#162,#84,.T.);
#193=EDGE_CURVE('',#156,#159,#147,.T.);
#194=EDGE_CURVE('',#160,#158,#148,.T.);
#195=EDGE_CURVE('',#163,#164,#85,.T.);
#196=EDGE_CURVE('',#165,#163,#86,.T.);
#197=EDGE_CURVE('',#166,#165,#87,.T.);
#198=EDGE_CURVE('',#164,#166,#88,.T.);
#199=EDGE_CURVE('',#167,#168,#89,.T.);
#200=EDGE_CURVE('',#169,#168,#90,.T.);
#201=EDGE_CURVE('',#170,#169,#91,.T.);
#202=EDGE_CURVE('',#167,#170,#92,.T.);
#203=EDGE_CURVE('',#164,#167,#149,.T.);
#204=EDGE_CURVE('',#168,#166,#150,.T.);
#205=EDGE_CURVE('',#171,#155,#93,.T.);
#206=EDGE_CURVE('',#171,#172,#94,.T.);
#207=EDGE_CURVE('',#157,#172,#95,.T.);
#208=EDGE_CURVE('',#172,#173,#96,.T.);
#209=EDGE_CURVE('',#173,#169,#97,.T.);
#210=EDGE_CURVE('',#165,#174,#98,.T.);
#211=EDGE_CURVE('',#174,#175,#99,.T.);
#212=EDGE_CURVE('',#175,#161,#100,.T.);
#213=EDGE_CURVE('',#176,#163,#101,.T.);
#214=EDGE_CURVE('',#176,#174,#102,.T.);
#215=EDGE_CURVE('',#177,#173,#103,.T.);
#216=EDGE_CURVE('',#170,#177,#104,.T.);
#217=EDGE_CURVE('',#177,#171,#105,.T.);
#218=EDGE_CURVE('',#178,#175,#106,.T.);
#219=EDGE_CURVE('',#162,#178,#107,.T.);
#220=EDGE_CURVE('',#178,#176,#108,.T.);
#221=ORIENTED_EDGE('',*,*,#179,.F.);
#222=ORIENTED_EDGE('',*,*,#180,.T.);
#223=ORIENTED_EDGE('',*,*,#181,.T.);
#224=ORIENTED_EDGE('',*,*,#180,.F.);
#225=ORIENTED_EDGE('',*,*,#182,.F.);
#226=ORIENTED_EDGE('',*,*,#183,.T.);
#227=ORIENTED_EDGE('',*,*,#184,.T.);
#228=ORIENTED_EDGE('',*,*,#183,.F.);
#229=ORIENTED_EDGE('',*,*,#185,.F.);
#230=ORIENTED_EDGE('',*,*,#186,.F.);
#231=ORIENTED_EDGE('',*,*,#187,.F.);
#232=ORIENTED_EDGE('',*,*,#188,.F.);
#233=ORIENTED_EDGE('',*,*,#189,.T.);
#234=ORIENTED_EDGE('',*,*,#190,.F.);
#235=ORIENTED_EDGE('',*,*,#191,.F.);
#236=ORIENTED_EDGE('',*,*,#192,.F.);
#237=ORIENTED_EDGE('',*,*,#181,.F.);
#238=ORIENTED_EDGE('',*,*,#189,.F.);
#239=ORIENTED_EDGE('',*,*,#193,.F.);
#240=ORIENTED_EDGE('',*,*,#188,.T.);
#241=ORIENTED_EDGE('',*,*,#194,.F.);
#242=ORIENTED_EDGE('',*,*,#195,.F.);
#243=ORIENTED_EDGE('',*,*,#196,.F.);
#244=ORIENTED_EDGE('',*,*,#197,.F.);
#245=ORIENTED_EDGE('',*,*,#198,.F.);
#246=ORIENTED_EDGE('',*,*,#199,.T.);
#247=ORIENTED_EDGE('',*,*,#200,.F.);
#248=ORIENTED_EDGE('',*,*,#201,.F.);
#249=ORIENTED_EDGE('',*,*,#202,.F.);
#250=ORIENTED_EDGE('',*,*,#184,.F.);
#251=ORIENTED_EDGE('',*,*,#199,.F.);
#252=ORIENTED_EDGE('',*,*,#203,.F.);
#253=ORIENTED_EDGE('',*,*,#198,.T.);
#254=ORIENTED_EDGE('',*,*,#204,.F.);
#255=ORIENTED_EDGE('',*,*,#186,.T.);
#256=ORIENTED_EDGE('',*,*,#205,.F.);
#257=ORIENTED_EDGE('',*,*,#206,.T.);
#258=ORIENTED_EDGE('',*,*,#207,.F.);
#259=ORIENTED_EDGE('',*,*,#190,.T.);
#260=ORIENTED_EDGE('',*,*,#194,.T.);
#261=ORIENTED_EDGE('',*,*,#187,.T.);
#262=ORIENTED_EDGE('',*,*,#207,.T.);
#263=ORIENTED_EDGE('',*,*,#208,.T.);
#264=ORIENTED_EDGE('',*,*,#209,.T.);
#265=ORIENTED_EDGE('',*,*,#200,.T.);
#266=ORIENTED_EDGE('',*,*,#204,.T.);
#267=ORIENTED_EDGE('',*,*,#197,.T.);
#268=ORIENTED_EDGE('',*,*,#210,.T.);
#269=ORIENTED_EDGE('',*,*,#211,.T.);
#270=ORIENTED_EDGE('',*,*,#212,.T.);
#271=ORIENTED_EDGE('',*,*,#196,.T.);
#272=ORIENTED_EDGE('',*,*,#213,.F.);
#273=ORIENTED_EDGE('',*,*,#214,.T.);
#274=ORIENTED_EDGE('',*,*,#210,.F.);
#275=ORIENTED_EDGE('',*,*,#201,.T.);
#276=ORIENTED_EDGE('',*,*,#209,.F.);
#277=ORIENTED_EDGE('',*,*,#215,.F.);
#278=ORIENTED_EDGE('',*,*,#216,.F.);
#279=ORIENTED_EDGE('',*,*,#217,.F.);
#280=ORIENTED_EDGE('',*,*,#215,.T.);
#281=ORIENTED_EDGE('',*,*,#208,.F.);
#282=ORIENTED_EDGE('',*,*,#206,.F.);
#283=ORIENTED_EDGE('',*,*,#182,.T.);
#284=ORIENTED_EDGE('',*,*,#191,.T.);
#285=ORIENTED_EDGE('',*,*,#212,.F.);
#286=ORIENTED_EDGE('',*,*,#218,.F.);
#287=ORIENTED_EDGE('',*,*,#219,.F.);
#288=ORIENTED_EDGE('',*,*,#220,.F.);
#289=ORIENTED_EDGE('',*,*,#218,.T.);
#290=ORIENTED_EDGE('',*,*,#211,.F.);
#291=ORIENTED_EDGE('',*,*,#214,.F.);
#292=ORIENTED_EDGE('',*,*,#179,.T.);
#293=ORIENTED_EDGE('',*,*,#192,.T.);
#294=ORIENTED_EDGE('',*,*,#219,.T.);
#295=ORIENTED_EDGE('',*,*,#220,.T.);
#296=ORIENTED_EDGE('',*,*,#213,.T.);
#297=ORIENTED_EDGE('',*,*,#195,.T.);
#298=ORIENTED_EDGE('',*,*,#203,.T.);
#299=ORIENTED_EDGE('',*,*,#202,.T.);
#300=ORIENTED_EDGE('',*,*,#216,.T.);
#301=ORIENTED_EDGE('',*,*,#217,.T.);
#302=ORIENTED_EDGE('',*,*,#205,.T.);
#303=ORIENTED_EDGE('',*,*,#185,.T.);
#304=ORIENTED_EDGE('',*,*,#193,.T.);
#305=CYLINDRICAL_SURFACE('',#341,4.38975);
#306=CYLINDRICAL_SURFACE('',#344,4.38975);
#307=CYLINDRICAL_SURFACE('',#349,5.);
#308=CYLINDRICAL_SURFACE('',#354,5.);
#309=ADVANCED_FACE('',(#39),#305,.F.);
#310=ADVANCED_FACE('',(#40),#306,.F.);
#311=ADVANCED_FACE('',(#41),#27,.F.);
#312=ADVANCED_FACE('',(#42,#23),#28,.F.);
#313=ADVANCED_FACE('',(#43),#307,.F.);
#314=ADVANCED_FACE('',(#44),#29,.F.);
#315=ADVANCED_FACE('',(#45,#24),#30,.F.);
#316=ADVANCED_FACE('',(#46),#308,.F.);
#317=ADVANCED_FACE('',(#47),#31,.T.);
#318=ADVANCED_FACE('',(#48),#32,.T.);
#319=ADVANCED_FACE('',(#49),#33,.T.);
#320=ADVANCED_FACE('',(#50),#34,.T.);
#321=ADVANCED_FACE('',(#51,#25),#35,.T.);
#322=ADVANCED_FACE('',(#52),#36,.T.);
#323=ADVANCED_FACE('',(#53,#26),#37,.T.);
#324=ADVANCED_FACE('',(#54),#38,.F.);
#325=CLOSED_SHELL('',(#309,#310,#311,#312,#313,#314,#315,#316,#317,#318,
#319,#320,#321,#322,#323,#324));
#326=DERIVED_UNIT_ELEMENT(#328,1.);
#327=DERIVED_UNIT_ELEMENT(#559,-3.);
#328=(
MASS_UNIT()
NAMED_UNIT(*)
SI_UNIT(.KILO.,.GRAM.)
);
#329=DERIVED_UNIT((#326,#327));
#330=MEASURE_REPRESENTATION_ITEM('density measure',
POSITIVE_RATIO_MEASURE(7850.),#329);
#331=PROPERTY_DEFINITION_REPRESENTATION(#336,#333);
#332=PROPERTY_DEFINITION_REPRESENTATION(#337,#334);
#333=REPRESENTATION('material name',(#335),#556);
#334=REPRESENTATION('density',(#330),#556);
#335=DESCRIPTIVE_REPRESENTATION_ITEM('Steel','Steel');
#336=PROPERTY_DEFINITION('material property','material name',#576);
#337=PROPERTY_DEFINITION('material property','density of part',#576);
#338=AXIS2_PLACEMENT_3D('',#459,#367,#368);
#339=AXIS2_PLACEMENT_3D('',#460,#369,#370);
#340=AXIS2_PLACEMENT_3D('',#461,#371,#372);
#341=AXIS2_PLACEMENT_3D('',#462,#373,#374);
#342=AXIS2_PLACEMENT_3D('',#464,#375,#376);
#343=AXIS2_PLACEMENT_3D('',#467,#378,#379);
#344=AXIS2_PLACEMENT_3D('',#468,#380,#381);
#345=AXIS2_PLACEMENT_3D('',#470,#382,#383);
#346=AXIS2_PLACEMENT_3D('',#473,#385,#386);
#347=AXIS2_PLACEMENT_3D('',#474,#387,#388);
#348=AXIS2_PLACEMENT_3D('',#483,#393,#394);
#349=AXIS2_PLACEMENT_3D('',#492,#399,#400);
#350=AXIS2_PLACEMENT_3D('',#493,#401,#402);
#351=AXIS2_PLACEMENT_3D('',#494,#403,#404);
#352=AXIS2_PLACEMENT_3D('',#495,#405,#406);
#353=AXIS2_PLACEMENT_3D('',#504,#411,#412);
#354=AXIS2_PLACEMENT_3D('',#513,#417,#418);
#355=AXIS2_PLACEMENT_3D('',#514,#419,#420);
#356=AXIS2_PLACEMENT_3D('',#515,#421,#422);
#357=AXIS2_PLACEMENT_3D('',#516,#423,#424);
#358=AXIS2_PLACEMENT_3D('',#522,#428,#429);
#359=AXIS2_PLACEMENT_3D('',#531,#435,#436);
#360=AXIS2_PLACEMENT_3D('',#535,#439,#440);
#361=AXIS2_PLACEMENT_3D('',#539,#443,#444);
#362=AXIS2_PLACEMENT_3D('',#541,#446,#447);
#363=AXIS2_PLACEMENT_3D('',#545,#450,#451);
#364=AXIS2_PLACEMENT_3D('',#547,#453,#454);
#365=AXIS2_PLACEMENT_3D('',#548,#455,#456);
#366=AXIS2_PLACEMENT_3D('',#549,#457,#458);
#367=DIRECTION('axis',(0.,0.,1.));
#368=DIRECTION('refdir',(1.,0.,0.));
#369=DIRECTION('axis',(0.,0.,1.));
#370=DIRECTION('refdir',(1.,0.,0.));
#371=DIRECTION('axis',(0.,0.,1.));
#372=DIRECTION('refdir',(1.,0.,0.));
#373=DIRECTION('center_axis',(0.,0.,-1.));
#374=DIRECTION('ref_axis',(-1.,0.,0.));
#375=DIRECTION('center_axis',(0.,0.,-1.));
#376=DIRECTION('ref_axis',(-1.,0.,0.));
#377=DIRECTION('',(0.,0.,-1.));
#378=DIRECTION('center_axis',(0.,0.,-1.));
#379=DIRECTION('ref_axis',(-1.,0.,0.));
#380=DIRECTION('center_axis',(0.,0.,1.));
#381=DIRECTION('ref_axis',(1.,0.,0.));
#382=DIRECTION('center_axis',(0.,0.,1.));
#383=DIRECTION('ref_axis',(1.,0.,0.));
#384=DIRECTION('',(0.,0.,1.));
#385=DIRECTION('center_axis',(0.,0.,1.));
#386=DIRECTION('ref_axis',(1.,0.,0.));
#387=DIRECTION('center_axis',(0.,0.,-1.));
#388=DIRECTION('ref_axis',(-1.,0.,0.));
#389=DIRECTION('',(-1.,0.,0.));
#390=DIRECTION('',(0.,-1.,0.));
#391=DIRECTION('',(1.,0.,0.));
#392=DIRECTION('',(0.,1.,0.));
#393=DIRECTION('center_axis',(0.,0.,1.));
#394=DIRECTION('ref_axis',(1.,0.,0.));
#395=DIRECTION('',(0.,1.,0.));
#396=DIRECTION('',(-1.,0.,0.));
#397=DIRECTION('',(0.,1.,0.));
#398=DIRECTION('',(1.,0.,0.));
#399=DIRECTION('center_axis',(0.,1.,0.));
#400=DIRECTION('ref_axis',(-1.,0.,0.));
#401=DIRECTION('center_axis',(0.,1.,0.));
#402=DIRECTION('ref_axis',(-1.,0.,0.));
#403=DIRECTION('center_axis',(0.,-1.,0.));
#404=DIRECTION('ref_axis',(-1.,0.,0.));
#405=DIRECTION('center_axis',(0.,0.,1.));
#406=DIRECTION('ref_axis',(1.,0.,0.));
#407=DIRECTION('',(1.,0.,0.));
#408=DIRECTION('',(0.,-1.,0.));
#409=DIRECTION('',(-1.,0.,0.));
#410=DIRECTION('',(0.,1.,0.));
#411=DIRECTION('center_axis',(0.,0.,-1.));
#412=DIRECTION('ref_axis',(-1.,0.,0.));
#413=DIRECTION('',(0.,1.,0.));
#414=DIRECTION('',(1.,0.,0.));
#415=DIRECTION('',(0.,1.,0.));
#416=DIRECTION('',(-1.,0.,0.));
#417=DIRECTION('center_axis',(0.,1.,0.));
#418=DIRECTION('ref_axis',(0.,0.,-1.));
#419=DIRECTION('center_axis',(0.,1.,0.));
#420=DIRECTION('ref_axis',(0.,0.,-1.));
#421=DIRECTION('center_axis',(0.,-1.,0.));
#422=DIRECTION('ref_axis',(0.,0.,-1.));
#423=DIRECTION('center_axis',(1.,0.,0.));
#424=DIRECTION('ref_axis',(0.,0.,-1.));
#425=DIRECTION('',(0.,0.,1.));
#426=DIRECTION('',(0.,1.,0.));
#427=DIRECTION('',(0.,0.,-1.));
#428=DIRECTION('center_axis',(0.,1.,0.));
#429=DIRECTION('ref_axis',(0.,0.,1.));
#430=DIRECTION('',(-1.,0.,0.));
#431=DIRECTION('',(0.,0.,1.));
#432=DIRECTION('',(0.,0.,1.));
#433=DIRECTION('',(1.,0.,0.));
#434=DIRECTION('',(0.,0.,-1.));
#435=DIRECTION('center_axis',(-1.,0.,0.));
#436=DIRECTION('ref_axis',(0.,0.,1.));
#437=DIRECTION('',(0.,0.,-1.));
#438=DIRECTION('',(0.,1.,0.));
#439=DIRECTION('center_axis',(-1.,0.,0.));
#440=DIRECTION('ref_axis',(0.,0.,1.));
#441=DIRECTION('',(0.,1.,0.));
#442=DIRECTION('',(0.,0.,-1.));
#443=DIRECTION('center_axis',(0.,0.,-1.));
#444=DIRECTION('ref_axis',(-1.,0.,0.));
#445=DIRECTION('',(1.,0.,0.));
#446=DIRECTION('center_axis',(1.,0.,0.));
#447=DIRECTION('ref_axis',(0.,0.,-1.));
#448=DIRECTION('',(0.,1.,0.));
#449=DIRECTION('',(0.,0.,1.));
#450=DIRECTION('center_axis',(0.,0.,1.));
#451=DIRECTION('ref_axis',(1.,0.,0.));
#452=DIRECTION('',(-1.,0.,0.));
#453=DIRECTION('center_axis',(0.,1.,0.));
#454=DIRECTION('ref_axis',(1.,0.,0.));
#455=DIRECTION('',(0.,0.,1.));
#456=DIRECTION('',(1.,0.,0.));
#457=DIRECTION('',(0.,0.,1.));
#458=DIRECTION('',(1.,0.,0.));
#459=CARTESIAN_POINT('',(0.,0.,0.));
#460=CARTESIAN_POINT('',(0.,0.,0.));
#461=CARTESIAN_POINT('',(0.,0.,0.));
#462=CARTESIAN_POINT('Origin',(25.,12.5,75.));
#463=CARTESIAN_POINT('',(29.38975,12.5,75.));
#464=CARTESIAN_POINT('Origin',(25.,12.5,75.));
#465=CARTESIAN_POINT('',(29.38975,12.5,60.));
#466=CARTESIAN_POINT('',(29.38975,12.5,75.));
#467=CARTESIAN_POINT('Origin',(25.,12.5,60.));
#468=CARTESIAN_POINT('Origin',(25.,12.5,0.));
#469=CARTESIAN_POINT('',(20.61025,12.5,0.));
#470=CARTESIAN_POINT('Origin',(25.,12.5,0.));
#471=CARTESIAN_POINT('',(20.61025,12.5,15.));
#472=CARTESIAN_POINT('',(20.61025,12.5,0.));
#473=CARTESIAN_POINT('Origin',(25.,12.5,15.));
#474=CARTESIAN_POINT('Origin',(50.,0.,50.));
#475=CARTESIAN_POINT('',(50.,0.,50.));
#476=CARTESIAN_POINT('',(20.,0.,50.));
#477=CARTESIAN_POINT('',(37.5,0.,50.));
#478=CARTESIAN_POINT('',(50.,25.,50.));
#479=CARTESIAN_POINT('',(50.,0.,50.));
#480=CARTESIAN_POINT('',(20.,25.,50.));
#481=CARTESIAN_POINT('',(37.5,25.,50.));
#482=CARTESIAN_POINT('',(20.,0.,50.));
#483=CARTESIAN_POINT('Origin',(20.,0.,60.));
#484=CARTESIAN_POINT('',(20.,0.,60.));
#485=CARTESIAN_POINT('',(20.,25.,60.));
#486=CARTESIAN_POINT('',(20.,0.,60.));
#487=CARTESIAN_POINT('',(50.,25.,60.));
#488=CARTESIAN_POINT('',(22.5,25.,60.));
#489=CARTESIAN_POINT('',(50.,0.,60.));
#490=CARTESIAN_POINT('',(50.,0.,60.));
#491=CARTESIAN_POINT('',(22.5,0.,60.));
#492=CARTESIAN_POINT('Origin',(20.,0.,55.));
#493=CARTESIAN_POINT('Origin',(20.,0.,55.));
#494=CARTESIAN_POINT('Origin',(20.,25.,55.));
#495=CARTESIAN_POINT('Origin',(0.,0.,25.));
#496=CARTESIAN_POINT('',(0.,0.,25.));
#497=CARTESIAN_POINT('',(30.,0.,25.));
#498=CARTESIAN_POINT('',(12.5,0.,25.));
#499=CARTESIAN_POINT('',(0.,25.,25.));
#500=CARTESIAN_POINT('',(0.,0.,25.));
#501=CARTESIAN_POINT('',(30.,25.,25.));
#502=CARTESIAN_POINT('',(12.5,25.,25.));
#503=CARTESIAN_POINT('',(30.,0.,25.));
#504=CARTESIAN_POINT('Origin',(30.,0.,15.));
#505=CARTESIAN_POINT('',(30.,0.,15.));
#506=CARTESIAN_POINT('',(30.,25.,15.));
#507=CARTESIAN_POINT('',(30.,0.,15.));
#508=CARTESIAN_POINT('',(0.,25.,15.));
#509=CARTESIAN_POINT('',(27.5,25.,15.));
#510=CARTESIAN_POINT('',(0.,0.,15.));
#511=CARTESIAN_POINT('',(0.,0.,15.));
#512=CARTESIAN_POINT('',(27.5,0.,15.));
#513=CARTESIAN_POINT('Origin',(30.,0.,20.));
#514=CARTESIAN_POINT('Origin',(30.,0.,20.));
#515=CARTESIAN_POINT('Origin',(30.,25.,20.));
#516=CARTESIAN_POINT('Origin',(50.,0.,75.));
#517=CARTESIAN_POINT('',(50.,0.,0.));
#518=CARTESIAN_POINT('',(50.,0.,0.));
#519=CARTESIAN_POINT('',(50.,25.,0.));
#520=CARTESIAN_POINT('',(50.,0.,0.));
#521=CARTESIAN_POINT('',(50.,25.,0.));
#522=CARTESIAN_POINT('Origin',(25.,25.,37.5));
#523=CARTESIAN_POINT('',(0.,25.,0.));
#524=CARTESIAN_POINT('',(0.,25.,0.));
#525=CARTESIAN_POINT('',(0.,25.,75.));
#526=CARTESIAN_POINT('',(0.,25.,75.));
#527=CARTESIAN_POINT('',(0.,25.,75.));
#528=CARTESIAN_POINT('',(50.,25.,75.));
#529=CARTESIAN_POINT('',(50.,25.,75.));
#530=CARTESIAN_POINT('',(50.,25.,0.));
#531=CARTESIAN_POINT('Origin',(0.,0.,0.));
#532=CARTESIAN_POINT('',(0.,0.,75.));
#533=CARTESIAN_POINT('',(0.,0.,75.));
#534=CARTESIAN_POINT('',(0.,0.,75.));
#535=CARTESIAN_POINT('Origin',(0.,0.,0.));
#536=CARTESIAN_POINT('',(0.,0.,0.));
#537=CARTESIAN_POINT('',(0.,0.,0.));
#538=CARTESIAN_POINT('',(0.,0.,75.));
#539=CARTESIAN_POINT('Origin',(50.,0.,0.));
#540=CARTESIAN_POINT('',(0.,0.,0.));
#541=CARTESIAN_POINT('Origin',(50.,0.,75.));
#542=CARTESIAN_POINT('',(50.,0.,75.));
#543=CARTESIAN_POINT('',(50.,0.,75.));
#544=CARTESIAN_POINT('',(50.,0.,0.));
#545=CARTESIAN_POINT('Origin',(0.,0.,75.));
#546=CARTESIAN_POINT('',(50.,0.,75.));
#547=CARTESIAN_POINT('Origin',(25.,0.,37.5));
#548=CARTESIAN_POINT('',(0.,0.,0.));
#549=CARTESIAN_POINT('',(0.,0.,0.));
#550=UNCERTAINTY_MEASURE_WITH_UNIT(LENGTH_MEASURE(0.01),#558,
'DISTANCE_ACCURACY_VALUE',
'Maximum model space distance between geometric entities at asserted c
onnectivities');
#551=UNCERTAINTY_MEASURE_WITH_UNIT(LENGTH_MEASURE(0.01),#558,
'DISTANCE_ACCURACY_VALUE',
'Maximum model space distance between geometric entities at asserted c
onnectivities');
#552=UNCERTAINTY_MEASURE_WITH_UNIT(LENGTH_MEASURE(0.01),#558,
'DISTANCE_ACCURACY_VALUE',
'Maximum model space distance between geometric entities at asserted c
onnectivities');
#553=UNCERTAINTY_MEASURE_WITH_UNIT(LENGTH_MEASURE(0.01),#558,
'DISTANCE_ACCURACY_VALUE',
'Maximum model space distance between geometric entities at asserted c
onnectivities');
#554=(
GEOMETRIC_REPRESENTATION_CONTEXT(3)
GLOBAL_UNCERTAINTY_ASSIGNED_CONTEXT((#550))
GLOBAL_UNIT_ASSIGNED_CONTEXT((#558,#560,#561))
REPRESENTATION_CONTEXT('','3D')
);
#555=(
GEOMETRIC_REPRESENTATION_CONTEXT(3)
GLOBAL_UNCERTAINTY_ASSIGNED_CONTEXT((#551))
GLOBAL_UNIT_ASSIGNED_CONTEXT((#558,#560,#561))
REPRESENTATION_CONTEXT('','3D')
);
#556=(
GEOMETRIC_REPRESENTATION_CONTEXT(3)
GLOBAL_UNCERTAINTY_ASSIGNED_CONTEXT((#552))
GLOBAL_UNIT_ASSIGNED_CONTEXT((#558,#560,#561))
REPRESENTATION_CONTEXT('','3D')
);
#557=(
GEOMETRIC_REPRESENTATION_CONTEXT(3)
GLOBAL_UNCERTAINTY_ASSIGNED_CONTEXT((#553))
GLOBAL_UNIT_ASSIGNED_CONTEXT((#558,#560,#561))
REPRESENTATION_CONTEXT('','3D')
);
#558=(
LENGTH_UNIT()
NAMED_UNIT(*)
SI_UNIT(.MILLI.,.METRE.)
);
#559=(
LENGTH_UNIT()
NAMED_UNIT(*)
SI_UNIT($,.METRE.)
);
#560=(
NAMED_UNIT(*)
PLANE_ANGLE_UNIT()
SI_UNIT($,.RADIAN.)
);
#561=(
NAMED_UNIT(*)
SI_UNIT($,.STERADIAN.)
SOLID_ANGLE_UNIT()
);
#562=SHAPE_DEFINITION_REPRESENTATION(#565,#570);
#563=SHAPE_DEFINITION_REPRESENTATION(#566,#571);
#564=SHAPE_DEFINITION_REPRESENTATION(#567,#572);
#565=PRODUCT_DEFINITION_SHAPE('',$,#574);
#566=PRODUCT_DEFINITION_SHAPE('',$,#575);
#567=PRODUCT_DEFINITION_SHAPE('',$,#576);
#568=PRODUCT_DEFINITION_SHAPE($,$,#17);
#569=PRODUCT_DEFINITION_SHAPE($,$,#18);
#570=SHAPE_REPRESENTATION('',(#338,#366),#554);
#571=SHAPE_REPRESENTATION('',(#339,#365),#555);
#572=SHAPE_REPRESENTATION('',(#340),#556);
#573=PRODUCT_DEFINITION_CONTEXT('part definition',#584,'design');
#574=PRODUCT_DEFINITION('LOAD CELL','LOAD CELL v1',#577,#573);
#575=PRODUCT_DEFINITION('LOAD CELL (1)','LOAD CELL (1)',#578,#573);
#576=PRODUCT_DEFINITION('LOAD CELL_1','LOAD CELL',#579,#573);
#577=PRODUCT_DEFINITION_FORMATION('',$,#586);
#578=PRODUCT_DEFINITION_FORMATION('',$,#587);
#579=PRODUCT_DEFINITION_FORMATION('',$,#588);
#580=PRODUCT_RELATED_PRODUCT_CATEGORY('LOAD CELL v1','LOAD CELL v1',(#586));
#581=PRODUCT_RELATED_PRODUCT_CATEGORY('LOAD CELL (1)','LOAD CELL (1)',(#587));
#582=PRODUCT_RELATED_PRODUCT_CATEGORY('LOAD CELL','LOAD CELL',(#588));
#583=APPLICATION_PROTOCOL_DEFINITION('international standard',
'automotive_design',2009,#584);
#584=APPLICATION_CONTEXT(
'Core Data for Automotive Mechanical Design Process');
#585=PRODUCT_CONTEXT('part definition',#584,'mechanical');
#586=PRODUCT('LOAD CELL','LOAD CELL v1',$,(#585));
#587=PRODUCT('LOAD CELL (1)','LOAD CELL (1)',$,(#585));
#588=PRODUCT('LOAD CELL_1','LOAD CELL',$,(#585));
#589=PRESENTATION_STYLE_ASSIGNMENT((#590));
#590=SURFACE_STYLE_USAGE(.BOTH.,#591);
#591=SURFACE_SIDE_STYLE('',(#592));
#592=SURFACE_STYLE_FILL_AREA(#593);
#593=FILL_AREA_STYLE('Steel - Satin',(#594));
#594=FILL_AREA_STYLE_COLOUR('Steel - Satin',#595);
#595=COLOUR_RGB('Steel - Satin',0.627450980392157,0.627450980392157,0.627450980392157);
ENDSEC;
END-ISO-10303-21;
