ISO-10303-21;
HEADER;
/* Generated by software containing ST-Developer
 * from STEP Tools, Inc. (www.steptools.com) 
 */

FILE_DESCRIPTION(
/* description */ (''),
/* implementation_level */ '2;1');

FILE_NAME(
/* name */ 
'Moving Crosshead along with load cell and load applier v1.step',
/* time_stamp */ '2025-07-18T20:18:00+05:30',
/* author */ (''),
/* organization */ (''),
/* preprocessor_version */ 'ST-DEVELOPER v20.1',
/* originating_system */ 'Autodesk Translation Framework v14.10.0.0',
/* authorisation */ '');

FILE_SCHEMA (('AUTOMOTIVE_DESIGN { 1 0 10303 214 3 1 1 }'));
ENDSEC;

DATA;
#10=MECHANICAL_DESIGN_GEOMETRIC_PRESENTATION_REPRESENTATION('',(#47,#48,
#49,#50),#1216);
#11=ITEM_DEFINED_TRANSFORMATION($,$,#740,#765);
#12=ITEM_DEFINED_TRANSFORMATION($,$,#739,#766);
#13=ITEM_DEFINED_TRANSFORMATION($,$,#722,#795);
#14=ITEM_DEFINED_TRANSFORMATION($,$,#767,#796);
#15=ITEM_DEFINED_TRANSFORMATION($,$,#738,#797);
#16=ITEM_DEFINED_TRANSFORMATION($,$,#767,#798);
#17=ITEM_DEFINED_TRANSFORMATION($,$,#781,#799);
#18=(
REPRESENTATION_RELATIONSHIP($,$,#1246,#1245)
REPRESENTATION_RELATIONSHIP_WITH_TRANSFORMATION(#11)
SHAPE_REPRESENTATION_RELATIONSHIP()
);
#19=(
REPRESENTATION_RELATIONSHIP($,$,#1245,#1244)
REPRESENTATION_RELATIONSHIP_WITH_TRANSFORMATION(#12)
SHAPE_REPRESENTATION_RELATIONSHIP()
);
#20=(
REPRESENTATION_RELATIONSHIP($,$,#1243,#1242)
REPRESENTATION_RELATIONSHIP_WITH_TRANSFORMATION(#13)
SHAPE_REPRESENTATION_RELATIONSHIP()
);
#21=(
REPRESENTATION_RELATIONSHIP($,$,#1247,#1242)
REPRESENTATION_RELATIONSHIP_WITH_TRANSFORMATION(#14)
SHAPE_REPRESENTATION_RELATIONSHIP()
);
#22=(
REPRESENTATION_RELATIONSHIP($,$,#1244,#1242)
REPRESENTATION_RELATIONSHIP_WITH_TRANSFORMATION(#15)
SHAPE_REPRESENTATION_RELATIONSHIP()
);
#23=(
REPRESENTATION_RELATIONSHIP($,$,#1247,#1242)
REPRESENTATION_RELATIONSHIP_WITH_TRANSFORMATION(#16)
SHAPE_REPRESENTATION_RELATIONSHIP()
);
#24=(
REPRESENTATION_RELATIONSHIP($,$,#1248,#1242)
REPRESENTATION_RELATIONSHIP_WITH_TRANSFORMATION(#17)
SHAPE_REPRESENTATION_RELATIONSHIP()
);
#25=CONTEXT_DEPENDENT_SHAPE_REPRESENTATION(#18,#1233);
#26=CONTEXT_DEPENDENT_SHAPE_REPRESENTATION(#19,#1234);
#27=CONTEXT_DEPENDENT_SHAPE_REPRESENTATION(#20,#1237);
#28=CONTEXT_DEPENDENT_SHAPE_REPRESENTATION(#21,#1238);
#29=CONTEXT_DEPENDENT_SHAPE_REPRESENTATION(#22,#1239);
#30=CONTEXT_DEPENDENT_SHAPE_REPRESENTATION(#23,#1240);
#31=CONTEXT_DEPENDENT_SHAPE_REPRESENTATION(#24,#1241);
#32=NEXT_ASSEMBLY_USAGE_OCCURRENCE('LOAD CELL:1','LOAD CELL:1',
'LOAD CELL:1',#1253,#1254,'LOAD CELL:1');
#33=NEXT_ASSEMBLY_USAGE_OCCURRENCE('LOAD CELL (1):1','LOAD CELL (1):1',
'LOAD CELL (1):1',#1252,#1253,'LOAD CELL (1):1');
#34=NEXT_ASSEMBLY_USAGE_OCCURRENCE('A_movecross v1:1',
'A_movecross v1:1','A_movecross v1:1',#1250,#1251,'A_movecross v1:1');
#35=NEXT_ASSEMBLY_USAGE_OCCURRENCE('LOAD CELL JOINT NUT v1:1',
'LOAD CELL JOINT NUT v1:1','LOAD CELL JOINT NUT v1:1',#1250,#1255,
'LOAD CELL JOINT NUT v1:1');
#36=NEXT_ASSEMBLY_USAGE_OCCURRENCE('LOAD CELL v1:1','LOAD CELL v1:1',
'LOAD CELL v1:1',#1250,#1252,'LOAD CELL v1:1');
#37=NEXT_ASSEMBLY_USAGE_OCCURRENCE('LOAD CELL JOINT NUT v1:2',
'LOAD CELL JOINT NUT v1:2','LOAD CELL JOINT NUT v1:2',#1250,#1255,
'LOAD CELL JOINT NUT v1:2');
#38=NEXT_ASSEMBLY_USAGE_OCCURRENCE('LOAD APPLIER v1:1',
'LOAD APPLIER v1:1','LOAD APPLIER v1:1',#1250,#1256,'LOAD APPLIER v1:1');
#39=SHAPE_REPRESENTATION_RELATIONSHIP('SRR','None',#1243,#43);
#40=SHAPE_REPRESENTATION_RELATIONSHIP('SRR','None',#1246,#44);
#41=SHAPE_REPRESENTATION_RELATIONSHIP('SRR','None',#1247,#45);
#42=SHAPE_REPRESENTATION_RELATIONSHIP('SRR','None',#1248,#46);
#43=ADVANCED_BREP_SHAPE_REPRESENTATION('',(#51),#1210);
#44=ADVANCED_BREP_SHAPE_REPRESENTATION('',(#52),#1213);
#45=ADVANCED_BREP_SHAPE_REPRESENTATION('',(#53),#1214);
#46=ADVANCED_BREP_SHAPE_REPRESENTATION('',(#54),#1215);
#47=STYLED_ITEM('',(#1282),#51);
#48=STYLED_ITEM('',(#1281),#52);
#49=STYLED_ITEM('',(#1281),#53);
#50=STYLED_ITEM('',(#1281),#54);
#51=MANIFOLD_SOLID_BREP('Body1',#672);
#52=MANIFOLD_SOLID_BREP('Body1',#673);
#53=MANIFOLD_SOLID_BREP('Body1',#674);
#54=MANIFOLD_SOLID_BREP('Body1',#675);
#55=FACE_BOUND('',#142,.T.);
#56=FACE_BOUND('',#143,.T.);
#57=FACE_BOUND('',#144,.T.);
#58=FACE_BOUND('',#146,.T.);
#59=FACE_BOUND('',#147,.T.);
#60=FACE_BOUND('',#148,.T.);
#61=FACE_BOUND('',#153,.T.);
#62=FACE_BOUND('',#157,.T.);
#63=FACE_BOUND('',#164,.T.);
#64=FACE_BOUND('',#167,.T.);
#65=FACE_BOUND('',#175,.T.);
#66=FACE_BOUND('',#177,.T.);
#67=FACE_BOUND('',#181,.T.);
#68=FACE_BOUND('',#186,.T.);
#69=PLANE('',#732);
#70=PLANE('',#733);
#71=PLANE('',#734);
#72=PLANE('',#735);
#73=PLANE('',#736);
#74=PLANE('',#737);
#75=PLANE('',#747);
#76=PLANE('',#748);
#77=PLANE('',#752);
#78=PLANE('',#753);
#79=PLANE('',#757);
#80=PLANE('',#758);
#81=PLANE('',#759);
#82=PLANE('',#760);
#83=PLANE('',#761);
#84=PLANE('',#762);
#85=PLANE('',#763);
#86=PLANE('',#764);
#87=PLANE('',#771);
#88=PLANE('',#775);
#89=PLANE('',#779);
#90=PLANE('',#780);
#91=PLANE('',#785);
#92=PLANE('',#786);
#93=PLANE('',#791);
#94=PLANE('',#794);
#95=FACE_OUTER_BOUND('',#134,.T.);
#96=FACE_OUTER_BOUND('',#135,.T.);
#97=FACE_OUTER_BOUND('',#136,.T.);
#98=FACE_OUTER_BOUND('',#137,.T.);
#99=FACE_OUTER_BOUND('',#138,.T.);
#100=FACE_OUTER_BOUND('',#139,.T.);
#101=FACE_OUTER_BOUND('',#140,.T.);
#102=FACE_OUTER_BOUND('',#141,.T.);
#103=FACE_OUTER_BOUND('',#145,.T.);
#104=FACE_OUTER_BOUND('',#149,.T.);
#105=FACE_OUTER_BOUND('',#150,.T.);
#106=FACE_OUTER_BOUND('',#151,.T.);
#107=FACE_OUTER_BOUND('',#152,.T.);
#108=FACE_OUTER_BOUND('',#154,.T.);
#109=FACE_OUTER_BOUND('',#155,.T.);
#110=FACE_OUTER_BOUND('',#156,.T.);
#111=FACE_OUTER_BOUND('',#158,.T.);
#112=FACE_OUTER_BOUND('',#159,.T.);
#113=FACE_OUTER_BOUND('',#160,.T.);
#114=FACE_OUTER_BOUND('',#161,.T.);
#115=FACE_OUTER_BOUND('',#162,.T.);
#116=FACE_OUTER_BOUND('',#163,.T.);
#117=FACE_OUTER_BOUND('',#165,.T.);
#118=FACE_OUTER_BOUND('',#166,.T.);
#119=FACE_OUTER_BOUND('',#168,.T.);
#120=FACE_OUTER_BOUND('',#169,.T.);
#121=FACE_OUTER_BOUND('',#170,.T.);
#122=FACE_OUTER_BOUND('',#171,.T.);
#123=FACE_OUTER_BOUND('',#172,.T.);
#124=FACE_OUTER_BOUND('',#173,.T.);
#125=FACE_OUTER_BOUND('',#174,.T.);
#126=FACE_OUTER_BOUND('',#176,.T.);
#127=FACE_OUTER_BOUND('',#178,.T.);
#128=FACE_OUTER_BOUND('',#179,.T.);
#129=FACE_OUTER_BOUND('',#180,.T.);
#130=FACE_OUTER_BOUND('',#182,.T.);
#131=FACE_OUTER_BOUND('',#183,.T.);
#132=FACE_OUTER_BOUND('',#184,.T.);
#133=FACE_OUTER_BOUND('',#185,.T.);
#134=EDGE_LOOP('',(#458,#459,#460,#461));
#135=EDGE_LOOP('',(#462,#463,#464,#465));
#136=EDGE_LOOP('',(#466,#467,#468,#469));
#137=EDGE_LOOP('',(#470,#471,#472,#473));
#138=EDGE_LOOP('',(#474,#475,#476,#477));
#139=EDGE_LOOP('',(#478,#479,#480,#481));
#140=EDGE_LOOP('',(#482,#483,#484,#485));
#141=EDGE_LOOP('',(#486,#487,#488,#489));
#142=EDGE_LOOP('',(#490));
#143=EDGE_LOOP('',(#491));
#144=EDGE_LOOP('',(#492));
#145=EDGE_LOOP('',(#493,#494,#495,#496));
#146=EDGE_LOOP('',(#497));
#147=EDGE_LOOP('',(#498));
#148=EDGE_LOOP('',(#499));
#149=EDGE_LOOP('',(#500,#501,#502,#503));
#150=EDGE_LOOP('',(#504,#505,#506,#507));
#151=EDGE_LOOP('',(#508,#509,#510,#511));
#152=EDGE_LOOP('',(#512,#513,#514,#515));
#153=EDGE_LOOP('',(#516));
#154=EDGE_LOOP('',(#517,#518,#519,#520));
#155=EDGE_LOOP('',(#521,#522,#523,#524));
#156=EDGE_LOOP('',(#525,#526,#527,#528));
#157=EDGE_LOOP('',(#529));
#158=EDGE_LOOP('',(#530,#531,#532,#533));
#159=EDGE_LOOP('',(#534,#535,#536,#537));
#160=EDGE_LOOP('',(#538,#539,#540,#541,#542,#543,#544,#545,#546,#547,#548,
#549));
#161=EDGE_LOOP('',(#550,#551,#552,#553));
#162=EDGE_LOOP('',(#554,#555,#556,#557));
#163=EDGE_LOOP('',(#558,#559,#560,#561));
#164=EDGE_LOOP('',(#562));
#165=EDGE_LOOP('',(#563,#564,#565,#566));
#166=EDGE_LOOP('',(#567,#568,#569,#570));
#167=EDGE_LOOP('',(#571));
#168=EDGE_LOOP('',(#572,#573,#574,#575,#576,#577,#578,#579,#580,#581,#582,
#583));
#169=EDGE_LOOP('',(#584,#585,#586,#587));
#170=EDGE_LOOP('',(#588));
#171=EDGE_LOOP('',(#589,#590,#591,#592));
#172=EDGE_LOOP('',(#593));
#173=EDGE_LOOP('',(#594,#595,#596,#597));
#174=EDGE_LOOP('',(#598));
#175=EDGE_LOOP('',(#599));
#176=EDGE_LOOP('',(#600));
#177=EDGE_LOOP('',(#601));
#178=EDGE_LOOP('',(#602,#603,#604,#605));
#179=EDGE_LOOP('',(#606));
#180=EDGE_LOOP('',(#607));
#181=EDGE_LOOP('',(#608));
#182=EDGE_LOOP('',(#609,#610,#611,#612));
#183=EDGE_LOOP('',(#613));
#184=EDGE_LOOP('',(#614,#615,#616,#617));
#185=EDGE_LOOP('',(#618));
#186=EDGE_LOOP('',(#619));
#187=LINE('',#1019,#242);
#188=LINE('',#1025,#243);
#189=LINE('',#1031,#244);
#190=LINE('',#1036,#245);
#191=LINE('',#1038,#246);
#192=LINE('',#1040,#247);
#193=LINE('',#1041,#248);
#194=LINE('',#1044,#249);
#195=LINE('',#1046,#250);
#196=LINE('',#1047,#251);
#197=LINE('',#1050,#252);
#198=LINE('',#1052,#253);
#199=LINE('',#1053,#254);
#200=LINE('',#1055,#255);
#201=LINE('',#1056,#256);
#202=LINE('',#1066,#257);
#203=LINE('',#1072,#258);
#204=LINE('',#1077,#259);
#205=LINE('',#1079,#260);
#206=LINE('',#1081,#261);
#207=LINE('',#1082,#262);
#208=LINE('',#1086,#263);
#209=LINE('',#1088,#264);
#210=LINE('',#1090,#265);
#211=LINE('',#1091,#266);
#212=LINE('',#1098,#267);
#213=LINE('',#1100,#268);
#214=LINE('',#1102,#269);
#215=LINE('',#1103,#270);
#216=LINE('',#1107,#271);
#217=LINE('',#1109,#272);
#218=LINE('',#1111,#273);
#219=LINE('',#1112,#274);
#220=LINE('',#1118,#275);
#221=LINE('',#1120,#276);
#222=LINE('',#1121,#277);
#223=LINE('',#1124,#278);
#224=LINE('',#1125,#279);
#225=LINE('',#1127,#280);
#226=LINE('',#1129,#281);
#227=LINE('',#1130,#282);
#228=LINE('',#1133,#283);
#229=LINE('',#1134,#284);
#230=LINE('',#1137,#285);
#231=LINE('',#1138,#286);
#232=LINE('',#1140,#287);
#233=LINE('',#1143,#288);
#234=LINE('',#1144,#289);
#235=LINE('',#1146,#290);
#236=LINE('',#1155,#291);
#237=LINE('',#1162,#292);
#238=LINE('',#1169,#293);
#239=LINE('',#1178,#294);
#240=LINE('',#1189,#295);
#241=LINE('',#1193,#296);
#242=VECTOR('',#808,5.);
#243=VECTOR('',#815,10.);
#244=VECTOR('',#822,10.);
#245=VECTOR('',#827,10.);
#246=VECTOR('',#828,10.);
#247=VECTOR('',#829,10.);
#248=VECTOR('',#830,10.);
#249=VECTOR('',#833,10.);
#250=VECTOR('',#834,10.);
#251=VECTOR('',#835,10.);
#252=VECTOR('',#838,10.);
#253=VECTOR('',#839,10.);
#254=VECTOR('',#840,10.);
#255=VECTOR('',#843,10.);
#256=VECTOR('',#844,10.);
#257=VECTOR('',#859,6.);
#258=VECTOR('',#866,6.);
#259=VECTOR('',#871,10.);
#260=VECTOR('',#872,10.);
#261=VECTOR('',#873,10.);
#262=VECTOR('',#874,10.);
#263=VECTOR('',#877,10.);
#264=VECTOR('',#878,10.);
#265=VECTOR('',#879,10.);
#266=VECTOR('',#880,10.);
#267=VECTOR('',#889,10.);
#268=VECTOR('',#890,10.);
#269=VECTOR('',#891,10.);
#270=VECTOR('',#892,10.);
#271=VECTOR('',#895,10.);
#272=VECTOR('',#896,10.);
#273=VECTOR('',#897,10.);
#274=VECTOR('',#898,10.);
#275=VECTOR('',#907,10.);
#276=VECTOR('',#908,10.);
#277=VECTOR('',#909,10.);
#278=VECTOR('',#912,10.);
#279=VECTOR('',#913,10.);
#280=VECTOR('',#914,10.);
#281=VECTOR('',#915,10.);
#282=VECTOR('',#916,10.);
#283=VECTOR('',#919,10.);
#284=VECTOR('',#920,10.);
#285=VECTOR('',#923,10.);
#286=VECTOR('',#924,10.);
#287=VECTOR('',#927,10.);
#288=VECTOR('',#930,10.);
#289=VECTOR('',#931,10.);
#290=VECTOR('',#934,10.);
#291=VECTOR('',#947,5.);
#292=VECTOR('',#956,5.);
#293=VECTOR('',#965,7.5);
#294=VECTOR('',#978,5.);
#295=VECTOR('',#993,40.);
#296=VECTOR('',#998,25.);
#297=CIRCLE('',#724,5.);
#298=CIRCLE('',#725,5.);
#299=CIRCLE('',#727,10.);
#300=CIRCLE('',#728,10.);
#301=CIRCLE('',#730,10.);
#302=CIRCLE('',#731,10.);
#303=CIRCLE('',#742,4.38975);
#304=CIRCLE('',#743,4.38975);
#305=CIRCLE('',#745,4.38975);
#306=CIRCLE('',#746,4.38975);
#307=CIRCLE('',#750,5.);
#308=CIRCLE('',#751,5.);
#309=CIRCLE('',#755,5.);
#310=CIRCLE('',#756,5.);
#311=CIRCLE('',#769,4.933);
#312=CIRCLE('',#770,4.933);
#313=CIRCLE('',#773,4.933);
#314=CIRCLE('',#774,4.933);
#315=CIRCLE('',#777,7.5);
#316=CIRCLE('',#778,7.5);
#317=CIRCLE('',#783,4.38975);
#318=CIRCLE('',#784,4.38975);
#319=CIRCLE('',#787,40.);
#320=CIRCLE('',#788,25.);
#321=CIRCLE('',#790,40.);
#322=CIRCLE('',#793,25.);
#323=VERTEX_POINT('',#1016);
#324=VERTEX_POINT('',#1018);
#325=VERTEX_POINT('',#1022);
#326=VERTEX_POINT('',#1024);
#327=VERTEX_POINT('',#1028);
#328=VERTEX_POINT('',#1030);
#329=VERTEX_POINT('',#1034);
#330=VERTEX_POINT('',#1035);
#331=VERTEX_POINT('',#1037);
#332=VERTEX_POINT('',#1039);
#333=VERTEX_POINT('',#1043);
#334=VERTEX_POINT('',#1045);
#335=VERTEX_POINT('',#1049);
#336=VERTEX_POINT('',#1051);
#337=VERTEX_POINT('',#1063);
#338=VERTEX_POINT('',#1065);
#339=VERTEX_POINT('',#1069);
#340=VERTEX_POINT('',#1071);
#341=VERTEX_POINT('',#1075);
#342=VERTEX_POINT('',#1076);
#343=VERTEX_POINT('',#1078);
#344=VERTEX_POINT('',#1080);
#345=VERTEX_POINT('',#1084);
#346=VERTEX_POINT('',#1085);
#347=VERTEX_POINT('',#1087);
#348=VERTEX_POINT('',#1089);
#349=VERTEX_POINT('',#1096);
#350=VERTEX_POINT('',#1097);
#351=VERTEX_POINT('',#1099);
#352=VERTEX_POINT('',#1101);
#353=VERTEX_POINT('',#1105);
#354=VERTEX_POINT('',#1106);
#355=VERTEX_POINT('',#1108);
#356=VERTEX_POINT('',#1110);
#357=VERTEX_POINT('',#1117);
#358=VERTEX_POINT('',#1119);
#359=VERTEX_POINT('',#1123);
#360=VERTEX_POINT('',#1126);
#361=VERTEX_POINT('',#1128);
#362=VERTEX_POINT('',#1132);
#363=VERTEX_POINT('',#1136);
#364=VERTEX_POINT('',#1142);
#365=VERTEX_POINT('',#1152);
#366=VERTEX_POINT('',#1154);
#367=VERTEX_POINT('',#1159);
#368=VERTEX_POINT('',#1161);
#369=VERTEX_POINT('',#1166);
#370=VERTEX_POINT('',#1168);
#371=VERTEX_POINT('',#1175);
#372=VERTEX_POINT('',#1177);
#373=VERTEX_POINT('',#1182);
#374=VERTEX_POINT('',#1184);
#375=VERTEX_POINT('',#1187);
#376=VERTEX_POINT('',#1192);
#377=EDGE_CURVE('',#323,#323,#297,.T.);
#378=EDGE_CURVE('',#323,#324,#187,.T.);
#379=EDGE_CURVE('',#324,#324,#298,.T.);
#380=EDGE_CURVE('',#325,#325,#299,.T.);
#381=EDGE_CURVE('',#325,#326,#188,.T.);
#382=EDGE_CURVE('',#326,#326,#300,.T.);
#383=EDGE_CURVE('',#327,#327,#301,.T.);
#384=EDGE_CURVE('',#327,#328,#189,.T.);
#385=EDGE_CURVE('',#328,#328,#302,.T.);
#386=EDGE_CURVE('',#329,#330,#190,.T.);
#387=EDGE_CURVE('',#330,#331,#191,.T.);
#388=EDGE_CURVE('',#332,#331,#192,.T.);
#389=EDGE_CURVE('',#329,#332,#193,.T.);
#390=EDGE_CURVE('',#333,#329,#194,.T.);
#391=EDGE_CURVE('',#334,#332,#195,.T.);
#392=EDGE_CURVE('',#333,#334,#196,.T.);
#393=EDGE_CURVE('',#335,#333,#197,.T.);
#394=EDGE_CURVE('',#336,#334,#198,.T.);
#395=EDGE_CURVE('',#335,#336,#199,.T.);
#396=EDGE_CURVE('',#330,#335,#200,.T.);
#397=EDGE_CURVE('',#331,#336,#201,.T.);
#398=EDGE_CURVE('',#337,#337,#303,.T.);
#399=EDGE_CURVE('',#337,#338,#202,.T.);
#400=EDGE_CURVE('',#338,#338,#304,.T.);
#401=EDGE_CURVE('',#339,#339,#305,.T.);
#402=EDGE_CURVE('',#339,#340,#203,.T.);
#403=EDGE_CURVE('',#340,#340,#306,.T.);
#404=EDGE_CURVE('',#341,#342,#204,.T.);
#405=EDGE_CURVE('',#343,#341,#205,.T.);
#406=EDGE_CURVE('',#344,#343,#206,.T.);
#407=EDGE_CURVE('',#342,#344,#207,.T.);
#408=EDGE_CURVE('',#345,#346,#208,.T.);
#409=EDGE_CURVE('',#347,#346,#209,.T.);
#410=EDGE_CURVE('',#348,#347,#210,.T.);
#411=EDGE_CURVE('',#345,#348,#211,.T.);
#412=EDGE_CURVE('',#342,#345,#307,.T.);
#413=EDGE_CURVE('',#346,#344,#308,.T.);
#414=EDGE_CURVE('',#349,#350,#212,.T.);
#415=EDGE_CURVE('',#351,#349,#213,.T.);
#416=EDGE_CURVE('',#352,#351,#214,.T.);
#417=EDGE_CURVE('',#350,#352,#215,.T.);
#418=EDGE_CURVE('',#353,#354,#216,.T.);
#419=EDGE_CURVE('',#355,#354,#217,.T.);
#420=EDGE_CURVE('',#356,#355,#218,.T.);
#421=EDGE_CURVE('',#353,#356,#219,.T.);
#422=EDGE_CURVE('',#350,#353,#309,.T.);
#423=EDGE_CURVE('',#354,#352,#310,.T.);
#424=EDGE_CURVE('',#357,#341,#220,.T.);
#425=EDGE_CURVE('',#357,#358,#221,.T.);
#426=EDGE_CURVE('',#343,#358,#222,.T.);
#427=EDGE_CURVE('',#358,#359,#223,.T.);
#428=EDGE_CURVE('',#359,#355,#224,.T.);
#429=EDGE_CURVE('',#351,#360,#225,.T.);
#430=EDGE_CURVE('',#360,#361,#226,.T.);
#431=EDGE_CURVE('',#361,#347,#227,.T.);
#432=EDGE_CURVE('',#362,#349,#228,.T.);
#433=EDGE_CURVE('',#362,#360,#229,.T.);
#434=EDGE_CURVE('',#363,#359,#230,.T.);
#435=EDGE_CURVE('',#356,#363,#231,.T.);
#436=EDGE_CURVE('',#363,#357,#232,.T.);
#437=EDGE_CURVE('',#364,#361,#233,.T.);
#438=EDGE_CURVE('',#348,#364,#234,.T.);
#439=EDGE_CURVE('',#364,#362,#235,.T.);
#440=EDGE_CURVE('',#365,#365,#311,.F.);
#441=EDGE_CURVE('',#365,#366,#236,.T.);
#442=EDGE_CURVE('',#366,#366,#312,.F.);
#443=EDGE_CURVE('',#367,#367,#313,.F.);
#444=EDGE_CURVE('',#367,#368,#237,.T.);
#445=EDGE_CURVE('',#368,#368,#314,.T.);
#446=EDGE_CURVE('',#369,#369,#315,.T.);
#447=EDGE_CURVE('',#369,#370,#238,.T.);
#448=EDGE_CURVE('',#370,#370,#316,.T.);
#449=EDGE_CURVE('',#371,#371,#317,.F.);
#450=EDGE_CURVE('',#371,#372,#239,.T.);
#451=EDGE_CURVE('',#372,#372,#318,.T.);
#452=EDGE_CURVE('',#373,#373,#319,.T.);
#453=EDGE_CURVE('',#374,#374,#320,.T.);
#454=EDGE_CURVE('',#375,#375,#321,.T.);
#455=EDGE_CURVE('',#375,#373,#240,.T.);
#456=EDGE_CURVE('',#374,#376,#241,.T.);
#457=EDGE_CURVE('',#376,#376,#322,.T.);
#458=ORIENTED_EDGE('',*,*,#377,.F.);
#459=ORIENTED_EDGE('',*,*,#378,.T.);
#460=ORIENTED_EDGE('',*,*,#379,.F.);
#461=ORIENTED_EDGE('',*,*,#378,.F.);
#462=ORIENTED_EDGE('',*,*,#380,.F.);
#463=ORIENTED_EDGE('',*,*,#381,.T.);
#464=ORIENTED_EDGE('',*,*,#382,.T.);
#465=ORIENTED_EDGE('',*,*,#381,.F.);
#466=ORIENTED_EDGE('',*,*,#383,.F.);
#467=ORIENTED_EDGE('',*,*,#384,.T.);
#468=ORIENTED_EDGE('',*,*,#385,.T.);
#469=ORIENTED_EDGE('',*,*,#384,.F.);
#470=ORIENTED_EDGE('',*,*,#386,.T.);
#471=ORIENTED_EDGE('',*,*,#387,.T.);
#472=ORIENTED_EDGE('',*,*,#388,.F.);
#473=ORIENTED_EDGE('',*,*,#389,.F.);
#474=ORIENTED_EDGE('',*,*,#390,.T.);
#475=ORIENTED_EDGE('',*,*,#389,.T.);
#476=ORIENTED_EDGE('',*,*,#391,.F.);
#477=ORIENTED_EDGE('',*,*,#392,.F.);
#478=ORIENTED_EDGE('',*,*,#393,.T.);
#479=ORIENTED_EDGE('',*,*,#392,.T.);
#480=ORIENTED_EDGE('',*,*,#394,.F.);
#481=ORIENTED_EDGE('',*,*,#395,.F.);
#482=ORIENTED_EDGE('',*,*,#396,.T.);
#483=ORIENTED_EDGE('',*,*,#395,.T.);
#484=ORIENTED_EDGE('',*,*,#397,.F.);
#485=ORIENTED_EDGE('',*,*,#387,.F.);
#486=ORIENTED_EDGE('',*,*,#397,.T.);
#487=ORIENTED_EDGE('',*,*,#394,.T.);
#488=ORIENTED_EDGE('',*,*,#391,.T.);
#489=ORIENTED_EDGE('',*,*,#388,.T.);
#490=ORIENTED_EDGE('',*,*,#377,.T.);
#491=ORIENTED_EDGE('',*,*,#383,.T.);
#492=ORIENTED_EDGE('',*,*,#380,.T.);
#493=ORIENTED_EDGE('',*,*,#396,.F.);
#494=ORIENTED_EDGE('',*,*,#386,.F.);
#495=ORIENTED_EDGE('',*,*,#390,.F.);
#496=ORIENTED_EDGE('',*,*,#393,.F.);
#497=ORIENTED_EDGE('',*,*,#379,.T.);
#498=ORIENTED_EDGE('',*,*,#385,.F.);
#499=ORIENTED_EDGE('',*,*,#382,.F.);
#500=ORIENTED_EDGE('',*,*,#398,.F.);
#501=ORIENTED_EDGE('',*,*,#399,.T.);
#502=ORIENTED_EDGE('',*,*,#400,.T.);
#503=ORIENTED_EDGE('',*,*,#399,.F.);
#504=ORIENTED_EDGE('',*,*,#401,.F.);
#505=ORIENTED_EDGE('',*,*,#402,.T.);
#506=ORIENTED_EDGE('',*,*,#403,.T.);
#507=ORIENTED_EDGE('',*,*,#402,.F.);
#508=ORIENTED_EDGE('',*,*,#404,.F.);
#509=ORIENTED_EDGE('',*,*,#405,.F.);
#510=ORIENTED_EDGE('',*,*,#406,.F.);
#511=ORIENTED_EDGE('',*,*,#407,.F.);
#512=ORIENTED_EDGE('',*,*,#408,.T.);
#513=ORIENTED_EDGE('',*,*,#409,.F.);
#514=ORIENTED_EDGE('',*,*,#410,.F.);
#515=ORIENTED_EDGE('',*,*,#411,.F.);
#516=ORIENTED_EDGE('',*,*,#400,.F.);
#517=ORIENTED_EDGE('',*,*,#408,.F.);
#518=ORIENTED_EDGE('',*,*,#412,.F.);
#519=ORIENTED_EDGE('',*,*,#407,.T.);
#520=ORIENTED_EDGE('',*,*,#413,.F.);
#521=ORIENTED_EDGE('',*,*,#414,.F.);
#522=ORIENTED_EDGE('',*,*,#415,.F.);
#523=ORIENTED_EDGE('',*,*,#416,.F.);
#524=ORIENTED_EDGE('',*,*,#417,.F.);
#525=ORIENTED_EDGE('',*,*,#418,.T.);
#526=ORIENTED_EDGE('',*,*,#419,.F.);
#527=ORIENTED_EDGE('',*,*,#420,.F.);
#528=ORIENTED_EDGE('',*,*,#421,.F.);
#529=ORIENTED_EDGE('',*,*,#403,.F.);
#530=ORIENTED_EDGE('',*,*,#418,.F.);
#531=ORIENTED_EDGE('',*,*,#422,.F.);
#532=ORIENTED_EDGE('',*,*,#417,.T.);
#533=ORIENTED_EDGE('',*,*,#423,.F.);
#534=ORIENTED_EDGE('',*,*,#405,.T.);
#535=ORIENTED_EDGE('',*,*,#424,.F.);
#536=ORIENTED_EDGE('',*,*,#425,.T.);
#537=ORIENTED_EDGE('',*,*,#426,.F.);
#538=ORIENTED_EDGE('',*,*,#409,.T.);
#539=ORIENTED_EDGE('',*,*,#413,.T.);
#540=ORIENTED_EDGE('',*,*,#406,.T.);
#541=ORIENTED_EDGE('',*,*,#426,.T.);
#542=ORIENTED_EDGE('',*,*,#427,.T.);
#543=ORIENTED_EDGE('',*,*,#428,.T.);
#544=ORIENTED_EDGE('',*,*,#419,.T.);
#545=ORIENTED_EDGE('',*,*,#423,.T.);
#546=ORIENTED_EDGE('',*,*,#416,.T.);
#547=ORIENTED_EDGE('',*,*,#429,.T.);
#548=ORIENTED_EDGE('',*,*,#430,.T.);
#549=ORIENTED_EDGE('',*,*,#431,.T.);
#550=ORIENTED_EDGE('',*,*,#415,.T.);
#551=ORIENTED_EDGE('',*,*,#432,.F.);
#552=ORIENTED_EDGE('',*,*,#433,.T.);
#553=ORIENTED_EDGE('',*,*,#429,.F.);
#554=ORIENTED_EDGE('',*,*,#420,.T.);
#555=ORIENTED_EDGE('',*,*,#428,.F.);
#556=ORIENTED_EDGE('',*,*,#434,.F.);
#557=ORIENTED_EDGE('',*,*,#435,.F.);
#558=ORIENTED_EDGE('',*,*,#436,.F.);
#559=ORIENTED_EDGE('',*,*,#434,.T.);
#560=ORIENTED_EDGE('',*,*,#427,.F.);
#561=ORIENTED_EDGE('',*,*,#425,.F.);
#562=ORIENTED_EDGE('',*,*,#401,.T.);
#563=ORIENTED_EDGE('',*,*,#410,.T.);
#564=ORIENTED_EDGE('',*,*,#431,.F.);
#565=ORIENTED_EDGE('',*,*,#437,.F.);
#566=ORIENTED_EDGE('',*,*,#438,.F.);
#567=ORIENTED_EDGE('',*,*,#439,.F.);
#568=ORIENTED_EDGE('',*,*,#437,.T.);
#569=ORIENTED_EDGE('',*,*,#430,.F.);
#570=ORIENTED_EDGE('',*,*,#433,.F.);
#571=ORIENTED_EDGE('',*,*,#398,.T.);
#572=ORIENTED_EDGE('',*,*,#411,.T.);
#573=ORIENTED_EDGE('',*,*,#438,.T.);
#574=ORIENTED_EDGE('',*,*,#439,.T.);
#575=ORIENTED_EDGE('',*,*,#432,.T.);
#576=ORIENTED_EDGE('',*,*,#414,.T.);
#577=ORIENTED_EDGE('',*,*,#422,.T.);
#578=ORIENTED_EDGE('',*,*,#421,.T.);
#579=ORIENTED_EDGE('',*,*,#435,.T.);
#580=ORIENTED_EDGE('',*,*,#436,.T.);
#581=ORIENTED_EDGE('',*,*,#424,.T.);
#582=ORIENTED_EDGE('',*,*,#404,.T.);
#583=ORIENTED_EDGE('',*,*,#412,.T.);
#584=ORIENTED_EDGE('',*,*,#440,.F.);
#585=ORIENTED_EDGE('',*,*,#441,.T.);
#586=ORIENTED_EDGE('',*,*,#442,.F.);
#587=ORIENTED_EDGE('',*,*,#441,.F.);
#588=ORIENTED_EDGE('',*,*,#440,.T.);
#589=ORIENTED_EDGE('',*,*,#443,.F.);
#590=ORIENTED_EDGE('',*,*,#444,.T.);
#591=ORIENTED_EDGE('',*,*,#445,.F.);
#592=ORIENTED_EDGE('',*,*,#444,.F.);
#593=ORIENTED_EDGE('',*,*,#443,.T.);
#594=ORIENTED_EDGE('',*,*,#446,.F.);
#595=ORIENTED_EDGE('',*,*,#447,.T.);
#596=ORIENTED_EDGE('',*,*,#448,.T.);
#597=ORIENTED_EDGE('',*,*,#447,.F.);
#598=ORIENTED_EDGE('',*,*,#446,.T.);
#599=ORIENTED_EDGE('',*,*,#445,.T.);
#600=ORIENTED_EDGE('',*,*,#448,.F.);
#601=ORIENTED_EDGE('',*,*,#442,.T.);
#602=ORIENTED_EDGE('',*,*,#449,.F.);
#603=ORIENTED_EDGE('',*,*,#450,.T.);
#604=ORIENTED_EDGE('',*,*,#451,.T.);
#605=ORIENTED_EDGE('',*,*,#450,.F.);
#606=ORIENTED_EDGE('',*,*,#451,.F.);
#607=ORIENTED_EDGE('',*,*,#452,.F.);
#608=ORIENTED_EDGE('',*,*,#453,.T.);
#609=ORIENTED_EDGE('',*,*,#454,.F.);
#610=ORIENTED_EDGE('',*,*,#455,.T.);
#611=ORIENTED_EDGE('',*,*,#452,.T.);
#612=ORIENTED_EDGE('',*,*,#455,.F.);
#613=ORIENTED_EDGE('',*,*,#454,.T.);
#614=ORIENTED_EDGE('',*,*,#453,.F.);
#615=ORIENTED_EDGE('',*,*,#456,.T.);
#616=ORIENTED_EDGE('',*,*,#457,.T.);
#617=ORIENTED_EDGE('',*,*,#456,.F.);
#618=ORIENTED_EDGE('',*,*,#457,.F.);
#619=ORIENTED_EDGE('',*,*,#449,.T.);
#620=CYLINDRICAL_SURFACE('',#723,5.);
#621=CYLINDRICAL_SURFACE('',#726,10.);
#622=CYLINDRICAL_SURFACE('',#729,10.);
#623=CYLINDRICAL_SURFACE('',#741,4.38975);
#624=CYLINDRICAL_SURFACE('',#744,4.38975);
#625=CYLINDRICAL_SURFACE('',#749,5.);
#626=CYLINDRICAL_SURFACE('',#754,5.);
#627=CYLINDRICAL_SURFACE('',#768,4.933);
#628=CYLINDRICAL_SURFACE('',#772,4.933);
#629=CYLINDRICAL_SURFACE('',#776,7.5);
#630=CYLINDRICAL_SURFACE('',#782,4.38975);
#631=CYLINDRICAL_SURFACE('',#789,40.);
#632=CYLINDRICAL_SURFACE('',#792,25.);
#633=ADVANCED_FACE('',(#95),#620,.F.);
#634=ADVANCED_FACE('',(#96),#621,.F.);
#635=ADVANCED_FACE('',(#97),#622,.F.);
#636=ADVANCED_FACE('',(#98),#69,.T.);
#637=ADVANCED_FACE('',(#99),#70,.T.);
#638=ADVANCED_FACE('',(#100),#71,.T.);
#639=ADVANCED_FACE('',(#101),#72,.T.);
#640=ADVANCED_FACE('',(#102,#55,#56,#57),#73,.T.);
#641=ADVANCED_FACE('',(#103,#58,#59,#60),#74,.F.);
#642=ADVANCED_FACE('',(#104),#623,.F.);
#643=ADVANCED_FACE('',(#105),#624,.F.);
#644=ADVANCED_FACE('',(#106),#75,.F.);
#645=ADVANCED_FACE('',(#107,#61),#76,.F.);
#646=ADVANCED_FACE('',(#108),#625,.F.);
#647=ADVANCED_FACE('',(#109),#77,.F.);
#648=ADVANCED_FACE('',(#110,#62),#78,.F.);
#649=ADVANCED_FACE('',(#111),#626,.F.);
#650=ADVANCED_FACE('',(#112),#79,.T.);
#651=ADVANCED_FACE('',(#113),#80,.T.);
#652=ADVANCED_FACE('',(#114),#81,.T.);
#653=ADVANCED_FACE('',(#115),#82,.T.);
#654=ADVANCED_FACE('',(#116,#63),#83,.T.);
#655=ADVANCED_FACE('',(#117),#84,.T.);
#656=ADVANCED_FACE('',(#118,#64),#85,.T.);
#657=ADVANCED_FACE('',(#119),#86,.F.);
#658=ADVANCED_FACE('',(#120),#627,.T.);
#659=ADVANCED_FACE('',(#121),#87,.T.);
#660=ADVANCED_FACE('',(#122),#628,.T.);
#661=ADVANCED_FACE('',(#123),#88,.T.);
#662=ADVANCED_FACE('',(#124),#629,.T.);
#663=ADVANCED_FACE('',(#125,#65),#89,.T.);
#664=ADVANCED_FACE('',(#126,#66),#90,.F.);
#665=ADVANCED_FACE('',(#127),#630,.F.);
#666=ADVANCED_FACE('',(#128),#91,.T.);
#667=ADVANCED_FACE('',(#129,#67),#92,.F.);
#668=ADVANCED_FACE('',(#130),#631,.T.);
#669=ADVANCED_FACE('',(#131),#93,.T.);
#670=ADVANCED_FACE('',(#132),#632,.T.);
#671=ADVANCED_FACE('',(#133,#68),#94,.F.);
#672=CLOSED_SHELL('',(#633,#634,#635,#636,#637,#638,#639,#640,#641));
#673=CLOSED_SHELL('',(#642,#643,#644,#645,#646,#647,#648,#649,#650,#651,
#652,#653,#654,#655,#656,#657));
#674=CLOSED_SHELL('',(#658,#659,#660,#661,#662,#663,#664));
#675=CLOSED_SHELL('',(#665,#666,#667,#668,#669,#670,#671));
#676=DERIVED_UNIT_ELEMENT(#684,1.);
#677=DERIVED_UNIT_ELEMENT(#1218,-3.);
#678=DERIVED_UNIT_ELEMENT(#684,1.);
#679=DERIVED_UNIT_ELEMENT(#1218,-3.);
#680=DERIVED_UNIT_ELEMENT(#684,1.);
#681=DERIVED_UNIT_ELEMENT(#1218,-3.);
#682=DERIVED_UNIT_ELEMENT(#684,1.);
#683=DERIVED_UNIT_ELEMENT(#1218,-3.);
#684=(
MASS_UNIT()
NAMED_UNIT(*)
SI_UNIT(.KILO.,.GRAM.)
);
#685=DERIVED_UNIT((#676,#677));
#686=DERIVED_UNIT((#678,#679));
#687=DERIVED_UNIT((#680,#681));
#688=DERIVED_UNIT((#682,#683));
#689=MEASURE_REPRESENTATION_ITEM('density measure',
POSITIVE_RATIO_MEASURE(7850.),#685);
#690=MEASURE_REPRESENTATION_ITEM('density measure',
POSITIVE_RATIO_MEASURE(7850.),#686);
#691=MEASURE_REPRESENTATION_ITEM('density measure',
POSITIVE_RATIO_MEASURE(7850.),#687);
#692=MEASURE_REPRESENTATION_ITEM('density measure',
POSITIVE_RATIO_MEASURE(930.),#688);
#693=PROPERTY_DEFINITION_REPRESENTATION(#713,#701);
#694=PROPERTY_DEFINITION_REPRESENTATION(#714,#702);
#695=PROPERTY_DEFINITION_REPRESENTATION(#715,#703);
#696=PROPERTY_DEFINITION_REPRESENTATION(#716,#704);
#697=PROPERTY_DEFINITION_REPRESENTATION(#717,#705);
#698=PROPERTY_DEFINITION_REPRESENTATION(#718,#706);
#699=PROPERTY_DEFINITION_REPRESENTATION(#719,#707);
#700=PROPERTY_DEFINITION_REPRESENTATION(#720,#708);
#701=REPRESENTATION('material name',(#709),#1210);
#702=REPRESENTATION('density',(#689),#1210);
#703=REPRESENTATION('material name',(#710),#1213);
#704=REPRESENTATION('density',(#690),#1213);
#705=REPRESENTATION('material name',(#711),#1214);
#706=REPRESENTATION('density',(#691),#1214);
#707=REPRESENTATION('material name',(#712),#1215);
#708=REPRESENTATION('density',(#692),#1215);
#709=DESCRIPTIVE_REPRESENTATION_ITEM('Steel','Steel');
#710=DESCRIPTIVE_REPRESENTATION_ITEM('Steel','Steel');
#711=DESCRIPTIVE_REPRESENTATION_ITEM('Steel','Steel');
#712=DESCRIPTIVE_REPRESENTATION_ITEM('Rubber','Rubber');
#713=PROPERTY_DEFINITION('material property','material name',#1251);
#714=PROPERTY_DEFINITION('material property','density of part',#1251);
#715=PROPERTY_DEFINITION('material property','material name',#1254);
#716=PROPERTY_DEFINITION('material property','density of part',#1254);
#717=PROPERTY_DEFINITION('material property','material name',#1255);
#718=PROPERTY_DEFINITION('material property','density of part',#1255);
#719=PROPERTY_DEFINITION('material property','material name',#1256);
#720=PROPERTY_DEFINITION('material property','density of part',#1256);
#721=AXIS2_PLACEMENT_3D('',#1013,#800,#801);
#722=AXIS2_PLACEMENT_3D('',#1014,#802,#803);
#723=AXIS2_PLACEMENT_3D('',#1015,#804,#805);
#724=AXIS2_PLACEMENT_3D('',#1017,#806,#807);
#725=AXIS2_PLACEMENT_3D('',#1020,#809,#810);
#726=AXIS2_PLACEMENT_3D('',#1021,#811,#812);
#727=AXIS2_PLACEMENT_3D('',#1023,#813,#814);
#728=AXIS2_PLACEMENT_3D('',#1026,#816,#817);
#729=AXIS2_PLACEMENT_3D('',#1027,#818,#819);
#730=AXIS2_PLACEMENT_3D('',#1029,#820,#821);
#731=AXIS2_PLACEMENT_3D('',#1032,#823,#824);
#732=AXIS2_PLACEMENT_3D('',#1033,#825,#826);
#733=AXIS2_PLACEMENT_3D('',#1042,#831,#832);
#734=AXIS2_PLACEMENT_3D('',#1048,#836,#837);
#735=AXIS2_PLACEMENT_3D('',#1054,#841,#842);
#736=AXIS2_PLACEMENT_3D('',#1057,#845,#846);
#737=AXIS2_PLACEMENT_3D('',#1058,#847,#848);
#738=AXIS2_PLACEMENT_3D('',#1059,#849,#850);
#739=AXIS2_PLACEMENT_3D('',#1060,#851,#852);
#740=AXIS2_PLACEMENT_3D('',#1061,#853,#854);
#741=AXIS2_PLACEMENT_3D('',#1062,#855,#856);
#742=AXIS2_PLACEMENT_3D('',#1064,#857,#858);
#743=AXIS2_PLACEMENT_3D('',#1067,#860,#861);
#744=AXIS2_PLACEMENT_3D('',#1068,#862,#863);
#745=AXIS2_PLACEMENT_3D('',#1070,#864,#865);
#746=AXIS2_PLACEMENT_3D('',#1073,#867,#868);
#747=AXIS2_PLACEMENT_3D('',#1074,#869,#870);
#748=AXIS2_PLACEMENT_3D('',#1083,#875,#876);
#749=AXIS2_PLACEMENT_3D('',#1092,#881,#882);
#750=AXIS2_PLACEMENT_3D('',#1093,#883,#884);
#751=AXIS2_PLACEMENT_3D('',#1094,#885,#886);
#752=AXIS2_PLACEMENT_3D('',#1095,#887,#888);
#753=AXIS2_PLACEMENT_3D('',#1104,#893,#894);
#754=AXIS2_PLACEMENT_3D('',#1113,#899,#900);
#755=AXIS2_PLACEMENT_3D('',#1114,#901,#902);
#756=AXIS2_PLACEMENT_3D('',#1115,#903,#904);
#757=AXIS2_PLACEMENT_3D('',#1116,#905,#906);
#758=AXIS2_PLACEMENT_3D('',#1122,#910,#911);
#759=AXIS2_PLACEMENT_3D('',#1131,#917,#918);
#760=AXIS2_PLACEMENT_3D('',#1135,#921,#922);
#761=AXIS2_PLACEMENT_3D('',#1139,#925,#926);
#762=AXIS2_PLACEMENT_3D('',#1141,#928,#929);
#763=AXIS2_PLACEMENT_3D('',#1145,#932,#933);
#764=AXIS2_PLACEMENT_3D('',#1147,#935,#936);
#765=AXIS2_PLACEMENT_3D('',#1148,#937,#938);
#766=AXIS2_PLACEMENT_3D('',#1149,#939,#940);
#767=AXIS2_PLACEMENT_3D('',#1150,#941,#942);
#768=AXIS2_PLACEMENT_3D('',#1151,#943,#944);
#769=AXIS2_PLACEMENT_3D('',#1153,#945,#946);
#770=AXIS2_PLACEMENT_3D('',#1156,#948,#949);
#771=AXIS2_PLACEMENT_3D('',#1157,#950,#951);
#772=AXIS2_PLACEMENT_3D('',#1158,#952,#953);
#773=AXIS2_PLACEMENT_3D('',#1160,#954,#955);
#774=AXIS2_PLACEMENT_3D('',#1163,#957,#958);
#775=AXIS2_PLACEMENT_3D('',#1164,#959,#960);
#776=AXIS2_PLACEMENT_3D('',#1165,#961,#962);
#777=AXIS2_PLACEMENT_3D('',#1167,#963,#964);
#778=AXIS2_PLACEMENT_3D('',#1170,#966,#967);
#779=AXIS2_PLACEMENT_3D('',#1171,#968,#969);
#780=AXIS2_PLACEMENT_3D('',#1172,#970,#971);
#781=AXIS2_PLACEMENT_3D('',#1173,#972,#973);
#782=AXIS2_PLACEMENT_3D('',#1174,#974,#975);
#783=AXIS2_PLACEMENT_3D('',#1176,#976,#977);
#784=AXIS2_PLACEMENT_3D('',#1179,#979,#980);
#785=AXIS2_PLACEMENT_3D('',#1180,#981,#982);
#786=AXIS2_PLACEMENT_3D('',#1181,#983,#984);
#787=AXIS2_PLACEMENT_3D('',#1183,#985,#986);
#788=AXIS2_PLACEMENT_3D('',#1185,#987,#988);
#789=AXIS2_PLACEMENT_3D('',#1186,#989,#990);
#790=AXIS2_PLACEMENT_3D('',#1188,#991,#992);
#791=AXIS2_PLACEMENT_3D('',#1190,#994,#995);
#792=AXIS2_PLACEMENT_3D('',#1191,#996,#997);
#793=AXIS2_PLACEMENT_3D('',#1194,#999,#1000);
#794=AXIS2_PLACEMENT_3D('',#1195,#1001,#1002);
#795=AXIS2_PLACEMENT_3D('',#1196,#1003,#1004);
#796=AXIS2_PLACEMENT_3D('',#1197,#1005,#1006);
#797=AXIS2_PLACEMENT_3D('',#1198,#1007,#1008);
#798=AXIS2_PLACEMENT_3D('',#1199,#1009,#1010);
#799=AXIS2_PLACEMENT_3D('',#1200,#1011,#1012);
#800=DIRECTION('axis',(0.,0.,1.));
#801=DIRECTION('refdir',(1.,0.,0.));
#802=DIRECTION('axis',(0.,0.,1.));
#803=DIRECTION('refdir',(1.,0.,0.));
#804=DIRECTION('center_axis',(0.,0.,-1.));
#805=DIRECTION('ref_axis',(-1.,0.,0.));
#806=DIRECTION('center_axis',(0.,0.,-1.));
#807=DIRECTION('ref_axis',(-1.,0.,0.));
#808=DIRECTION('',(0.,0.,-1.));
#809=DIRECTION('center_axis',(0.,0.,1.));
#810=DIRECTION('ref_axis',(-1.,0.,0.));
#811=DIRECTION('center_axis',(0.,0.,1.));
#812=DIRECTION('ref_axis',(1.,0.,0.));
#813=DIRECTION('center_axis',(0.,0.,-1.));
#814=DIRECTION('ref_axis',(1.,0.,0.));
#815=DIRECTION('',(0.,0.,-1.));
#816=DIRECTION('center_axis',(0.,0.,-1.));
#817=DIRECTION('ref_axis',(1.,0.,0.));
#818=DIRECTION('center_axis',(0.,0.,1.));
#819=DIRECTION('ref_axis',(1.,0.,0.));
#820=DIRECTION('center_axis',(0.,0.,-1.));
#821=DIRECTION('ref_axis',(1.,0.,0.));
#822=DIRECTION('',(0.,0.,-1.));
#823=DIRECTION('center_axis',(0.,0.,-1.));
#824=DIRECTION('ref_axis',(1.,0.,0.));
#825=DIRECTION('center_axis',(0.,1.,0.));
#826=DIRECTION('ref_axis',(-1.,0.,0.));
#827=DIRECTION('',(-1.,0.,0.));
#828=DIRECTION('',(0.,0.,1.));
#829=DIRECTION('',(-1.,0.,0.));
#830=DIRECTION('',(0.,0.,1.));
#831=DIRECTION('center_axis',(1.,0.,0.));
#832=DIRECTION('ref_axis',(0.,1.,0.));
#833=DIRECTION('',(0.,1.,0.));
#834=DIRECTION('',(0.,1.,0.));
#835=DIRECTION('',(0.,0.,1.));
#836=DIRECTION('center_axis',(0.,-1.,0.));
#837=DIRECTION('ref_axis',(1.,0.,0.));
#838=DIRECTION('',(1.,0.,0.));
#839=DIRECTION('',(1.,0.,0.));
#840=DIRECTION('',(0.,0.,1.));
#841=DIRECTION('center_axis',(-1.,0.,0.));
#842=DIRECTION('ref_axis',(0.,-1.,0.));
#843=DIRECTION('',(0.,-1.,0.));
#844=DIRECTION('',(0.,-1.,0.));
#845=DIRECTION('center_axis',(0.,0.,1.));
#846=DIRECTION('ref_axis',(1.,0.,0.));
#847=DIRECTION('center_axis',(0.,0.,1.));
#848=DIRECTION('ref_axis',(1.,0.,0.));
#849=DIRECTION('axis',(0.,0.,1.));
#850=DIRECTION('refdir',(1.,0.,0.));
#851=DIRECTION('axis',(0.,0.,1.));
#852=DIRECTION('refdir',(1.,0.,0.));
#853=DIRECTION('axis',(0.,0.,1.));
#854=DIRECTION('refdir',(1.,0.,0.));
#855=DIRECTION('center_axis',(0.,0.,-1.));
#856=DIRECTION('ref_axis',(-1.,0.,0.));
#857=DIRECTION('center_axis',(0.,0.,-1.));
#858=DIRECTION('ref_axis',(-1.,0.,0.));
#859=DIRECTION('',(0.,0.,-1.));
#860=DIRECTION('center_axis',(0.,0.,-1.));
#861=DIRECTION('ref_axis',(-1.,0.,0.));
#862=DIRECTION('center_axis',(0.,0.,1.));
#863=DIRECTION('ref_axis',(1.,0.,0.));
#864=DIRECTION('center_axis',(0.,0.,1.));
#865=DIRECTION('ref_axis',(1.,0.,0.));
#866=DIRECTION('',(0.,0.,1.));
#867=DIRECTION('center_axis',(0.,0.,1.));
#868=DIRECTION('ref_axis',(1.,0.,0.));
#869=DIRECTION('center_axis',(0.,0.,-1.));
#870=DIRECTION('ref_axis',(-1.,0.,0.));
#871=DIRECTION('',(-1.,0.,0.));
#872=DIRECTION('',(0.,-1.,0.));
#873=DIRECTION('',(1.,0.,0.));
#874=DIRECTION('',(0.,1.,0.));
#875=DIRECTION('center_axis',(0.,0.,1.));
#876=DIRECTION('ref_axis',(1.,0.,0.));
#877=DIRECTION('',(0.,1.,0.));
#878=DIRECTION('',(-1.,0.,0.));
#879=DIRECTION('',(0.,1.,0.));
#880=DIRECTION('',(1.,0.,0.));
#881=DIRECTION('center_axis',(0.,1.,0.));
#882=DIRECTION('ref_axis',(-1.,0.,0.));
#883=DIRECTION('center_axis',(0.,1.,0.));
#884=DIRECTION('ref_axis',(-1.,0.,0.));
#885=DIRECTION('center_axis',(0.,-1.,0.));
#886=DIRECTION('ref_axis',(-1.,0.,0.));
#887=DIRECTION('center_axis',(0.,0.,1.));
#888=DIRECTION('ref_axis',(1.,0.,0.));
#889=DIRECTION('',(1.,0.,0.));
#890=DIRECTION('',(0.,-1.,0.));
#891=DIRECTION('',(-1.,0.,0.));
#892=DIRECTION('',(0.,1.,0.));
#893=DIRECTION('center_axis',(0.,0.,-1.));
#894=DIRECTION('ref_axis',(-1.,0.,0.));
#895=DIRECTION('',(0.,1.,0.));
#896=DIRECTION('',(1.,0.,0.));
#897=DIRECTION('',(0.,1.,0.));
#898=DIRECTION('',(-1.,0.,0.));
#899=DIRECTION('center_axis',(0.,1.,0.));
#900=DIRECTION('ref_axis',(0.,0.,-1.));
#901=DIRECTION('center_axis',(0.,1.,0.));
#902=DIRECTION('ref_axis',(0.,0.,-1.));
#903=DIRECTION('center_axis',(0.,-1.,0.));
#904=DIRECTION('ref_axis',(0.,0.,-1.));
#905=DIRECTION('center_axis',(1.,0.,0.));
#906=DIRECTION('ref_axis',(0.,0.,-1.));
#907=DIRECTION('',(0.,0.,1.));
#908=DIRECTION('',(0.,1.,0.));
#909=DIRECTION('',(0.,0.,-1.));
#910=DIRECTION('center_axis',(0.,1.,0.));
#911=DIRECTION('ref_axis',(0.,0.,1.));
#912=DIRECTION('',(-1.,0.,0.));
#913=DIRECTION('',(0.,0.,1.));
#914=DIRECTION('',(0.,0.,1.));
#915=DIRECTION('',(1.,0.,0.));
#916=DIRECTION('',(0.,0.,-1.));
#917=DIRECTION('center_axis',(-1.,0.,0.));
#918=DIRECTION('ref_axis',(0.,0.,1.));
#919=DIRECTION('',(0.,0.,-1.));
#920=DIRECTION('',(0.,1.,0.));
#921=DIRECTION('center_axis',(-1.,0.,0.));
#922=DIRECTION('ref_axis',(0.,0.,1.));
#923=DIRECTION('',(0.,1.,0.));
#924=DIRECTION('',(0.,0.,-1.));
#925=DIRECTION('center_axis',(0.,0.,-1.));
#926=DIRECTION('ref_axis',(-1.,0.,0.));
#927=DIRECTION('',(1.,0.,0.));
#928=DIRECTION('center_axis',(1.,0.,0.));
#929=DIRECTION('ref_axis',(0.,0.,-1.));
#930=DIRECTION('',(0.,1.,0.));
#931=DIRECTION('',(0.,0.,1.));
#932=DIRECTION('center_axis',(0.,0.,1.));
#933=DIRECTION('ref_axis',(1.,0.,0.));
#934=DIRECTION('',(-1.,0.,0.));
#935=DIRECTION('center_axis',(0.,1.,0.));
#936=DIRECTION('ref_axis',(1.,0.,0.));
#937=DIRECTION('',(0.,0.,1.));
#938=DIRECTION('',(1.,0.,0.));
#939=DIRECTION('',(0.,0.,1.));
#940=DIRECTION('',(1.,0.,0.));
#941=DIRECTION('axis',(0.,0.,1.));
#942=DIRECTION('refdir',(1.,0.,0.));
#943=DIRECTION('center_axis',(0.,0.,-1.));
#944=DIRECTION('ref_axis',(1.,0.,0.));
#945=DIRECTION('center_axis',(0.,0.,1.));
#946=DIRECTION('ref_axis',(1.,0.,0.));
#947=DIRECTION('',(0.,0.,1.));
#948=DIRECTION('center_axis',(0.,0.,-1.));
#949=DIRECTION('ref_axis',(1.,0.,0.));
#950=DIRECTION('center_axis',(0.,0.,-1.));
#951=DIRECTION('ref_axis',(1.,0.,0.));
#952=DIRECTION('center_axis',(0.,0.,1.));
#953=DIRECTION('ref_axis',(-1.,0.,0.));
#954=DIRECTION('center_axis',(0.,0.,-1.));
#955=DIRECTION('ref_axis',(-1.,0.,0.));
#956=DIRECTION('',(0.,0.,-1.));
#957=DIRECTION('center_axis',(0.,0.,-1.));
#958=DIRECTION('ref_axis',(-1.,0.,0.));
#959=DIRECTION('center_axis',(0.,0.,1.));
#960=DIRECTION('ref_axis',(-1.,0.,0.));
#961=DIRECTION('center_axis',(0.,0.,1.));
#962=DIRECTION('ref_axis',(1.,0.,0.));
#963=DIRECTION('center_axis',(0.,0.,1.));
#964=DIRECTION('ref_axis',(1.,0.,0.));
#965=DIRECTION('',(0.,0.,-1.));
#966=DIRECTION('center_axis',(0.,0.,1.));
#967=DIRECTION('ref_axis',(1.,0.,0.));
#968=DIRECTION('center_axis',(0.,0.,1.));
#969=DIRECTION('ref_axis',(1.,0.,0.));
#970=DIRECTION('center_axis',(0.,0.,1.));
#971=DIRECTION('ref_axis',(1.,0.,0.));
#972=DIRECTION('axis',(0.,0.,1.));
#973=DIRECTION('refdir',(1.,0.,0.));
#974=DIRECTION('center_axis',(0.,0.,1.));
#975=DIRECTION('ref_axis',(1.,0.,0.));
#976=DIRECTION('center_axis',(0.,0.,-1.));
#977=DIRECTION('ref_axis',(1.,0.,0.));
#978=DIRECTION('',(0.,0.,1.));
#979=DIRECTION('center_axis',(0.,0.,1.));
#980=DIRECTION('ref_axis',(1.,0.,0.));
#981=DIRECTION('center_axis',(0.,0.,-1.));
#982=DIRECTION('ref_axis',(1.,0.,0.));
#983=DIRECTION('center_axis',(0.,0.,1.));
#984=DIRECTION('ref_axis',(-1.,0.,0.));
#985=DIRECTION('center_axis',(0.,0.,1.));
#986=DIRECTION('ref_axis',(-1.,0.,0.));
#987=DIRECTION('center_axis',(0.,0.,1.));
#988=DIRECTION('ref_axis',(1.,0.,0.));
#989=DIRECTION('center_axis',(0.,0.,1.));
#990=DIRECTION('ref_axis',(-1.,0.,0.));
#991=DIRECTION('center_axis',(0.,0.,1.));
#992=DIRECTION('ref_axis',(-1.,0.,0.));
#993=DIRECTION('',(0.,0.,-1.));
#994=DIRECTION('center_axis',(0.,0.,1.));
#995=DIRECTION('ref_axis',(-1.,0.,0.));
#996=DIRECTION('center_axis',(0.,0.,1.));
#997=DIRECTION('ref_axis',(1.,0.,0.));
#998=DIRECTION('',(0.,0.,-1.));
#999=DIRECTION('center_axis',(0.,0.,1.));
#1000=DIRECTION('ref_axis',(1.,0.,0.));
#1001=DIRECTION('center_axis',(0.,0.,1.));
#1002=DIRECTION('ref_axis',(1.,0.,0.));
#1003=DIRECTION('',(0.,0.,1.));
#1004=DIRECTION('',(1.,0.,0.));
#1005=DIRECTION('',(0.,0.,1.));
#1006=DIRECTION('',(1.,0.,0.));
#1007=DIRECTION('',(0.,0.,1.));
#1008=DIRECTION('',(1.,0.,0.));
#1009=DIRECTION('',(0.,0.,1.));
#1010=DIRECTION('',(1.,0.,0.));
#1011=DIRECTION('',(0.,0.,-1.));
#1012=DIRECTION('',(1.,0.,0.));
#1013=CARTESIAN_POINT('',(0.,0.,0.));
#1014=CARTESIAN_POINT('',(0.,0.,0.));
#1015=CARTESIAN_POINT('Origin',(300.,20.,50.));
#1016=CARTESIAN_POINT('',(305.,20.,50.));
#1017=CARTESIAN_POINT('Origin',(300.,20.,50.));
#1018=CARTESIAN_POINT('',(305.,20.,0.));
#1019=CARTESIAN_POINT('',(305.,20.,50.));
#1020=CARTESIAN_POINT('Origin',(300.,20.,0.));
#1021=CARTESIAN_POINT('Origin',(30.,20.,0.));
#1022=CARTESIAN_POINT('',(20.,20.,50.));
#1023=CARTESIAN_POINT('Origin',(30.,20.,50.));
#1024=CARTESIAN_POINT('',(20.,20.,0.));
#1025=CARTESIAN_POINT('',(20.,20.,0.));
#1026=CARTESIAN_POINT('Origin',(30.,20.,0.));
#1027=CARTESIAN_POINT('Origin',(570.,20.,0.));
#1028=CARTESIAN_POINT('',(560.,20.,50.));
#1029=CARTESIAN_POINT('Origin',(570.,20.,50.));
#1030=CARTESIAN_POINT('',(560.,20.,0.));
#1031=CARTESIAN_POINT('',(560.,20.,0.));
#1032=CARTESIAN_POINT('Origin',(570.,20.,0.));
#1033=CARTESIAN_POINT('Origin',(600.,40.,0.));
#1034=CARTESIAN_POINT('',(600.,40.,0.));
#1035=CARTESIAN_POINT('',(0.,40.,0.));
#1036=CARTESIAN_POINT('',(600.,40.,0.));
#1037=CARTESIAN_POINT('',(0.,40.,50.));
#1038=CARTESIAN_POINT('',(0.,40.,0.));
#1039=CARTESIAN_POINT('',(600.,40.,50.));
#1040=CARTESIAN_POINT('',(600.,40.,50.));
#1041=CARTESIAN_POINT('',(600.,40.,0.));
#1042=CARTESIAN_POINT('Origin',(600.,0.,0.));
#1043=CARTESIAN_POINT('',(600.,0.,0.));
#1044=CARTESIAN_POINT('',(600.,0.,0.));
#1045=CARTESIAN_POINT('',(600.,0.,50.));
#1046=CARTESIAN_POINT('',(600.,0.,50.));
#1047=CARTESIAN_POINT('',(600.,0.,0.));
#1048=CARTESIAN_POINT('Origin',(0.,0.,0.));
#1049=CARTESIAN_POINT('',(0.,0.,0.));
#1050=CARTESIAN_POINT('',(0.,0.,0.));
#1051=CARTESIAN_POINT('',(0.,0.,50.));
#1052=CARTESIAN_POINT('',(0.,0.,50.));
#1053=CARTESIAN_POINT('',(0.,0.,0.));
#1054=CARTESIAN_POINT('Origin',(0.,40.,0.));
#1055=CARTESIAN_POINT('',(0.,40.,0.));
#1056=CARTESIAN_POINT('',(0.,40.,50.));
#1057=CARTESIAN_POINT('Origin',(300.,20.,50.));
#1058=CARTESIAN_POINT('Origin',(300.,20.,0.));
#1059=CARTESIAN_POINT('',(0.,0.,0.));
#1060=CARTESIAN_POINT('',(0.,0.,0.));
#1061=CARTESIAN_POINT('',(0.,0.,0.));
#1062=CARTESIAN_POINT('Origin',(25.,12.5,75.));
#1063=CARTESIAN_POINT('',(29.38975,12.5,75.));
#1064=CARTESIAN_POINT('Origin',(25.,12.5,75.));
#1065=CARTESIAN_POINT('',(29.38975,12.5,60.));
#1066=CARTESIAN_POINT('',(29.38975,12.5,75.));
#1067=CARTESIAN_POINT('Origin',(25.,12.5,60.));
#1068=CARTESIAN_POINT('Origin',(25.,12.5,0.));
#1069=CARTESIAN_POINT('',(20.61025,12.5,0.));
#1070=CARTESIAN_POINT('Origin',(25.,12.5,0.));
#1071=CARTESIAN_POINT('',(20.61025,12.5,15.));
#1072=CARTESIAN_POINT('',(20.61025,12.5,0.));
#1073=CARTESIAN_POINT('Origin',(25.,12.5,15.));
#1074=CARTESIAN_POINT('Origin',(50.,0.,50.));
#1075=CARTESIAN_POINT('',(50.,0.,50.));
#1076=CARTESIAN_POINT('',(20.,0.,50.));
#1077=CARTESIAN_POINT('',(37.5,0.,50.));
#1078=CARTESIAN_POINT('',(50.,25.,50.));
#1079=CARTESIAN_POINT('',(50.,0.,50.));
#1080=CARTESIAN_POINT('',(20.,25.,50.));
#1081=CARTESIAN_POINT('',(37.5,25.,50.));
#1082=CARTESIAN_POINT('',(20.,0.,50.));
#1083=CARTESIAN_POINT('Origin',(20.,0.,60.));
#1084=CARTESIAN_POINT('',(20.,0.,60.));
#1085=CARTESIAN_POINT('',(20.,25.,60.));
#1086=CARTESIAN_POINT('',(20.,0.,60.));
#1087=CARTESIAN_POINT('',(50.,25.,60.));
#1088=CARTESIAN_POINT('',(22.5,25.,60.));
#1089=CARTESIAN_POINT('',(50.,0.,60.));
#1090=CARTESIAN_POINT('',(50.,0.,60.));
#1091=CARTESIAN_POINT('',(22.5,0.,60.));
#1092=CARTESIAN_POINT('Origin',(20.,0.,55.));
#1093=CARTESIAN_POINT('Origin',(20.,0.,55.));
#1094=CARTESIAN_POINT('Origin',(20.,25.,55.));
#1095=CARTESIAN_POINT('Origin',(0.,0.,25.));
#1096=CARTESIAN_POINT('',(0.,0.,25.));
#1097=CARTESIAN_POINT('',(30.,0.,25.));
#1098=CARTESIAN_POINT('',(12.5,0.,25.));
#1099=CARTESIAN_POINT('',(0.,25.,25.));
#1100=CARTESIAN_POINT('',(0.,0.,25.));
#1101=CARTESIAN_POINT('',(30.,25.,25.));
#1102=CARTESIAN_POINT('',(12.5,25.,25.));
#1103=CARTESIAN_POINT('',(30.,0.,25.));
#1104=CARTESIAN_POINT('Origin',(30.,0.,15.));
#1105=CARTESIAN_POINT('',(30.,0.,15.));
#1106=CARTESIAN_POINT('',(30.,25.,15.));
#1107=CARTESIAN_POINT('',(30.,0.,15.));
#1108=CARTESIAN_POINT('',(0.,25.,15.));
#1109=CARTESIAN_POINT('',(27.5,25.,15.));
#1110=CARTESIAN_POINT('',(0.,0.,15.));
#1111=CARTESIAN_POINT('',(0.,0.,15.));
#1112=CARTESIAN_POINT('',(27.5,0.,15.));
#1113=CARTESIAN_POINT('Origin',(30.,0.,20.));
#1114=CARTESIAN_POINT('Origin',(30.,0.,20.));
#1115=CARTESIAN_POINT('Origin',(30.,25.,20.));
#1116=CARTESIAN_POINT('Origin',(50.,0.,75.));
#1117=CARTESIAN_POINT('',(50.,0.,0.));
#1118=CARTESIAN_POINT('',(50.,0.,0.));
#1119=CARTESIAN_POINT('',(50.,25.,0.));
#1120=CARTESIAN_POINT('',(50.,0.,0.));
#1121=CARTESIAN_POINT('',(50.,25.,0.));
#1122=CARTESIAN_POINT('Origin',(25.,25.,37.5));
#1123=CARTESIAN_POINT('',(0.,25.,0.));
#1124=CARTESIAN_POINT('',(0.,25.,0.));
#1125=CARTESIAN_POINT('',(0.,25.,75.));
#1126=CARTESIAN_POINT('',(0.,25.,75.));
#1127=CARTESIAN_POINT('',(0.,25.,75.));
#1128=CARTESIAN_POINT('',(50.,25.,75.));
#1129=CARTESIAN_POINT('',(50.,25.,75.));
#1130=CARTESIAN_POINT('',(50.,25.,0.));
#1131=CARTESIAN_POINT('Origin',(0.,0.,0.));
#1132=CARTESIAN_POINT('',(0.,0.,75.));
#1133=CARTESIAN_POINT('',(0.,0.,75.));
#1134=CARTESIAN_POINT('',(0.,0.,75.));
#1135=CARTESIAN_POINT('Origin',(0.,0.,0.));
#1136=CARTESIAN_POINT('',(0.,0.,0.));
#1137=CARTESIAN_POINT('',(0.,0.,0.));
#1138=CARTESIAN_POINT('',(0.,0.,75.));
#1139=CARTESIAN_POINT('Origin',(50.,0.,0.));
#1140=CARTESIAN_POINT('',(0.,0.,0.));
#1141=CARTESIAN_POINT('Origin',(50.,0.,75.));
#1142=CARTESIAN_POINT('',(50.,0.,75.));
#1143=CARTESIAN_POINT('',(50.,0.,75.));
#1144=CARTESIAN_POINT('',(50.,0.,0.));
#1145=CARTESIAN_POINT('Origin',(0.,0.,75.));
#1146=CARTESIAN_POINT('',(50.,0.,75.));
#1147=CARTESIAN_POINT('Origin',(25.,0.,37.5));
#1148=CARTESIAN_POINT('',(0.,0.,0.));
#1149=CARTESIAN_POINT('',(0.,0.,0.));
#1150=CARTESIAN_POINT('',(0.,0.,0.));
#1151=CARTESIAN_POINT('Origin',(0.,0.,0.));
#1152=CARTESIAN_POINT('',(-4.933,-6.04118266019389E-16,-15.));
#1153=CARTESIAN_POINT('Origin',(0.,0.,-15.));
#1154=CARTESIAN_POINT('',(-4.933,6.04118266019389E-16,0.));
#1155=CARTESIAN_POINT('',(-4.933,6.04118266019389E-16,0.));
#1156=CARTESIAN_POINT('Origin',(0.,0.,0.));
#1157=CARTESIAN_POINT('Origin',(0.,0.,-15.));
#1158=CARTESIAN_POINT('Origin',(0.,0.,4.));
#1159=CARTESIAN_POINT('',(4.933,-6.04118266019389E-16,19.));
#1160=CARTESIAN_POINT('Origin',(0.,0.,19.));
#1161=CARTESIAN_POINT('',(4.933,-6.04118266019389E-16,4.));
#1162=CARTESIAN_POINT('',(4.933,6.04118266019389E-16,4.));
#1163=CARTESIAN_POINT('Origin',(0.,0.,4.));
#1164=CARTESIAN_POINT('Origin',(0.,0.,19.));
#1165=CARTESIAN_POINT('Origin',(0.,0.,0.));
#1166=CARTESIAN_POINT('',(-7.5,-9.18485099360515E-16,4.));
#1167=CARTESIAN_POINT('Origin',(0.,0.,4.));
#1168=CARTESIAN_POINT('',(-7.5,-9.18485099360515E-16,0.));
#1169=CARTESIAN_POINT('',(-7.5,-9.18485099360515E-16,0.));
#1170=CARTESIAN_POINT('Origin',(0.,0.,0.));
#1171=CARTESIAN_POINT('Origin',(0.,0.,4.));
#1172=CARTESIAN_POINT('Origin',(0.,0.,0.));
#1173=CARTESIAN_POINT('',(0.,0.,0.));
#1174=CARTESIAN_POINT('Origin',(0.,0.,0.));
#1175=CARTESIAN_POINT('',(-4.38975,5.37589328655709E-16,0.));
#1176=CARTESIAN_POINT('Origin',(0.,0.,0.));
#1177=CARTESIAN_POINT('',(-4.38975,-5.37589328655709E-16,15.));
#1178=CARTESIAN_POINT('',(-4.38975,-5.37589328655709E-16,0.));
#1179=CARTESIAN_POINT('Origin',(0.,0.,15.));
#1180=CARTESIAN_POINT('Origin',(0.,0.,15.));
#1181=CARTESIAN_POINT('Origin',(0.,0.,25.));
#1182=CARTESIAN_POINT('',(40.,4.89858719658941E-15,25.));
#1183=CARTESIAN_POINT('Origin',(0.,0.,25.));
#1184=CARTESIAN_POINT('',(-25.,-3.06161699786838E-15,25.));
#1185=CARTESIAN_POINT('Origin',(0.,0.,25.));
#1186=CARTESIAN_POINT('Origin',(0.,0.,25.));
#1187=CARTESIAN_POINT('',(40.,4.89858719658941E-15,65.));
#1188=CARTESIAN_POINT('Origin',(0.,0.,65.));
#1189=CARTESIAN_POINT('',(40.,4.89858719658941E-15,25.));
#1190=CARTESIAN_POINT('Origin',(0.,0.,65.));
#1191=CARTESIAN_POINT('Origin',(0.,0.,0.));
#1192=CARTESIAN_POINT('',(-25.,-3.06161699786838E-15,0.));
#1193=CARTESIAN_POINT('',(-25.,-3.06161699786838E-15,0.));
#1194=CARTESIAN_POINT('Origin',(0.,0.,0.));
#1195=CARTESIAN_POINT('Origin',(0.,0.,0.));
#1196=CARTESIAN_POINT('',(0.,0.,0.));
#1197=CARTESIAN_POINT('',(300.,20.,-4.));
#1198=CARTESIAN_POINT('',(275.,7.5,-79.));
#1199=CARTESIAN_POINT('',(300.,20.,-83.));
#1200=CARTESIAN_POINT('',(300.,20.,-83.));
#1201=UNCERTAINTY_MEASURE_WITH_UNIT(LENGTH_MEASURE(0.01),#1217,
'DISTANCE_ACCURACY_VALUE',
'Maximum model space distance between geometric entities at asserted c
onnectivities');
#1202=UNCERTAINTY_MEASURE_WITH_UNIT(LENGTH_MEASURE(0.01),#1217,
'DISTANCE_ACCURACY_VALUE',
'Maximum model space distance between geometric entities at asserted c
onnectivities');
#1203=UNCERTAINTY_MEASURE_WITH_UNIT(LENGTH_MEASURE(0.01),#1217,
'DISTANCE_ACCURACY_VALUE',
'Maximum model space distance between geometric entities at asserted c
onnectivities');
#1204=UNCERTAINTY_MEASURE_WITH_UNIT(LENGTH_MEASURE(0.01),#1217,
'DISTANCE_ACCURACY_VALUE',
'Maximum model space distance between geometric entities at asserted c
onnectivities');
#1205=UNCERTAINTY_MEASURE_WITH_UNIT(LENGTH_MEASURE(0.01),#1217,
'DISTANCE_ACCURACY_VALUE',
'Maximum model space distance between geometric entities at asserted c
onnectivities');
#1206=UNCERTAINTY_MEASURE_WITH_UNIT(LENGTH_MEASURE(0.01),#1217,
'DISTANCE_ACCURACY_VALUE',
'Maximum model space distance between geometric entities at asserted c
onnectivities');
#1207=UNCERTAINTY_MEASURE_WITH_UNIT(LENGTH_MEASURE(0.01),#1217,
'DISTANCE_ACCURACY_VALUE',
'Maximum model space distance between geometric entities at asserted c
onnectivities');
#1208=UNCERTAINTY_MEASURE_WITH_UNIT(LENGTH_MEASURE(0.01),#1217,
'DISTANCE_ACCURACY_VALUE',
'Maximum model space distance between geometric entities at asserted c
onnectivities');
#1209=(
GEOMETRIC_REPRESENTATION_CONTEXT(3)
GLOBAL_UNCERTAINTY_ASSIGNED_CONTEXT((#1201))
GLOBAL_UNIT_ASSIGNED_CONTEXT((#1217,#1219,#1220))
REPRESENTATION_CONTEXT('','3D')
);
#1210=(
GEOMETRIC_REPRESENTATION_CONTEXT(3)
GLOBAL_UNCERTAINTY_ASSIGNED_CONTEXT((#1202))
GLOBAL_UNIT_ASSIGNED_CONTEXT((#1217,#1219,#1220))
REPRESENTATION_CONTEXT('','3D')
);
#1211=(
GEOMETRIC_REPRESENTATION_CONTEXT(3)
GLOBAL_UNCERTAINTY_ASSIGNED_CONTEXT((#1203))
GLOBAL_UNIT_ASSIGNED_CONTEXT((#1217,#1219,#1220))
REPRESENTATION_CONTEXT('','3D')
);
#1212=(
GEOMETRIC_REPRESENTATION_CONTEXT(3)
GLOBAL_UNCERTAINTY_ASSIGNED_CONTEXT((#1204))
GLOBAL_UNIT_ASSIGNED_CONTEXT((#1217,#1219,#1220))
REPRESENTATION_CONTEXT('','3D')
);
#1213=(
GEOMETRIC_REPRESENTATION_CONTEXT(3)
GLOBAL_UNCERTAINTY_ASSIGNED_CONTEXT((#1205))
GLOBAL_UNIT_ASSIGNED_CONTEXT((#1217,#1219,#1220))
REPRESENTATION_CONTEXT('','3D')
);
#1214=(
GEOMETRIC_REPRESENTATION_CONTEXT(3)
GLOBAL_UNCERTAINTY_ASSIGNED_CONTEXT((#1206))
GLOBAL_UNIT_ASSIGNED_CONTEXT((#1217,#1219,#1220))
REPRESENTATION_CONTEXT('','3D')
);
#1215=(
GEOMETRIC_REPRESENTATION_CONTEXT(3)
GLOBAL_UNCERTAINTY_ASSIGNED_CONTEXT((#1207))
GLOBAL_UNIT_ASSIGNED_CONTEXT((#1217,#1219,#1220))
REPRESENTATION_CONTEXT('','3D')
);
#1216=(
GEOMETRIC_REPRESENTATION_CONTEXT(3)
GLOBAL_UNCERTAINTY_ASSIGNED_CONTEXT((#1208))
GLOBAL_UNIT_ASSIGNED_CONTEXT((#1217,#1219,#1220))
REPRESENTATION_CONTEXT('','3D')
);
#1217=(
LENGTH_UNIT()
NAMED_UNIT(*)
SI_UNIT(.MILLI.,.METRE.)
);
#1218=(
LENGTH_UNIT()
NAMED_UNIT(*)
SI_UNIT($,.METRE.)
);
#1219=(
NAMED_UNIT(*)
PLANE_ANGLE_UNIT()
SI_UNIT($,.RADIAN.)
);
#1220=(
NAMED_UNIT(*)
SI_UNIT($,.STERADIAN.)
SOLID_ANGLE_UNIT()
);
#1221=SHAPE_DEFINITION_REPRESENTATION(#1228,#1242);
#1222=SHAPE_DEFINITION_REPRESENTATION(#1229,#1243);
#1223=SHAPE_DEFINITION_REPRESENTATION(#1230,#1244);
#1224=SHAPE_DEFINITION_REPRESENTATION(#1231,#1245);
#1225=SHAPE_DEFINITION_REPRESENTATION(#1232,#1246);
#1226=SHAPE_DEFINITION_REPRESENTATION(#1235,#1247);
#1227=SHAPE_DEFINITION_REPRESENTATION(#1236,#1248);
#1228=PRODUCT_DEFINITION_SHAPE('',$,#1250);
#1229=PRODUCT_DEFINITION_SHAPE('',$,#1251);
#1230=PRODUCT_DEFINITION_SHAPE('',$,#1252);
#1231=PRODUCT_DEFINITION_SHAPE('',$,#1253);
#1232=PRODUCT_DEFINITION_SHAPE('',$,#1254);
#1233=PRODUCT_DEFINITION_SHAPE($,$,#32);
#1234=PRODUCT_DEFINITION_SHAPE($,$,#33);
#1235=PRODUCT_DEFINITION_SHAPE('',$,#1255);
#1236=PRODUCT_DEFINITION_SHAPE('',$,#1256);
#1237=PRODUCT_DEFINITION_SHAPE($,$,#34);
#1238=PRODUCT_DEFINITION_SHAPE($,$,#35);
#1239=PRODUCT_DEFINITION_SHAPE($,$,#36);
#1240=PRODUCT_DEFINITION_SHAPE($,$,#37);
#1241=PRODUCT_DEFINITION_SHAPE($,$,#38);
#1242=SHAPE_REPRESENTATION('',(#721,#795,#796,#797,#798,#799),#1209);
#1243=SHAPE_REPRESENTATION('',(#722),#1210);
#1244=SHAPE_REPRESENTATION('',(#738,#766),#1211);
#1245=SHAPE_REPRESENTATION('',(#739,#765),#1212);
#1246=SHAPE_REPRESENTATION('',(#740),#1213);
#1247=SHAPE_REPRESENTATION('',(#767),#1214);
#1248=SHAPE_REPRESENTATION('',(#781),#1215);
#1249=PRODUCT_DEFINITION_CONTEXT('part definition',#1272,'design');
#1250=PRODUCT_DEFINITION(
'Moving Crosshead along with load cell and load applier',
'Moving Crosshead along with load cell and load applier v1',#1257,#1249);
#1251=PRODUCT_DEFINITION('A_movecross','A_movecross v1',#1258,#1249);
#1252=PRODUCT_DEFINITION('LOAD CELL','LOAD CELL v1',#1259,#1249);
#1253=PRODUCT_DEFINITION('LOAD CELL (1)','LOAD CELL (1)',#1260,#1249);
#1254=PRODUCT_DEFINITION('LOAD CELL_1','LOAD CELL',#1261,#1249);
#1255=PRODUCT_DEFINITION('LOAD CELL JOINT NUT','LOAD CELL JOINT NUT v1',
#1262,#1249);
#1256=PRODUCT_DEFINITION('LOAD APPLIER','LOAD APPLIER v1',#1263,#1249);
#1257=PRODUCT_DEFINITION_FORMATION('',$,#1274);
#1258=PRODUCT_DEFINITION_FORMATION('',$,#1275);
#1259=PRODUCT_DEFINITION_FORMATION('',$,#1276);
#1260=PRODUCT_DEFINITION_FORMATION('',$,#1277);
#1261=PRODUCT_DEFINITION_FORMATION('',$,#1278);
#1262=PRODUCT_DEFINITION_FORMATION('',$,#1279);
#1263=PRODUCT_DEFINITION_FORMATION('',$,#1280);
#1264=PRODUCT_RELATED_PRODUCT_CATEGORY(
'Moving Crosshead along with load cell and load applier v1',
'Moving Crosshead along with load cell and load applier v1',(#1274));
#1265=PRODUCT_RELATED_PRODUCT_CATEGORY('A_movecross v1',
'A_movecross v1',(#1275));
#1266=PRODUCT_RELATED_PRODUCT_CATEGORY('LOAD CELL v1','LOAD CELL v1',(#1276));
#1267=PRODUCT_RELATED_PRODUCT_CATEGORY('LOAD CELL (1)','LOAD CELL (1)',
(#1277));
#1268=PRODUCT_RELATED_PRODUCT_CATEGORY('LOAD CELL','LOAD CELL',(#1278));
#1269=PRODUCT_RELATED_PRODUCT_CATEGORY('LOAD CELL JOINT NUT v1',
'LOAD CELL JOINT NUT v1',(#1279));
#1270=PRODUCT_RELATED_PRODUCT_CATEGORY('LOAD APPLIER v1',
'LOAD APPLIER v1',(#1280));
#1271=APPLICATION_PROTOCOL_DEFINITION('international standard',
'automotive_design',2009,#1272);
#1272=APPLICATION_CONTEXT(
'Core Data for Automotive Mechanical Design Process');
#1273=PRODUCT_CONTEXT('part definition',#1272,'mechanical');
#1274=PRODUCT('Moving Crosshead along with load cell and load applier',
'Moving Crosshead along with load cell and load applier v1',$,(#1273));
#1275=PRODUCT('A_movecross','A_movecross v1',$,(#1273));
#1276=PRODUCT('LOAD CELL','LOAD CELL v1',$,(#1273));
#1277=PRODUCT('LOAD CELL (1)','LOAD CELL (1)',$,(#1273));
#1278=PRODUCT('LOAD CELL_1','LOAD CELL',$,(#1273));
#1279=PRODUCT('LOAD CELL JOINT NUT','LOAD CELL JOINT NUT v1',$,(#1273));
#1280=PRODUCT('LOAD APPLIER','LOAD APPLIER v1',$,(#1273));
#1281=PRESENTATION_STYLE_ASSIGNMENT((#1283));
#1282=PRESENTATION_STYLE_ASSIGNMENT((#1284));
#1283=SURFACE_STYLE_USAGE(.BOTH.,#1285);
#1284=SURFACE_STYLE_USAGE(.BOTH.,#1286);
#1285=SURFACE_SIDE_STYLE('',(#1287));
#1286=SURFACE_SIDE_STYLE('',(#1288));
#1287=SURFACE_STYLE_FILL_AREA(#1289);
#1288=SURFACE_STYLE_FILL_AREA(#1290);
#1289=FILL_AREA_STYLE('Steel - Satin',(#1291));
#1290=FILL_AREA_STYLE('Aluminum - Satin',(#1292));
#1291=FILL_AREA_STYLE_COLOUR('Steel - Satin',#1293);
#1292=FILL_AREA_STYLE_COLOUR('Aluminum - Satin',#1294);
#1293=COLOUR_RGB('Steel - Satin',0.627450980392157,0.627450980392157,0.627450980392157);
#1294=COLOUR_RGB('Aluminum - Satin',0.96078431372549,0.96078431372549,0.964705882352941);
ENDSEC;
END-ISO-10303-21;
